<?xml version="1.0" encoding="UTF-8" standalone="no"?><!-- Generated by graphviz version 2.40.1 (20161225.0304)
 --><!-- Title: ndiag Pages: 1 --><svg width="2651pt" height="626pt" viewBox="0.00 0.00 2651.00 626.40" xmlns="http://www.w3.org/2000/svg" xmlns:xlink="http://www.w3.org/1999/xlink"><g id="graph0" class="graph" transform="scale(1 1) rotate(0) translate(4 622.4)"><title>ndiag</title><polygon fill="#ffffff" stroke="transparent" points="-4,4 -4,-622.4 2647,-622.4 2647,4 -4,4"></polygon><g id="clust18" class="cluster"><title>cluster_group:playback</title><path fill="#ffffff" stroke="#1f91be" stroke-width="2" d="M1398,-8C1398,-8 1670,-8 1670,-8 1676,-8 1682,-14 1682,-20 1682,-20 1682,-113.6 1682,-113.6 1682,-119.6 1676,-125.6 1670,-125.6 1670,-125.6 1398,-125.6 1398,-125.6 1392,-125.6 1386,-119.6 1386,-113.6 1386,-113.6 1386,-20 1386,-20 1386,-14 1392,-8 1398,-8"></path><text text-anchor="middle" x="1534" y="-109" font-family="Arial" font-size="14.00" fill="#333333">Group:Playback</text></g><g id="clust20" class="cluster"><title>cluster_creative pebble</title><polygon fill="#ffffff" stroke="#333333" stroke-width="2" points="1559,-16 1559,-92.8 1674,-92.8 1674,-16 1559,-16"></polygon><text text-anchor="middle" x="1616.5" y="-76.2" font-family="Arial" font-size="14.00" fill="#333333">Creative Pebble</text></g><g id="clust19" class="cluster"><title>cluster_sony mdr-cd900st</title><polygon fill="#ffffff" stroke="#333333" stroke-width="2" points="1394,-16 1394,-92.8 1551,-92.8 1551,-16 1394,-16"></polygon><text text-anchor="middle" x="1472.5" y="-76.2" font-family="Arial" font-size="14.00" fill="#333333">SONY MDR-CD900ST</text></g><g id="clust14" class="cluster"><title>cluster_group:phone1</title><path fill="#ffffff" stroke="#1f91be" stroke-width="2" d="M1398,-226.4C1398,-226.4 1724,-226.4 1724,-226.4 1730,-226.4 1736,-232.4 1736,-238.4 1736,-238.4 1736,-598.4 1736,-598.4 1736,-604.4 1730,-610.4 1724,-610.4 1724,-610.4 1398,-610.4 1398,-610.4 1392,-610.4 1386,-604.4 1386,-598.4 1386,-598.4 1386,-238.4 1386,-238.4 1386,-232.4 1392,-226.4 1398,-226.4"></path><text text-anchor="middle" x="1561" y="-593.8" font-family="Arial" font-size="14.00" fill="#333333">Group:Phone1</text></g><g id="clust17" class="cluster"><title>cluster_apple headphone adapter</title><polygon fill="#ffffff" stroke="#333333" stroke-width="2" points="1548,-416 1548,-492.8 1728,-492.8 1728,-416 1548,-416"></polygon><text text-anchor="middle" x="1638" y="-476.2" font-family="Arial" font-size="14.00" fill="#333333">Apple Headphone Adapter</text></g><g id="clust16" class="cluster"><title>cluster_tascam ixz</title><polygon fill="#ffffff" stroke="#333333" stroke-width="2" points="1394,-234.4 1394,-492.8 1540,-492.8 1540,-234.4 1394,-234.4"></polygon><text text-anchor="middle" x="1467" y="-476.2" font-family="Arial" font-size="14.00" fill="#333333">TASCAM iXZ</text></g><g id="clust15" class="cluster"><title>cluster_apple iphone 8</title><polygon fill="#ffffff" stroke="#333333" stroke-width="2" points="1537,-500.8 1537,-577.6 1647,-577.6 1647,-500.8 1537,-500.8"></polygon><text text-anchor="middle" x="1592" y="-561" font-family="Arial" font-size="14.00" fill="#333333">Apple iPhone 8</text></g><g id="clust11" class="cluster"><title>cluster_group:pc4</title><path fill="#ffffff" stroke="#1f91be" stroke-width="2" d="M1756,-133.6C1756,-133.6 2010,-133.6 2010,-133.6 2016,-133.6 2022,-139.6 2022,-145.6 2022,-145.6 2022,-332 2022,-332 2022,-338 2016,-344 2010,-344 2010,-344 1756,-344 1756,-344 1750,-344 1744,-338 1744,-332 1744,-332 1744,-145.6 1744,-145.6 1744,-139.6 1750,-133.6 1756,-133.6"></path><text text-anchor="middle" x="1883" y="-327.4" font-family="Arial" font-size="14.00" fill="#333333">Group:PC4</text></g><g id="clust13" class="cluster"><title>cluster_steinberg ur22c</title><polygon fill="#ffffff" stroke="#333333" stroke-width="2" points="1752,-234.4 1752,-311.2 2014,-311.2 2014,-234.4 1752,-234.4"></polygon><text text-anchor="middle" x="1883" y="-294.6" font-family="Arial" font-size="14.00" fill="#333333">Steinberg UR22C</text></g><g id="clust12" class="cluster"><title>cluster_mac</title><polygon fill="#ffffff" stroke="#333333" stroke-width="2" points="1944,-141.6 1944,-218.4 2014,-218.4 2014,-141.6 1944,-141.6"></polygon><text text-anchor="middle" x="1979" y="-201.8" font-family="Arial" font-size="14.00" fill="#333333">Mac</text></g><g id="clust8" class="cluster"><title>cluster_group:pc3</title><path fill="#ffffff" stroke="#1f91be" stroke-width="2" d="M2042,-133.6C2042,-133.6 2296,-133.6 2296,-133.6 2302,-133.6 2308,-139.6 2308,-145.6 2308,-145.6 2308,-332 2308,-332 2308,-338 2302,-344 2296,-344 2296,-344 2042,-344 2042,-344 2036,-344 2030,-338 2030,-332 2030,-332 2030,-145.6 2030,-145.6 2030,-139.6 2036,-133.6 2042,-133.6"></path><text text-anchor="middle" x="2169" y="-327.4" font-family="Arial" font-size="14.00" fill="#333333">Group:PC3</text></g><g id="clust10" class="cluster"><title>cluster_sound blaster</title><polygon fill="#ffffff" stroke="#333333" stroke-width="2" points="2038,-234.4 2038,-311.2 2300,-311.2 2300,-234.4 2038,-234.4"></polygon><text text-anchor="middle" x="2169" y="-294.6" font-family="Arial" font-size="14.00" fill="#333333">Sound Blaster</text></g><g id="clust9" class="cluster"><title>cluster_windows(nuc2)</title><polygon fill="#ffffff" stroke="#333333" stroke-width="2" points="2180,-141.6 2180,-218.4 2300,-218.4 2300,-141.6 2180,-141.6"></polygon><text text-anchor="middle" x="2240" y="-201.8" font-family="Arial" font-size="14.00" fill="#333333">Windows(NUC2)</text></g><g id="clust5" class="cluster"><title>cluster_group:pc2</title><path fill="#ffffff" stroke="#1f91be" stroke-width="2" d="M2328,-133.6C2328,-133.6 2623,-133.6 2623,-133.6 2629,-133.6 2635,-139.6 2635,-145.6 2635,-145.6 2635,-332 2635,-332 2635,-338 2629,-344 2623,-344 2623,-344 2328,-344 2328,-344 2322,-344 2316,-338 2316,-332 2316,-332 2316,-145.6 2316,-145.6 2316,-139.6 2322,-133.6 2328,-133.6"></path><text text-anchor="middle" x="2475.5" y="-327.4" font-family="Arial" font-size="14.00" fill="#333333">Group:PC2</text></g><g id="clust7" class="cluster"><title>cluster_babyface</title><polygon fill="#ffffff" stroke="#333333" stroke-width="2" points="2324,-234.4 2324,-311.2 2627,-311.2 2627,-234.4 2324,-234.4"></polygon><text text-anchor="middle" x="2475.5" y="-294.6" font-family="Arial" font-size="14.00" fill="#333333">Babyface</text></g><g id="clust6" class="cluster"><title>cluster_windows(desktop)</title><polygon fill="#ffffff" stroke="#333333" stroke-width="2" points="2494,-141.6 2494,-218.4 2627,-218.4 2627,-141.6 2494,-141.6"></polygon><text text-anchor="middle" x="2560.5" y="-201.8" font-family="Arial" font-size="14.00" fill="#333333">Windows(Desktop)</text></g><g id="clust1" class="cluster"><title>cluster_group:pc1</title><path fill="#ffffff" stroke="#1f91be" stroke-width="2" d="M20,-8C20,-8 1366,-8 1366,-8 1372,-8 1378,-14 1378,-20 1378,-20 1378,-332 1378,-332 1378,-338 1372,-344 1366,-344 1366,-344 20,-344 20,-344 14,-344 8,-338 8,-332 8,-332 8,-20 8,-20 8,-14 14,-8 20,-8"></path><text text-anchor="middle" x="693" y="-327.4" font-family="Arial" font-size="14.00" fill="#333333">Group:PC1</text></g><g id="clust4" class="cluster"><title>cluster_focusrite</title><polygon fill="#ffffff" stroke="#333333" stroke-width="2" points="16,-141.6 16,-218.4 1370,-218.4 1370,-141.6 16,-141.6"></polygon><text text-anchor="middle" x="693" y="-201.8" font-family="Arial" font-size="14.00" fill="#333333">Focusrite</text></g><g id="clust3" class="cluster"><title>cluster_cantabile</title><polygon fill="#ffffff" stroke="#333333" stroke-width="2" points="245,-234.4 245,-311.2 459,-311.2 459,-234.4 245,-234.4"></polygon><text text-anchor="middle" x="352" y="-294.6" font-family="Arial" font-size="14.00" fill="#333333">Cantabile</text></g><g id="clust2" class="cluster"><title>cluster_windows(nuc1)</title><polygon fill="#ffffff" stroke="#333333" stroke-width="2" points="286,-16 286,-92.8 406,-92.8 406,-16 286,-16"></polygon><text text-anchor="middle" x="346" y="-76.2" font-family="Arial" font-size="14.00" fill="#333333">Windows(NUC1)</text></g><!-- windows(nuc1):usb --><g id="node1" class="node"><title>windows(nuc1):usb</title><path fill="#ffffff" stroke="#4b75b9" stroke-width="3" d="M361,-60C361,-60 331,-60 331,-60 325,-60 319,-54 319,-48 319,-48 319,-36 319,-36 319,-30 325,-24 331,-24 331,-24 361,-24 361,-24 367,-24 373,-30 373,-36 373,-36 373,-48 373,-48 373,-54 367,-60 361,-60"></path><text text-anchor="middle" x="346" y="-37.8" font-family="Arial" font-size="14.00" fill="#333333">USB</text></g><!-- cantabile:nectar 3 in --><g id="node2" class="node"><title>cantabile:nectar 3 in</title><path fill="#ffffff" stroke="#4b75b9" stroke-width="3" d="M325.4613,-278.4C325.4613,-278.4 264.5387,-278.4 264.5387,-278.4 258.5387,-278.4 252.5387,-272.4 252.5387,-266.4 252.5387,-266.4 252.5387,-254.4 252.5387,-254.4 252.5387,-248.4 258.5387,-242.4 264.5387,-242.4 264.5387,-242.4 325.4613,-242.4 325.4613,-242.4 331.4613,-242.4 337.4613,-248.4 337.4613,-254.4 337.4613,-254.4 337.4613,-266.4 337.4613,-266.4 337.4613,-272.4 331.4613,-278.4 325.4613,-278.4"></path><text text-anchor="middle" x="295" y="-256.2" font-family="Arial" font-size="14.00" fill="#333333">Nectar 3 In</text></g><!-- cantabile:nectar 3 out --><g id="node3" class="node"><title>cantabile:nectar 3 out</title><path fill="#ffffff" stroke="#4b75b9" stroke-width="3" d="M438.8512,-278.4C438.8512,-278.4 367.1488,-278.4 367.1488,-278.4 361.1488,-278.4 355.1488,-272.4 355.1488,-266.4 355.1488,-266.4 355.1488,-254.4 355.1488,-254.4 355.1488,-248.4 361.1488,-242.4 367.1488,-242.4 367.1488,-242.4 438.8512,-242.4 438.8512,-242.4 444.8512,-242.4 450.8512,-248.4 450.8512,-254.4 450.8512,-254.4 450.8512,-266.4 450.8512,-266.4 450.8512,-272.4 444.8512,-278.4 438.8512,-278.4"></path><text text-anchor="middle" x="403" y="-256.2" font-family="Arial" font-size="14.00" fill="#333333">Nectar 3 Out</text></g><!-- focusrite:line out 3 --><g id="node9" class="node"><title>focusrite:line out 3</title><path fill="#ffffff" stroke="#4b75b9" stroke-width="3" d="M578.7444,-185.6C578.7444,-185.6 517.2556,-185.6 517.2556,-185.6 511.2556,-185.6 505.2556,-179.6 505.2556,-173.6 505.2556,-173.6 505.2556,-161.6 505.2556,-161.6 505.2556,-155.6 511.2556,-149.6 517.2556,-149.6 517.2556,-149.6 578.7444,-149.6 578.7444,-149.6 584.7444,-149.6 590.7444,-155.6 590.7444,-161.6 590.7444,-161.6 590.7444,-173.6 590.7444,-173.6 590.7444,-179.6 584.7444,-185.6 578.7444,-185.6"></path><text text-anchor="middle" x="548" y="-163.4" font-family="Arial" font-size="14.00" fill="#333333">LINE Out 3</text></g><!-- cantabile:nectar 3 out&#45;&gt;focusrite:line out 3 --><g id="edge-2" class="edge"><title>cantabile:nectar 3 out-&gt;focusrite:line out 3</title><path fill="none" stroke="#333333" stroke-width="2" stroke-opacity="0.600000" d="M450.7674,-249C497.663,-249 562.2073,-249 562.2073,-249 562.2073,-249 562.2073,-195.6653 562.2073,-195.6653"></path><polygon fill="#333333" fill-opacity="0.600000" stroke="#333333" stroke-width="2" stroke-opacity="0.600000" points="565.7074,-195.6653 562.2073,-185.6653 558.7074,-195.6653 565.7074,-195.6653"></polygon></g><!-- focusrite:line out 4 --><g id="node10" class="node"><title>focusrite:line out 4</title><path fill="#ffffff" stroke="#4b75b9" stroke-width="3" d="M288.7444,-185.6C288.7444,-185.6 227.2556,-185.6 227.2556,-185.6 221.2556,-185.6 215.2556,-179.6 215.2556,-173.6 215.2556,-173.6 215.2556,-161.6 215.2556,-161.6 215.2556,-155.6 221.2556,-149.6 227.2556,-149.6 227.2556,-149.6 288.7444,-149.6 288.7444,-149.6 294.7444,-149.6 300.7444,-155.6 300.7444,-161.6 300.7444,-161.6 300.7444,-173.6 300.7444,-173.6 300.7444,-179.6 294.7444,-185.6 288.7444,-185.6"></path><text text-anchor="middle" x="258" y="-163.4" font-family="Arial" font-size="14.00" fill="#333333">LINE Out 4</text></g><!-- cantabile:nectar 3 out&#45;&gt;focusrite:line out 4 --><g id="edge-3" class="edge"><title>cantabile:nectar 3 out-&gt;focusrite:line out 4</title><path fill="none" stroke="#333333" stroke-width="2" stroke-opacity="0.600000" d="M367.1082,-242.166C367.1082,-221.6039 367.1082,-191 367.1082,-191 367.1082,-191 276.696,-191 276.696,-191 276.696,-191 276.696,-190.5037 276.696,-190.5037"></path><polygon fill="#333333" fill-opacity="0.600000" stroke="#333333" stroke-width="2" stroke-opacity="0.600000" points="280.1962,-196.0374 276.696,-186.0375 273.1962,-196.0375 280.1962,-196.0374"></polygon></g><!-- focusrite:line out 5/6 --><g id="node11" class="node"><title>focusrite:line out 5/6</title><path fill="#ffffff" stroke="#4b75b9" stroke-width="3" d="M890.4172,-185.6C890.4172,-185.6 817.5828,-185.6 817.5828,-185.6 811.5828,-185.6 805.5828,-179.6 805.5828,-173.6 805.5828,-173.6 805.5828,-161.6 805.5828,-161.6 805.5828,-155.6 811.5828,-149.6 817.5828,-149.6 817.5828,-149.6 890.4172,-149.6 890.4172,-149.6 896.4172,-149.6 902.4172,-155.6 902.4172,-161.6 902.4172,-161.6 902.4172,-173.6 902.4172,-173.6 902.4172,-179.6 896.4172,-185.6 890.4172,-185.6"></path><text text-anchor="middle" x="854" y="-163.4" font-family="Arial" font-size="14.00" fill="#333333">LINE Out 5/6</text></g><!-- cantabile:nectar 3 out&#45;&gt;focusrite:line out 5/6 --><g id="edge-4" class="edge"><title>cantabile:nectar 3 out-&gt;focusrite:line out 5/6</title><path fill="none" stroke="#333333" stroke-width="2" stroke-opacity="0.600000" d="M450.7982,-256C569.8597,-256 870.1529,-256 870.1529,-256 870.1529,-256 870.1529,-195.9165 870.1529,-195.9165"></path><polygon fill="#333333" fill-opacity="0.600000" stroke="#333333" stroke-width="2" stroke-opacity="0.600000" points="873.653,-195.9165 870.1529,-185.9165 866.653,-195.9166 873.653,-195.9165"></polygon></g><!-- focusrite:adat out 1&#45;8 --><g id="node15" class="node"><title>focusrite:adat out 1-8</title><path fill="#ffffff" stroke="#4b75b9" stroke-width="3" d="M1011.9032,-185.6C1011.9032,-185.6 932.0968,-185.6 932.0968,-185.6 926.0968,-185.6 920.0968,-179.6 920.0968,-173.6 920.0968,-173.6 920.0968,-161.6 920.0968,-161.6 920.0968,-155.6 926.0968,-149.6 932.0968,-149.6 932.0968,-149.6 1011.9032,-149.6 1011.9032,-149.6 1017.9032,-149.6 1023.9032,-155.6 1023.9032,-161.6 1023.9032,-161.6 1023.9032,-173.6 1023.9032,-173.6 1023.9032,-179.6 1017.9032,-185.6 1011.9032,-185.6"></path><text text-anchor="middle" x="972" y="-163.4" font-family="Arial" font-size="14.00" fill="#333333">ADAT Out 1-8</text></g><!-- cantabile:nectar 3 out&#45;&gt;focusrite:adat out 1&#45;8 --><g id="edge-0" class="edge"><title>cantabile:nectar 3 out-&gt;focusrite:adat out 1-8</title><path fill="none" stroke="#333333" stroke-width="2" stroke-opacity="0.600000" d="M450.9808,-263C591.0105,-263 989.3172,-263 989.3172,-263 989.3172,-263 989.3172,-195.9941 989.3172,-195.9941"></path><polygon fill="#333333" fill-opacity="0.600000" stroke="#333333" stroke-width="2" stroke-opacity="0.600000" points="992.8173,-195.994 989.3172,-185.9941 985.8173,-195.9941 992.8173,-195.994"></polygon></g><!-- focusrite:line out 6 --><g id="node16" class="node"><title>focusrite:line out 6</title><path fill="#ffffff" stroke="#4b75b9" stroke-width="3" d="M185.7444,-185.6C185.7444,-185.6 124.2556,-185.6 124.2556,-185.6 118.2556,-185.6 112.2556,-179.6 112.2556,-173.6 112.2556,-173.6 112.2556,-161.6 112.2556,-161.6 112.2556,-155.6 118.2556,-149.6 124.2556,-149.6 124.2556,-149.6 185.7444,-149.6 185.7444,-149.6 191.7444,-149.6 197.7444,-155.6 197.7444,-161.6 197.7444,-161.6 197.7444,-173.6 197.7444,-173.6 197.7444,-179.6 191.7444,-185.6 185.7444,-185.6"></path><text text-anchor="middle" x="155" y="-163.4" font-family="Arial" font-size="14.00" fill="#333333">LINE Out 6</text></g><!-- cantabile:nectar 3 out&#45;&gt;focusrite:line out 6 --><g id="edge-5" class="edge"><title>cantabile:nectar 3 out-&gt;focusrite:line out 6</title><path fill="none" stroke="#333333" stroke-width="2" stroke-opacity="0.600000" d="M361.2165,-242.3513C361.2165,-223.9222 361.2165,-198 361.2165,-198 361.2165,-198 155,-198 155,-198 155,-198 155,-195.6352 155,-195.6352"></path><polygon fill="#333333" fill-opacity="0.600000" stroke="#333333" stroke-width="2" stroke-opacity="0.600000" points="158.5001,-195.6351 155,-185.6352 151.5001,-195.6352 158.5001,-195.6351"></polygon></g><!-- focusrite:usb --><g id="node4" class="node"><title>focusrite:usb</title><path fill="#ffffff" stroke="#4b75b9" stroke-width="3" d="M361,-185.6C361,-185.6 331,-185.6 331,-185.6 325,-185.6 319,-179.6 319,-173.6 319,-173.6 319,-161.6 319,-161.6 319,-155.6 325,-149.6 331,-149.6 331,-149.6 361,-149.6 361,-149.6 367,-149.6 373,-155.6 373,-161.6 373,-161.6 373,-173.6 373,-173.6 373,-179.6 367,-185.6 361,-185.6"></path><text text-anchor="middle" x="346" y="-163.4" font-family="Arial" font-size="14.00" fill="#333333">USB</text></g><!-- focusrite:usb&#45;&gt;windows(nuc1):usb --><g id="edge-6" class="edge"><title>focusrite:usb-&gt;windows(nuc1):usb</title><path fill="none" stroke="#333333" stroke-width="2" stroke-opacity="0.600000" d="M346,-139.3367C346,-139.3367 346,-70.2854 346,-70.2854"></path><polygon fill="#333333" fill-opacity="0.600000" stroke="#333333" stroke-width="2" stroke-opacity="0.600000" points="349.5,-70.2854 346,-60.2854 342.5,-70.2854 349.5,-70.2854"></polygon><polygon fill="#333333" fill-opacity="0.600000" stroke="#333333" stroke-width="2" stroke-opacity="0.600000" points="342.5,-139.3367 346,-149.3367 349.5,-139.3367 342.5,-139.3367"></polygon></g><!-- focusrite:xlr in 1 --><g id="node5" class="node"><title>focusrite:xlr in 1</title><path fill="#ffffff" stroke="#4b75b9" stroke-width="3" d="M82.4643,-185.6C82.4643,-185.6 35.5357,-185.6 35.5357,-185.6 29.5357,-185.6 23.5357,-179.6 23.5357,-173.6 23.5357,-173.6 23.5357,-161.6 23.5357,-161.6 23.5357,-155.6 29.5357,-149.6 35.5357,-149.6 35.5357,-149.6 82.4643,-149.6 82.4643,-149.6 88.4643,-149.6 94.4643,-155.6 94.4643,-161.6 94.4643,-161.6 94.4643,-173.6 94.4643,-173.6 94.4643,-179.6 88.4643,-185.6 82.4643,-185.6"></path><text text-anchor="middle" x="59" y="-163.4" font-family="Arial" font-size="14.00" fill="#333333">XLR In 1</text></g><!-- focusrite:xlr in 1&#45;&gt;cantabile:nectar 3 in --><g id="edge-1" class="edge"><title>focusrite:xlr in 1-&gt;cantabile:nectar 3 in</title><path fill="none" stroke="#333333" stroke-width="2" stroke-opacity="0.600000" d="M59,-185.8553C59,-212.7835 59,-260 59,-260 59,-260 242.5354,-260 242.5354,-260"></path><polygon fill="#333333" fill-opacity="0.600000" stroke="#333333" stroke-width="2" stroke-opacity="0.600000" points="242.5354,-263.5001 252.5354,-260 242.5353,-256.5001 242.5354,-263.5001"></polygon></g><!-- focusrite:line in 3/4 --><g id="node6" class="node"><title>focusrite:line in 3/4</title><path fill="#ffffff" stroke="#4b75b9" stroke-width="3" d="M1116.0266,-185.6C1116.0266,-185.6 1053.9734,-185.6 1053.9734,-185.6 1047.9734,-185.6 1041.9734,-179.6 1041.9734,-173.6 1041.9734,-173.6 1041.9734,-161.6 1041.9734,-161.6 1041.9734,-155.6 1047.9734,-149.6 1053.9734,-149.6 1053.9734,-149.6 1116.0266,-149.6 1116.0266,-149.6 1122.0266,-149.6 1128.0266,-155.6 1128.0266,-161.6 1128.0266,-161.6 1128.0266,-173.6 1128.0266,-173.6 1128.0266,-179.6 1122.0266,-185.6 1116.0266,-185.6"></path><text text-anchor="middle" x="1085" y="-163.4" font-family="Arial" font-size="14.00" fill="#333333">LINE In 3/4</text></g><!-- focusrite:line in 6 --><g id="node7" class="node"><title>focusrite:line in 6</title><path fill="#ffffff" stroke="#4b75b9" stroke-width="3" d="M775.3542,-185.6C775.3542,-185.6 724.6458,-185.6 724.6458,-185.6 718.6458,-185.6 712.6458,-179.6 712.6458,-173.6 712.6458,-173.6 712.6458,-161.6 712.6458,-161.6 712.6458,-155.6 718.6458,-149.6 724.6458,-149.6 724.6458,-149.6 775.3542,-149.6 775.3542,-149.6 781.3542,-149.6 787.3542,-155.6 787.3542,-161.6 787.3542,-161.6 787.3542,-173.6 787.3542,-173.6 787.3542,-179.6 781.3542,-185.6 775.3542,-185.6"></path><text text-anchor="middle" x="750" y="-163.4" font-family="Arial" font-size="14.00" fill="#333333">LINE In 6</text></g><!-- focusrite:line in 7/8 --><g id="node8" class="node"><title>focusrite:line in 7/8</title><path fill="#ffffff" stroke="#4b75b9" stroke-width="3" d="M683.0266,-185.6C683.0266,-185.6 620.9734,-185.6 620.9734,-185.6 614.9734,-185.6 608.9734,-179.6 608.9734,-173.6 608.9734,-173.6 608.9734,-161.6 608.9734,-161.6 608.9734,-155.6 614.9734,-149.6 620.9734,-149.6 620.9734,-149.6 683.0266,-149.6 683.0266,-149.6 689.0266,-149.6 695.0266,-155.6 695.0266,-161.6 695.0266,-161.6 695.0266,-173.6 695.0266,-173.6 695.0266,-179.6 689.0266,-185.6 683.0266,-185.6"></path><text text-anchor="middle" x="652" y="-163.4" font-family="Arial" font-size="14.00" fill="#333333">LINE In 7/8</text></g><!-- steinberg ur22c:xlr in 1 --><g id="node27" class="node"><title>steinberg ur22c:xlr in 1</title><path fill="#ffffff" stroke="#4b75b9" stroke-width="3" d="M1818.4643,-278.4C1818.4643,-278.4 1771.5357,-278.4 1771.5357,-278.4 1765.5357,-278.4 1759.5357,-272.4 1759.5357,-266.4 1759.5357,-266.4 1759.5357,-254.4 1759.5357,-254.4 1759.5357,-248.4 1765.5357,-242.4 1771.5357,-242.4 1771.5357,-242.4 1818.4643,-242.4 1818.4643,-242.4 1824.4643,-242.4 1830.4643,-248.4 1830.4643,-254.4 1830.4643,-254.4 1830.4643,-266.4 1830.4643,-266.4 1830.4643,-272.4 1824.4643,-278.4 1818.4643,-278.4"></path><text text-anchor="middle" x="1795" y="-256.2" font-family="Arial" font-size="14.00" fill="#333333">XLR In 1</text></g><!-- focusrite:line out 3&#45;&gt;steinberg ur22c:xlr in 1 --><g id="edge-14" class="edge"><title>focusrite:line out 3-&gt;steinberg ur22c:xlr in 1</title><path fill="none" stroke="#333333" stroke-width="2" stroke-opacity="0.600000" d="M533.7927,-185.9299C533.7927,-206.1909 533.7927,-236 533.7927,-236 533.7927,-236 1795,-236 1795,-236 1795,-236 1795,-236.6157 1795,-236.6157"></path><polygon fill="#333333" fill-opacity="0.600000" stroke="#333333" stroke-width="2" stroke-opacity="0.600000" points="1791.5002,-232.1571 1795,-242.1572 1798.5002,-232.1572 1791.5002,-232.1571"></polygon></g><!-- tascam ixz:combo in --><g id="node31" class="node"><title>tascam ixz:combo in</title><path fill="#ffffff" stroke="#4b75b9" stroke-width="3" d="M1480.1795,-460C1480.1795,-460 1427.8205,-460 1427.8205,-460 1421.8205,-460 1415.8205,-454 1415.8205,-448 1415.8205,-448 1415.8205,-436 1415.8205,-436 1415.8205,-430 1421.8205,-424 1427.8205,-424 1427.8205,-424 1480.1795,-424 1480.1795,-424 1486.1795,-424 1492.1795,-430 1492.1795,-436 1492.1795,-436 1492.1795,-448 1492.1795,-448 1492.1795,-454 1486.1795,-460 1480.1795,-460"></path><text text-anchor="middle" x="1454" y="-437.8" font-family="Arial" font-size="14.00" fill="#333333">Combo In</text></g><!-- focusrite:line out 4&#45;&gt;tascam ixz:combo in --><g id="edge-16" class="edge"><title>focusrite:line out 4-&gt;tascam ixz:combo in</title><path fill="none" stroke="#333333" stroke-width="2" stroke-opacity="0.600000" d="M234.074,-185.6042C234.074,-246.6508 234.074,-442 234.074,-442 234.074,-442 1405.8144,-442 1405.8144,-442"></path><polygon fill="#333333" fill-opacity="0.600000" stroke="#333333" stroke-width="2" stroke-opacity="0.600000" points="1405.8145,-445.5001 1415.8144,-442 1405.8144,-438.5001 1405.8145,-445.5001"></polygon></g><!-- sound blaster:stereo in --><g id="node23" class="node"><title>sound blaster:stereo in</title><path fill="#ffffff" stroke="#4b75b9" stroke-width="3" d="M2106.2997,-278.4C2106.2997,-278.4 2057.7003,-278.4 2057.7003,-278.4 2051.7003,-278.4 2045.7003,-272.4 2045.7003,-266.4 2045.7003,-266.4 2045.7003,-254.4 2045.7003,-254.4 2045.7003,-248.4 2051.7003,-242.4 2057.7003,-242.4 2057.7003,-242.4 2106.2997,-242.4 2106.2997,-242.4 2112.2997,-242.4 2118.2997,-248.4 2118.2997,-254.4 2118.2997,-254.4 2118.2997,-266.4 2118.2997,-266.4 2118.2997,-272.4 2112.2997,-278.4 2106.2997,-278.4"></path><text text-anchor="middle" x="2082" y="-256.2" font-family="Arial" font-size="14.00" fill="#333333">Stereo In</text></g><!-- focusrite:line out 5/6&#45;&gt;sound blaster:stereo in --><g id="edge-12" class="edge"><title>focusrite:line out 5/6-&gt;sound blaster:stereo in</title><path fill="none" stroke="#333333" stroke-width="2" stroke-opacity="0.600000" d="M837.8471,-185.74C837.8471,-201.897 837.8471,-223 837.8471,-223 837.8471,-223 2082,-223 2082,-223 2082,-223 2082,-232.1382 2082,-232.1382"></path><polygon fill="#333333" fill-opacity="0.600000" stroke="#333333" stroke-width="2" stroke-opacity="0.600000" points="2078.5001,-232.1382 2082,-242.1382 2085.5001,-232.1383 2078.5001,-232.1382"></polygon></g><!-- focusrite:line out 7/8 --><g id="node12" class="node"><title>focusrite:line out 7/8</title><path fill="#ffffff" stroke="#4b75b9" stroke-width="3" d="M475.4172,-185.6C475.4172,-185.6 402.5828,-185.6 402.5828,-185.6 396.5828,-185.6 390.5828,-179.6 390.5828,-173.6 390.5828,-173.6 390.5828,-161.6 390.5828,-161.6 390.5828,-155.6 396.5828,-149.6 402.5828,-149.6 402.5828,-149.6 475.4172,-149.6 475.4172,-149.6 481.4172,-149.6 487.4172,-155.6 487.4172,-161.6 487.4172,-161.6 487.4172,-173.6 487.4172,-173.6 487.4172,-179.6 481.4172,-185.6 475.4172,-185.6"></path><text text-anchor="middle" x="439" y="-163.4" font-family="Arial" font-size="14.00" fill="#333333">LINE Out 7/8</text></g><!-- sony mdr&#45;cd900st:l/r --><g id="node35" class="node"><title>sony mdr-cd900st:l/r</title><path fill="#ffffff" stroke="#4b75b9" stroke-width="3" d="M1444,-60C1444,-60 1414,-60 1414,-60 1408,-60 1402,-54 1402,-48 1402,-48 1402,-36 1402,-36 1402,-30 1408,-24 1414,-24 1414,-24 1444,-24 1444,-24 1450,-24 1456,-30 1456,-36 1456,-36 1456,-48 1456,-48 1456,-54 1450,-60 1444,-60"></path><text text-anchor="middle" x="1429" y="-37.8" font-family="Arial" font-size="14.00" fill="#333333">L/R</text></g><!-- focusrite:line out 7/8&#45;&gt;sony mdr&#45;cd900st:l/r --><g id="edge-22" class="edge"><title>focusrite:line out 7/8-&gt;sony mdr-cd900st:l/r</title><path fill="none" stroke="#333333" stroke-width="2" stroke-opacity="0.600000" d="M439,-149.3367C439,-114.5018 439,-42 439,-42 439,-42 1391.748,-42 1391.748,-42"></path><polygon fill="#333333" fill-opacity="0.600000" stroke="#333333" stroke-width="2" stroke-opacity="0.600000" points="1391.7481,-45.5001 1401.748,-42 1391.748,-38.5001 1391.7481,-45.5001"></polygon></g><!-- focusrite:line out 9/10 --><g id="node13" class="node"><title>focusrite:line out 9/10</title><path fill="#ffffff" stroke="#4b75b9" stroke-width="3" d="M1350.2002,-185.6C1350.2002,-185.6 1269.7998,-185.6 1269.7998,-185.6 1263.7998,-185.6 1257.7998,-179.6 1257.7998,-173.6 1257.7998,-173.6 1257.7998,-161.6 1257.7998,-161.6 1257.7998,-155.6 1263.7998,-149.6 1269.7998,-149.6 1269.7998,-149.6 1350.2002,-149.6 1350.2002,-149.6 1356.2002,-149.6 1362.2002,-155.6 1362.2002,-161.6 1362.2002,-161.6 1362.2002,-173.6 1362.2002,-173.6 1362.2002,-179.6 1356.2002,-185.6 1350.2002,-185.6"></path><text text-anchor="middle" x="1310" y="-163.4" font-family="Arial" font-size="14.00" fill="#333333">LINE Out 9/10</text></g><!-- creative pebble:l/r --><g id="node36" class="node"><title>creative pebble:l/r</title><path fill="#ffffff" stroke="#4b75b9" stroke-width="3" d="M1609,-60C1609,-60 1579,-60 1579,-60 1573,-60 1567,-54 1567,-48 1567,-48 1567,-36 1567,-36 1567,-30 1573,-24 1579,-24 1579,-24 1609,-24 1609,-24 1615,-24 1621,-30 1621,-36 1621,-36 1621,-48 1621,-48 1621,-54 1615,-60 1609,-60"></path><text text-anchor="middle" x="1594" y="-37.8" font-family="Arial" font-size="14.00" fill="#333333">L/R</text></g><!-- focusrite:line out 9/10&#45;&gt;creative pebble:l/r --><g id="edge-23" class="edge"><title>focusrite:line out 9/10-&gt;creative pebble:l/r</title><path fill="none" stroke="#333333" stroke-width="2" stroke-opacity="0.600000" d="M1362.4209,-167C1444.4811,-167 1594,-167 1594,-167 1594,-167 1594,-70.1761 1594,-70.1761"></path><polygon fill="#333333" fill-opacity="0.600000" stroke="#333333" stroke-width="2" stroke-opacity="0.600000" points="1597.5001,-70.176 1594,-60.1761 1590.5001,-70.1761 1597.5001,-70.176"></polygon></g><!-- focusrite:adat in 1&#45;8 --><g id="node14" class="node"><title>focusrite:adat in 1-8</title><path fill="#ffffff" stroke="#4b75b9" stroke-width="3" d="M1227.5126,-185.6C1227.5126,-185.6 1158.4874,-185.6 1158.4874,-185.6 1152.4874,-185.6 1146.4874,-179.6 1146.4874,-173.6 1146.4874,-173.6 1146.4874,-161.6 1146.4874,-161.6 1146.4874,-155.6 1152.4874,-149.6 1158.4874,-149.6 1158.4874,-149.6 1227.5126,-149.6 1227.5126,-149.6 1233.5126,-149.6 1239.5126,-155.6 1239.5126,-161.6 1239.5126,-161.6 1239.5126,-173.6 1239.5126,-173.6 1239.5126,-179.6 1233.5126,-185.6 1227.5126,-185.6"></path><text text-anchor="middle" x="1193" y="-163.4" font-family="Arial" font-size="14.00" fill="#333333">ADAT In 1-8</text></g><!-- babyface:adat in 1&#45;8 --><g id="node18" class="node"><title>babyface:adat in 1-8</title><path fill="#ffffff" stroke="#4b75b9" stroke-width="3" d="M2413.5126,-278.4C2413.5126,-278.4 2344.4874,-278.4 2344.4874,-278.4 2338.4874,-278.4 2332.4874,-272.4 2332.4874,-266.4 2332.4874,-266.4 2332.4874,-254.4 2332.4874,-254.4 2332.4874,-248.4 2338.4874,-242.4 2344.4874,-242.4 2344.4874,-242.4 2413.5126,-242.4 2413.5126,-242.4 2419.5126,-242.4 2425.5126,-248.4 2425.5126,-254.4 2425.5126,-254.4 2425.5126,-266.4 2425.5126,-266.4 2425.5126,-272.4 2419.5126,-278.4 2413.5126,-278.4"></path><text text-anchor="middle" x="2379" y="-256.2" font-family="Arial" font-size="14.00" fill="#333333">ADAT In 1-8</text></g><!-- focusrite:adat out 1&#45;8&#45;&gt;babyface:adat in 1&#45;8 --><g id="edge-8" class="edge"><title>focusrite:adat out 1-8-&gt;babyface:adat in 1-8</title><path fill="none" stroke="#333333" stroke-width="2" stroke-opacity="0.600000" d="M954.6828,-185.7142C954.6828,-199.813 954.6828,-217 954.6828,-217 954.6828,-217 2379,-217 2379,-217 2379,-217 2379,-232.246 2379,-232.246"></path><polygon fill="#333333" fill-opacity="0.600000" stroke="#333333" stroke-width="2" stroke-opacity="0.600000" points="2375.5001,-232.2459 2379,-242.246 2382.5001,-232.246 2375.5001,-232.2459"></polygon></g><!-- windows(desktop):usb --><g id="node17" class="node"><title>windows(desktop):usb</title><path fill="#ffffff" stroke="#4b75b9" stroke-width="3" d="M2607,-185.6C2607,-185.6 2577,-185.6 2577,-185.6 2571,-185.6 2565,-179.6 2565,-173.6 2565,-173.6 2565,-161.6 2565,-161.6 2565,-155.6 2571,-149.6 2577,-149.6 2577,-149.6 2607,-149.6 2607,-149.6 2613,-149.6 2619,-155.6 2619,-161.6 2619,-161.6 2619,-173.6 2619,-173.6 2619,-179.6 2613,-185.6 2607,-185.6"></path><text text-anchor="middle" x="2592" y="-163.4" font-family="Arial" font-size="14.00" fill="#333333">USB</text></g><!-- babyface:adat out 1&#45;8 --><g id="node19" class="node"><title>babyface:adat out 1-8</title><path fill="#ffffff" stroke="#4b75b9" stroke-width="3" d="M2534.9032,-278.4C2534.9032,-278.4 2455.0968,-278.4 2455.0968,-278.4 2449.0968,-278.4 2443.0968,-272.4 2443.0968,-266.4 2443.0968,-266.4 2443.0968,-254.4 2443.0968,-254.4 2443.0968,-248.4 2449.0968,-242.4 2455.0968,-242.4 2455.0968,-242.4 2534.9032,-242.4 2534.9032,-242.4 2540.9032,-242.4 2546.9032,-248.4 2546.9032,-254.4 2546.9032,-254.4 2546.9032,-266.4 2546.9032,-266.4 2546.9032,-272.4 2540.9032,-278.4 2534.9032,-278.4"></path><text text-anchor="middle" x="2495" y="-256.2" font-family="Arial" font-size="14.00" fill="#333333">ADAT Out 1-8</text></g><!-- babyface:adat out 1&#45;8&#45;&gt;focusrite:adat in 1&#45;8 --><g id="edge-9" class="edge"><title>babyface:adat out 1-8-&gt;focusrite:adat in 1-8</title><path fill="none" stroke="#333333" stroke-width="2" stroke-opacity="0.600000" d="M2495,-242.2442C2495,-225.7567 2495,-204 2495,-204 2495,-204 1193,-204 1193,-204 1193,-204 1193,-195.8 1193,-195.8"></path><polygon fill="#333333" fill-opacity="0.600000" stroke="#333333" stroke-width="2" stroke-opacity="0.600000" points="1196.5001,-195.8 1193,-185.8 1189.5001,-195.8 1196.5001,-195.8"></polygon></g><!-- babyface:usb --><g id="node20" class="node"><title>babyface:usb</title><path fill="#ffffff" stroke="#4b75b9" stroke-width="3" d="M2607,-278.4C2607,-278.4 2577,-278.4 2577,-278.4 2571,-278.4 2565,-272.4 2565,-266.4 2565,-266.4 2565,-254.4 2565,-254.4 2565,-248.4 2571,-242.4 2577,-242.4 2577,-242.4 2607,-242.4 2607,-242.4 2613,-242.4 2619,-248.4 2619,-254.4 2619,-254.4 2619,-266.4 2619,-266.4 2619,-272.4 2613,-278.4 2607,-278.4"></path><text text-anchor="middle" x="2592" y="-256.2" font-family="Arial" font-size="14.00" fill="#333333">USB</text></g><!-- babyface:usb&#45;&gt;windows(desktop):usb --><g id="edge-7" class="edge"><title>babyface:usb-&gt;windows(desktop):usb</title><path fill="none" stroke="#333333" stroke-width="2" stroke-opacity="0.600000" d="M2592,-232.0657C2592,-232.0657 2592,-195.8962 2592,-195.8962"></path><polygon fill="#333333" fill-opacity="0.600000" stroke="#333333" stroke-width="2" stroke-opacity="0.600000" points="2595.5,-195.8962 2592,-185.8962 2588.5,-195.8962 2595.5,-195.8962"></polygon><polygon fill="#333333" fill-opacity="0.600000" stroke="#333333" stroke-width="2" stroke-opacity="0.600000" points="2588.5,-232.0657 2592,-242.0657 2595.5,-232.0657 2588.5,-232.0657"></polygon></g><!-- windows(nuc2):usb --><g id="node21" class="node"><title>windows(nuc2):usb</title><path fill="#ffffff" stroke="#4b75b9" stroke-width="3" d="M2280,-185.6C2280,-185.6 2250,-185.6 2250,-185.6 2244,-185.6 2238,-179.6 2238,-173.6 2238,-173.6 2238,-161.6 2238,-161.6 2238,-155.6 2244,-149.6 2250,-149.6 2250,-149.6 2280,-149.6 2280,-149.6 2286,-149.6 2292,-155.6 2292,-161.6 2292,-161.6 2292,-173.6 2292,-173.6 2292,-179.6 2286,-185.6 2280,-185.6"></path><text text-anchor="middle" x="2265" y="-163.4" font-family="Arial" font-size="14.00" fill="#333333">USB</text></g><!-- sound blaster:usb --><g id="node22" class="node"><title>sound blaster:usb</title><path fill="#ffffff" stroke="#4b75b9" stroke-width="3" d="M2280,-278.4C2280,-278.4 2250,-278.4 2250,-278.4 2244,-278.4 2238,-272.4 2238,-266.4 2238,-266.4 2238,-254.4 2238,-254.4 2238,-248.4 2244,-242.4 2250,-242.4 2250,-242.4 2280,-242.4 2280,-242.4 2286,-242.4 2292,-248.4 2292,-254.4 2292,-254.4 2292,-266.4 2292,-266.4 2292,-272.4 2286,-278.4 2280,-278.4"></path><text text-anchor="middle" x="2265" y="-256.2" font-family="Arial" font-size="14.00" fill="#333333">USB</text></g><!-- sound blaster:usb&#45;&gt;windows(nuc2):usb --><g id="edge-10" class="edge"><title>sound blaster:usb-&gt;windows(nuc2):usb</title><path fill="none" stroke="#333333" stroke-width="2" stroke-opacity="0.600000" d="M2265,-232.0657C2265,-232.0657 2265,-195.8962 2265,-195.8962"></path><polygon fill="#333333" fill-opacity="0.600000" stroke="#333333" stroke-width="2" stroke-opacity="0.600000" points="2268.5,-195.8962 2265,-185.8962 2261.5,-195.8962 2268.5,-195.8962"></polygon><polygon fill="#333333" fill-opacity="0.600000" stroke="#333333" stroke-width="2" stroke-opacity="0.600000" points="2261.5,-232.0657 2265,-242.0657 2268.5,-232.0657 2261.5,-232.0657"></polygon></g><!-- sound blaster:stereo out --><g id="node24" class="node"><title>sound blaster:stereo out</title><path fill="#ffffff" stroke="#4b75b9" stroke-width="3" d="M2207.6906,-278.4C2207.6906,-278.4 2148.3094,-278.4 2148.3094,-278.4 2142.3094,-278.4 2136.3094,-272.4 2136.3094,-266.4 2136.3094,-266.4 2136.3094,-254.4 2136.3094,-254.4 2136.3094,-248.4 2142.3094,-242.4 2148.3094,-242.4 2148.3094,-242.4 2207.6906,-242.4 2207.6906,-242.4 2213.6906,-242.4 2219.6906,-248.4 2219.6906,-254.4 2219.6906,-254.4 2219.6906,-266.4 2219.6906,-266.4 2219.6906,-272.4 2213.6906,-278.4 2207.6906,-278.4"></path><text text-anchor="middle" x="2178" y="-256.2" font-family="Arial" font-size="14.00" fill="#333333">Stereo Out</text></g><!-- sound blaster:stereo out&#45;&gt;focusrite:line in 3/4 --><g id="edge-11" class="edge"><title>sound blaster:stereo out-&gt;focusrite:line in 3/4</title><path fill="none" stroke="#333333" stroke-width="2" stroke-opacity="0.600000" d="M2178,-242.2044C2178,-227.768 2178,-210 2178,-210 2178,-210 1085,-210 1085,-210 1085,-210 1085,-195.8275 1085,-195.8275"></path><polygon fill="#333333" fill-opacity="0.600000" stroke="#333333" stroke-width="2" stroke-opacity="0.600000" points="1088.5001,-195.8274 1085,-185.8275 1081.5001,-195.8275 1088.5001,-195.8274"></polygon></g><!-- mac:usb --><g id="node25" class="node"><title>mac:usb</title><path fill="#ffffff" stroke="#4b75b9" stroke-width="3" d="M1994,-185.6C1994,-185.6 1964,-185.6 1964,-185.6 1958,-185.6 1952,-179.6 1952,-173.6 1952,-173.6 1952,-161.6 1952,-161.6 1952,-155.6 1958,-149.6 1964,-149.6 1964,-149.6 1994,-149.6 1994,-149.6 2000,-149.6 2006,-155.6 2006,-161.6 2006,-161.6 2006,-173.6 2006,-173.6 2006,-179.6 2000,-185.6 1994,-185.6"></path><text text-anchor="middle" x="1979" y="-163.4" font-family="Arial" font-size="14.00" fill="#333333">USB</text></g><!-- steinberg ur22c:usb --><g id="node26" class="node"><title>steinberg ur22c:usb</title><path fill="#ffffff" stroke="#4b75b9" stroke-width="3" d="M1994,-278.4C1994,-278.4 1964,-278.4 1964,-278.4 1958,-278.4 1952,-272.4 1952,-266.4 1952,-266.4 1952,-254.4 1952,-254.4 1952,-248.4 1958,-242.4 1964,-242.4 1964,-242.4 1994,-242.4 1994,-242.4 2000,-242.4 2006,-248.4 2006,-254.4 2006,-254.4 2006,-266.4 2006,-266.4 2006,-272.4 2000,-278.4 1994,-278.4"></path><text text-anchor="middle" x="1979" y="-256.2" font-family="Arial" font-size="14.00" fill="#333333">USB</text></g><!-- steinberg ur22c:usb&#45;&gt;mac:usb --><g id="edge-13" class="edge"><title>steinberg ur22c:usb-&gt;mac:usb</title><path fill="none" stroke="#333333" stroke-width="2" stroke-opacity="0.600000" d="M1979,-232.0657C1979,-232.0657 1979,-195.8962 1979,-195.8962"></path><polygon fill="#333333" fill-opacity="0.600000" stroke="#333333" stroke-width="2" stroke-opacity="0.600000" points="1982.5,-195.8962 1979,-185.8962 1975.5,-195.8962 1982.5,-195.8962"></polygon><polygon fill="#333333" fill-opacity="0.600000" stroke="#333333" stroke-width="2" stroke-opacity="0.600000" points="1975.5,-232.0657 1979,-242.0657 1982.5,-232.0657 1975.5,-232.0657"></polygon></g><!-- steinberg ur22c:line out l --><g id="node28" class="node"><title>steinberg ur22c:line out l</title><path fill="#ffffff" stroke="#4b75b9" stroke-width="3" d="M1921.7444,-278.4C1921.7444,-278.4 1860.2556,-278.4 1860.2556,-278.4 1854.2556,-278.4 1848.2556,-272.4 1848.2556,-266.4 1848.2556,-266.4 1848.2556,-254.4 1848.2556,-254.4 1848.2556,-248.4 1854.2556,-242.4 1860.2556,-242.4 1860.2556,-242.4 1921.7444,-242.4 1921.7444,-242.4 1927.7444,-242.4 1933.7444,-248.4 1933.7444,-254.4 1933.7444,-254.4 1933.7444,-266.4 1933.7444,-266.4 1933.7444,-272.4 1927.7444,-278.4 1921.7444,-278.4"></path><text text-anchor="middle" x="1891" y="-256.2" font-family="Arial" font-size="14.00" fill="#333333">LINE Out L</text></g><!-- steinberg ur22c:line out l&#45;&gt;focusrite:line in 6 --><g id="edge-15" class="edge"><title>steinberg ur22c:line out l-&gt;focusrite:line in 6</title><path fill="none" stroke="#333333" stroke-width="2" stroke-opacity="0.600000" d="M1891,-242.1345C1891,-235.2267 1891,-229 1891,-229 1891,-229 750,-229 750,-229 750,-229 750,-195.6899 750,-195.6899"></path><polygon fill="#333333" fill-opacity="0.600000" stroke="#333333" stroke-width="2" stroke-opacity="0.600000" points="753.5001,-195.6899 750,-185.6899 746.5001,-195.69 753.5001,-195.6899"></polygon></g><!-- apple iphone 8:lightning --><g id="node29" class="node"><title>apple iphone 8:lightning</title><path fill="#ffffff" stroke="#4b75b9" stroke-width="3" d="M1616.2997,-544.8C1616.2997,-544.8 1567.7003,-544.8 1567.7003,-544.8 1561.7003,-544.8 1555.7003,-538.8 1555.7003,-532.8 1555.7003,-532.8 1555.7003,-520.8 1555.7003,-520.8 1555.7003,-514.8 1561.7003,-508.8 1567.7003,-508.8 1567.7003,-508.8 1616.2997,-508.8 1616.2997,-508.8 1622.2997,-508.8 1628.2997,-514.8 1628.2997,-520.8 1628.2997,-520.8 1628.2997,-532.8 1628.2997,-532.8 1628.2997,-538.8 1622.2997,-544.8 1616.2997,-544.8"></path><text text-anchor="middle" x="1592" y="-522.6" font-family="Arial" font-size="14.00" fill="#333333">Lightning</text></g><!-- apple headphone adapter:lightning --><g id="node34" class="node"><title>apple headphone adapter:lightning</title><path fill="#ffffff" stroke="#4b75b9" stroke-width="3" d="M1616.2997,-460C1616.2997,-460 1567.7003,-460 1567.7003,-460 1561.7003,-460 1555.7003,-454 1555.7003,-448 1555.7003,-448 1555.7003,-436 1555.7003,-436 1555.7003,-430 1561.7003,-424 1567.7003,-424 1567.7003,-424 1616.2997,-424 1616.2997,-424 1622.2997,-424 1628.2997,-430 1628.2997,-436 1628.2997,-436 1628.2997,-448 1628.2997,-448 1628.2997,-454 1622.2997,-460 1616.2997,-460"></path><text text-anchor="middle" x="1592" y="-437.8" font-family="Arial" font-size="14.00" fill="#333333">Lightning</text></g><!-- apple iphone 8:lightning&#45;&gt;apple headphone adapter:lightning --><g id="edge-21" class="edge"><title>apple iphone 8:lightning-&gt;apple headphone adapter:lightning</title><path fill="none" stroke="#333333" stroke-width="2" stroke-opacity="0.600000" d="M1592,-498.3997C1592,-498.3997 1592,-470.0731 1592,-470.0731"></path><polygon fill="#333333" fill-opacity="0.600000" stroke="#333333" stroke-width="2" stroke-opacity="0.600000" points="1595.5,-470.0731 1592,-460.0731 1588.5,-470.0731 1595.5,-470.0731"></polygon><polygon fill="#333333" fill-opacity="0.600000" stroke="#333333" stroke-width="2" stroke-opacity="0.600000" points="1588.5,-498.3997 1592,-508.3997 1595.5,-498.3997 1588.5,-498.3997"></polygon></g><!-- tascam ixz:3.5mm stereo out --><g id="node30" class="node"><title>tascam ixz:3.5mm stereo out</title><path fill="#ffffff" stroke="#4b75b9" stroke-width="3" d="M1520.3581,-278.4C1520.3581,-278.4 1413.6419,-278.4 1413.6419,-278.4 1407.6419,-278.4 1401.6419,-272.4 1401.6419,-266.4 1401.6419,-266.4 1401.6419,-254.4 1401.6419,-254.4 1401.6419,-248.4 1407.6419,-242.4 1413.6419,-242.4 1413.6419,-242.4 1520.3581,-242.4 1520.3581,-242.4 1526.3581,-242.4 1532.3581,-248.4 1532.3581,-254.4 1532.3581,-254.4 1532.3581,-266.4 1532.3581,-266.4 1532.3581,-272.4 1526.3581,-278.4 1520.3581,-278.4"></path><text text-anchor="middle" x="1467" y="-256.2" font-family="Arial" font-size="14.00" fill="#333333">3.5mm Stereo Out</text></g><!-- tascam ixz:3.5mm stereo out&#45;&gt;focusrite:line in 7/8 --><g id="edge-17" class="edge"><title>tascam ixz:3.5mm stereo out-&gt;focusrite:line in 7/8</title><path fill="none" stroke="#333333" stroke-width="2" stroke-opacity="0.600000" d="M1401.6828,-271C1208.2864,-271 652,-271 652,-271 652,-271 652,-195.6109 652,-195.6109"></path><polygon fill="#333333" fill-opacity="0.600000" stroke="#333333" stroke-width="2" stroke-opacity="0.600000" points="655.5001,-195.6109 652,-185.6109 648.5001,-195.6109 655.5001,-195.6109"></polygon></g><!-- tascam ixz:trrs --><g id="node32" class="node"><title>tascam ixz:trrs</title><path fill="#ffffff" stroke="#4b75b9" stroke-width="3" d="M1482.1025,-388C1482.1025,-388 1451.8975,-388 1451.8975,-388 1445.8975,-388 1439.8975,-382 1439.8975,-376 1439.8975,-376 1439.8975,-364 1439.8975,-364 1439.8975,-358 1445.8975,-352 1451.8975,-352 1451.8975,-352 1482.1025,-352 1482.1025,-352 1488.1025,-352 1494.1025,-358 1494.1025,-364 1494.1025,-364 1494.1025,-376 1494.1025,-376 1494.1025,-382 1488.1025,-388 1482.1025,-388"></path><text text-anchor="middle" x="1467" y="-365.8" font-family="Arial" font-size="14.00" fill="#333333">TRRS</text></g><!-- tascam ixz:combo in&#45;&gt;tascam ixz:trrs --><g id="edge-19" class="edge"><title>tascam ixz:combo in-&gt;tascam ixz:trrs</title><path fill="none" stroke="#333333" stroke-width="2" stroke-opacity="0.600000" d="M1466.1441,-423.8314C1466.1441,-423.8314 1466.1441,-398.4133 1466.1441,-398.4133"></path><polygon fill="#333333" fill-opacity="0.600000" stroke="#333333" stroke-width="2" stroke-opacity="0.600000" points="1469.6442,-398.4132 1466.1441,-388.4133 1462.6442,-398.4133 1469.6442,-398.4132"></polygon></g><!-- tascam ixz:trrs&#45;&gt;tascam ixz:3.5mm stereo out --><g id="edge-18" class="edge"><title>tascam ixz:trrs-&gt;tascam ixz:3.5mm stereo out</title><path fill="none" stroke="#333333" stroke-width="2" stroke-opacity="0.600000" d="M1467,-351.9018C1467,-351.9018 1467,-288.5251 1467,-288.5251"></path><polygon fill="#333333" fill-opacity="0.600000" stroke="#333333" stroke-width="2" stroke-opacity="0.600000" points="1470.5001,-288.5251 1467,-278.5251 1463.5001,-288.5251 1470.5001,-288.5251"></polygon></g><!-- apple headphone adapter:trrs --><g id="node33" class="node"><title>apple headphone adapter:trrs</title><path fill="#ffffff" stroke="#4b75b9" stroke-width="3" d="M1688.1025,-460C1688.1025,-460 1657.8975,-460 1657.8975,-460 1651.8975,-460 1645.8975,-454 1645.8975,-448 1645.8975,-448 1645.8975,-436 1645.8975,-436 1645.8975,-430 1651.8975,-424 1657.8975,-424 1657.8975,-424 1688.1025,-424 1688.1025,-424 1694.1025,-424 1700.1025,-430 1700.1025,-436 1700.1025,-436 1700.1025,-448 1700.1025,-448 1700.1025,-454 1694.1025,-460 1688.1025,-460"></path><text text-anchor="middle" x="1673" y="-437.8" font-family="Arial" font-size="14.00" fill="#333333">TRRS</text></g><!-- apple headphone adapter:trrs&#45;&gt;tascam ixz:trrs --><g id="edge-20" class="edge"><title>apple headphone adapter:trrs-&gt;tascam ixz:trrs</title><path fill="none" stroke="#333333" stroke-width="2" stroke-opacity="0.600000" d="M1673,-413.8314C1673,-413.8314 1673,-370 1673,-370 1673,-370 1504.3552,-370 1504.3552,-370"></path><polygon fill="#333333" fill-opacity="0.600000" stroke="#333333" stroke-width="2" stroke-opacity="0.600000" points="1669.5001,-413.8313 1673,-423.8314 1676.5001,-413.8314 1669.5001,-413.8313"></polygon><polygon fill="#333333" fill-opacity="0.600000" stroke="#333333" stroke-width="2" stroke-opacity="0.600000" points="1504.3552,-366.5001 1494.3552,-370 1504.3552,-373.5001 1504.3552,-366.5001"></polygon></g></g></svg>