<?xml version="1.0" encoding="UTF-8" standalone="no"?><!-- Generated by graphviz version 2.40.1 (20161225.0304)
 --><!-- Title: ndiag Pages: 1 --><svg width="318pt" height="234pt" viewBox="0.00 0.00 318.00 234.40" xmlns="http://www.w3.org/2000/svg" xmlns:xlink="http://www.w3.org/1999/xlink"><g id="graph0" class="graph" transform="scale(1 1) rotate(0) translate(4 230.4)"><title>ndiag</title><polygon fill="#ffffff" stroke="transparent" points="-4,4 -4,-230.4 314,-230.4 314,4 -4,4"></polygon><g id="clust4" class="cluster"><title>cluster_source device:game</title><path fill="#ffffff" stroke="#b2cf3e" stroke-width="2" d="M165,-100.8C165,-100.8 290,-100.8 290,-100.8 296,-100.8 302,-106.8 302,-112.8 302,-112.8 302,-206.4 302,-206.4 302,-212.4 296,-218.4 290,-218.4 290,-218.4 165,-218.4 165,-218.4 159,-218.4 153,-212.4 153,-206.4 153,-206.4 153,-112.8 153,-112.8 153,-106.8 159,-100.8 165,-100.8"></path><text text-anchor="middle" x="227.5" y="-201.8" font-family="Arial" font-size="14.00" fill="#333333">Source Device:Game</text></g><g id="clust5" class="cluster"><title>cluster_nintendo switch</title><polygon fill="#ffffff" stroke="#333333" stroke-width="2" points="169,-108.8 169,-185.6 286,-185.6 286,-108.8 169,-108.8"></polygon><text text-anchor="middle" x="227.5" y="-169" font-family="Arial" font-size="14.00" fill="#333333">Nintendo Switch</text></g><g id="clust1" class="cluster"><title>cluster_source device:mic</title><path fill="#ffffff" stroke="#b2cf3e" stroke-width="2" d="M20,-8C20,-8 133,-8 133,-8 139,-8 145,-14 145,-20 145,-20 145,-206.4 145,-206.4 145,-212.4 139,-218.4 133,-218.4 133,-218.4 20,-218.4 20,-218.4 14,-218.4 8,-212.4 8,-206.4 8,-206.4 8,-20 8,-20 8,-14 14,-8 20,-8"></path><text text-anchor="middle" x="76.5" y="-201.8" font-family="Arial" font-size="14.00" fill="#333333">Source Device:Mic</text></g><g id="clust3" class="cluster"><title>cluster_dm1 dynamite</title><polygon fill="#ffffff" stroke="#333333" stroke-width="2" points="16,-16 16,-92.8 137,-92.8 137,-16 16,-16"></polygon><text text-anchor="middle" x="76.5" y="-76.2" font-family="Arial" font-size="14.00" fill="#333333">DM1 DYNAMITE</text></g><g id="clust2" class="cluster"><title>cluster_shure sm7b</title><polygon fill="#ffffff" stroke="#333333" stroke-width="2" points="24,-108.8 24,-185.6 129,-185.6 129,-108.8 24,-108.8"></polygon><text text-anchor="middle" x="76.5" y="-169" font-family="Arial" font-size="14.00" fill="#333333">SHURE SM7b</text></g><!-- shure sm7b:xlr out --><g id="node1" class="node"><title>shure sm7b:xlr out</title><path fill="#ffffff" stroke="#4b75b9" stroke-width="3" d="M98.6809,-152.8C98.6809,-152.8 53.3191,-152.8 53.3191,-152.8 47.3191,-152.8 41.3191,-146.8 41.3191,-140.8 41.3191,-140.8 41.3191,-128.8 41.3191,-128.8 41.3191,-122.8 47.3191,-116.8 53.3191,-116.8 53.3191,-116.8 98.6809,-116.8 98.6809,-116.8 104.6809,-116.8 110.6809,-122.8 110.6809,-128.8 110.6809,-128.8 110.6809,-140.8 110.6809,-140.8 110.6809,-146.8 104.6809,-152.8 98.6809,-152.8"></path><text text-anchor="middle" x="76" y="-130.6" font-family="Arial" font-size="14.00" fill="#333333">XLR Out</text></g><!-- dm1 dynamite:xlr --><g id="node2" class="node"><title>dm1 dynamite:xlr</title><path fill="#ffffff" stroke="#4b75b9" stroke-width="3" d="M91,-60C91,-60 61,-60 61,-60 55,-60 49,-54 49,-48 49,-48 49,-36 49,-36 49,-30 55,-24 61,-24 61,-24 91,-24 91,-24 97,-24 103,-30 103,-36 103,-36 103,-48 103,-48 103,-54 97,-60 91,-60"></path><text text-anchor="middle" x="76" y="-37.8" font-family="Arial" font-size="14.00" fill="#333333">XLR</text></g><!-- shure sm7b:xlr out&#45;&gt;dm1 dynamite:xlr --><g id="edge-0" class="edge"><title>shure sm7b:xlr out-&gt;dm1 dynamite:xlr</title><path fill="none" stroke="#333333" stroke-width="2" stroke-opacity="0.600000" d="M76,-116.4657C76,-116.4657 76,-70.2962 76,-70.2962"></path><polygon fill="#333333" fill-opacity="0.600000" stroke="#333333" stroke-width="2" stroke-opacity="0.600000" points="79.5001,-70.2962 76,-60.2962 72.5001,-70.2962 79.5001,-70.2962"></polygon></g><!-- nintendo switch:stereo out --><g id="node3" class="node"><title>nintendo switch:stereo out</title><path fill="#ffffff" stroke="#4b75b9" stroke-width="3" d="M256.6906,-152.8C256.6906,-152.8 197.3094,-152.8 197.3094,-152.8 191.3094,-152.8 185.3094,-146.8 185.3094,-140.8 185.3094,-140.8 185.3094,-128.8 185.3094,-128.8 185.3094,-122.8 191.3094,-116.8 197.3094,-116.8 197.3094,-116.8 256.6906,-116.8 256.6906,-116.8 262.6906,-116.8 268.6906,-122.8 268.6906,-128.8 268.6906,-128.8 268.6906,-140.8 268.6906,-140.8 268.6906,-146.8 262.6906,-152.8 256.6906,-152.8"></path><text text-anchor="middle" x="227" y="-130.6" font-family="Arial" font-size="14.00" fill="#333333">Stereo Out</text></g></g></svg>