<?xml version="1.0" encoding="UTF-8" standalone="no"?><!-- Generated by graphviz version 2.40.1 (20161225.0304)
 --><!-- Title: ndiag Pages: 1 --><svg width="192pt" height="186pt" viewBox="0.00 0.00 192.00 185.60" xmlns="http://www.w3.org/2000/svg" xmlns:xlink="http://www.w3.org/1999/xlink"><g id="graph0" class="graph" transform="scale(1 1) rotate(0) translate(4 181.6)"><title>ndiag</title><polygon fill="#ffffff" stroke="transparent" points="-4,4 -4,-181.6 188,-181.6 188,4 -4,4"></polygon><g id="clust2" class="cluster"><title>cluster_Focusrite</title><polygon fill="none" stroke="#999999" stroke-width="2" points="8,-92.8 8,-169.6 120,-169.6 120,-92.8 8,-92.8"></polygon><text text-anchor="middle" x="64" y="-153" font-family="Arial" font-size="14.00" fill="#666666">Focusrite</text></g><g id="clust1" class="cluster"><title>cluster_SONY MDR-CD900ST</title><polygon fill="none" stroke="#000000" stroke-width="2" points="19,-8 19,-84.8 176,-84.8 176,-8 19,-8"></polygon><text text-anchor="middle" x="97.5" y="-68.2" font-family="Arial" font-size="14.00" fill="#000000">SONY MDR-CD900ST</text></g><!-- sony mdr&#45;cd900st:l/r --><g id="node1" class="node"><title>sony mdr-cd900st:l/r</title><path fill="#ffffff" stroke="#4b75b9" stroke-width="3" d="M79,-52C79,-52 49,-52 49,-52 43,-52 37,-46 37,-40 37,-40 37,-28 37,-28 37,-22 43,-16 49,-16 49,-16 79,-16 79,-16 85,-16 91,-22 91,-28 91,-28 91,-40 91,-40 91,-46 85,-52 79,-52"></path><text text-anchor="middle" x="64" y="-29.8" font-family="Arial" font-size="14.00" fill="#333333">L/R</text></g><!-- focusrite:line out 7/8 --><g id="node2" class="node"><title>focusrite:line out 7/8</title><path fill="#ffffff" stroke="#4b75b9" stroke-width="3" d="M100.4172,-136.8C100.4172,-136.8 27.5828,-136.8 27.5828,-136.8 21.5828,-136.8 15.5828,-130.8 15.5828,-124.8 15.5828,-124.8 15.5828,-112.8 15.5828,-112.8 15.5828,-106.8 21.5828,-100.8 27.5828,-100.8 27.5828,-100.8 100.4172,-100.8 100.4172,-100.8 106.4172,-100.8 112.4172,-106.8 112.4172,-112.8 112.4172,-112.8 112.4172,-124.8 112.4172,-124.8 112.4172,-130.8 106.4172,-136.8 100.4172,-136.8"></path><text text-anchor="middle" x="64" y="-114.6" font-family="Arial" font-size="14.00" fill="#333333">LINE Out 7/8</text></g><!-- focusrite:line out 7/8&#45;&gt;sony mdr&#45;cd900st:l/r --><g id="edge1" class="edge"><title>focusrite:line out 7/8-&gt;sony mdr-cd900st:l/r</title><path fill="none" stroke="#333333" stroke-width="2" stroke-opacity="0.600000" d="M64,-100.3997C64,-100.3997 64,-62.0731 64,-62.0731"></path><polygon fill="#333333" fill-opacity="0.600000" stroke="#333333" stroke-width="2" stroke-opacity="0.600000" points="67.5001,-62.0731 64,-52.0731 60.5001,-62.0731 67.5001,-62.0731"></polygon></g></g></svg>