<?xml version="1.0" encoding="UTF-8" standalone="no"?><!-- Generated by graphviz version 2.40.1 (20161225.0304)
 --><!-- Title: ndiag Pages: 1 --><svg width="158pt" height="186pt" viewBox="0.00 0.00 158.00 185.60" xmlns="http://www.w3.org/2000/svg" xmlns:xlink="http://www.w3.org/1999/xlink"><g id="graph0" class="graph" transform="scale(1 1) rotate(0) translate(4 181.6)"><title>ndiag</title><polygon fill="#ffffff" stroke="transparent" points="-4,4 -4,-181.6 154,-181.6 154,4 -4,4"></polygon><g id="clust2" class="cluster"><title>cluster_Babyface</title><polygon fill="none" stroke="#999999" stroke-width="2" points="8,-92.8 8,-169.6 82,-169.6 82,-92.8 8,-92.8"></polygon><text text-anchor="middle" x="45" y="-153" font-family="Arial" font-size="14.00" fill="#666666">Babyface</text></g><g id="clust1" class="cluster"><title>cluster_Windows(Desktop)</title><polygon fill="none" stroke="#000000" stroke-width="2" points="9,-8 9,-84.8 142,-84.8 142,-8 9,-8"></polygon><text text-anchor="middle" x="75.5" y="-68.2" font-family="Arial" font-size="14.00" fill="#000000">Windows(Desktop)</text></g><!-- windows(desktop):usb --><g id="node1" class="node"><title>windows(desktop):usb</title><path fill="#ffffff" stroke="#4b75b9" stroke-width="3" d="M60,-52C60,-52 30,-52 30,-52 24,-52 18,-46 18,-40 18,-40 18,-28 18,-28 18,-22 24,-16 30,-16 30,-16 60,-16 60,-16 66,-16 72,-22 72,-28 72,-28 72,-40 72,-40 72,-46 66,-52 60,-52"></path><text text-anchor="middle" x="45" y="-29.8" font-family="Arial" font-size="14.00" fill="#333333">USB</text></g><!-- babyface:usb --><g id="node2" class="node"><title>babyface:usb</title><path fill="#ffffff" stroke="#4b75b9" stroke-width="3" d="M60,-136.8C60,-136.8 30,-136.8 30,-136.8 24,-136.8 18,-130.8 18,-124.8 18,-124.8 18,-112.8 18,-112.8 18,-106.8 24,-100.8 30,-100.8 30,-100.8 60,-100.8 60,-100.8 66,-100.8 72,-106.8 72,-112.8 72,-112.8 72,-124.8 72,-124.8 72,-130.8 66,-136.8 60,-136.8"></path><text text-anchor="middle" x="45" y="-114.6" font-family="Arial" font-size="14.00" fill="#333333">USB</text></g><!-- babyface:usb&#45;&gt;windows(desktop):usb --><g id="edge1" class="edge"><title>babyface:usb-&gt;windows(desktop):usb</title><path fill="none" stroke="#333333" stroke-width="2" stroke-opacity="0.600000" d="M45,-90.3997C45,-90.3997 45,-62.0731 45,-62.0731"></path><polygon fill="#333333" fill-opacity="0.600000" stroke="#333333" stroke-width="2" stroke-opacity="0.600000" points="48.5,-62.0731 45,-52.0731 41.5,-62.0731 48.5,-62.0731"></polygon><polygon fill="#333333" fill-opacity="0.600000" stroke="#333333" stroke-width="2" stroke-opacity="0.600000" points="41.5,-90.3997 45,-100.3997 48.5,-90.3997 41.5,-90.3997"></polygon></g></g></svg>