<?xml version="1.0" encoding="UTF-8" standalone="no"?><!-- Generated by graphviz version 2.40.1 (20161225.0304)
 --><!-- Title: ndiag Pages: 1 --><svg width="437pt" height="330pt" viewBox="0.00 0.00 437.00 329.60" xmlns="http://www.w3.org/2000/svg" xmlns:xlink="http://www.w3.org/1999/xlink"><g id="graph0" class="graph" transform="scale(1 1) rotate(0) translate(4 325.6)"><title>ndiag</title><polygon fill="#ffffff" stroke="transparent" points="-4,4 -4,-325.6 433,-325.6 433,4 -4,4"></polygon><g id="clust3" class="cluster"><title>cluster_Apple Headphone Adapter</title><polygon fill="none" stroke="#999999" stroke-width="2" points="8,-236.8 8,-313.6 188,-313.6 188,-236.8 8,-236.8"></polygon><text text-anchor="middle" x="98" y="-297" font-family="Arial" font-size="14.00" fill="#666666">Apple Headphone Adapter</text></g><g id="clust2" class="cluster"><title>cluster_Focusrite</title><polygon fill="none" stroke="#999999" stroke-width="2" points="215,-8 215,-84.8 421,-84.8 421,-8 215,-8"></polygon><text text-anchor="middle" x="318" y="-68.2" font-family="Arial" font-size="14.00" fill="#666666">Focusrite</text></g><g id="clust1" class="cluster"><title>cluster_TASCAM iXZ</title><polygon fill="none" stroke="#000000" stroke-width="2" points="196,-92.8 196,-313.6 342,-313.6 342,-92.8 196,-92.8"></polygon><text text-anchor="middle" x="269" y="-297" font-family="Arial" font-size="14.00" fill="#000000">TASCAM iXZ</text></g><!-- tascam ixz:3.5mm stereo out --><g id="node1" class="node"><title>tascam ixz:3.5mm stereo out</title><path fill="#ffffff" stroke="#4b75b9" stroke-width="3" d="M322.3581,-136.8C322.3581,-136.8 215.6419,-136.8 215.6419,-136.8 209.6419,-136.8 203.6419,-130.8 203.6419,-124.8 203.6419,-124.8 203.6419,-112.8 203.6419,-112.8 203.6419,-106.8 209.6419,-100.8 215.6419,-100.8 215.6419,-100.8 322.3581,-100.8 322.3581,-100.8 328.3581,-100.8 334.3581,-106.8 334.3581,-112.8 334.3581,-112.8 334.3581,-124.8 334.3581,-124.8 334.3581,-130.8 328.3581,-136.8 322.3581,-136.8"></path><text text-anchor="middle" x="269" y="-114.6" font-family="Arial" font-size="14.00" fill="#333333">3.5mm Stereo Out</text></g><!-- focusrite:line in 7/8 --><g id="node4" class="node"><title>focusrite:line in 7/8</title><path fill="#ffffff" stroke="#4b75b9" stroke-width="3" d="M297.0266,-52C297.0266,-52 234.9734,-52 234.9734,-52 228.9734,-52 222.9734,-46 222.9734,-40 222.9734,-40 222.9734,-28 222.9734,-28 222.9734,-22 228.9734,-16 234.9734,-16 234.9734,-16 297.0266,-16 297.0266,-16 303.0266,-16 309.0266,-22 309.0266,-28 309.0266,-28 309.0266,-40 309.0266,-40 309.0266,-46 303.0266,-52 297.0266,-52"></path><text text-anchor="middle" x="266" y="-29.8" font-family="Arial" font-size="14.00" fill="#333333">LINE In 7/8</text></g><!-- tascam ixz:3.5mm stereo out&#45;&gt;focusrite:line in 7/8 --><g id="edge2" class="edge"><title>tascam ixz:3.5mm stereo out-&gt;focusrite:line in 7/8</title><path fill="none" stroke="#333333" stroke-width="2" stroke-opacity="0.600000" d="M266,-100.3997C266,-100.3997 266,-62.0731 266,-62.0731"></path><polygon fill="#333333" fill-opacity="0.600000" stroke="#333333" stroke-width="2" stroke-opacity="0.600000" points="269.5001,-62.0731 266,-52.0731 262.5001,-62.0731 269.5001,-62.0731"></polygon></g><!-- tascam ixz:combo in --><g id="node2" class="node"><title>tascam ixz:combo in</title><path fill="#ffffff" stroke="#4b75b9" stroke-width="3" d="M308.1795,-280.8C308.1795,-280.8 255.8205,-280.8 255.8205,-280.8 249.8205,-280.8 243.8205,-274.8 243.8205,-268.8 243.8205,-268.8 243.8205,-256.8 243.8205,-256.8 243.8205,-250.8 249.8205,-244.8 255.8205,-244.8 255.8205,-244.8 308.1795,-244.8 308.1795,-244.8 314.1795,-244.8 320.1795,-250.8 320.1795,-256.8 320.1795,-256.8 320.1795,-268.8 320.1795,-268.8 320.1795,-274.8 314.1795,-280.8 308.1795,-280.8"></path><text text-anchor="middle" x="282" y="-258.6" font-family="Arial" font-size="14.00" fill="#333333">Combo In</text></g><!-- tascam ixz:trrs --><g id="node3" class="node"><title>tascam ixz:trrs</title><path fill="#ffffff" stroke="#4b75b9" stroke-width="3" d="M284.1025,-208.8C284.1025,-208.8 253.8975,-208.8 253.8975,-208.8 247.8975,-208.8 241.8975,-202.8 241.8975,-196.8 241.8975,-196.8 241.8975,-184.8 241.8975,-184.8 241.8975,-178.8 247.8975,-172.8 253.8975,-172.8 253.8975,-172.8 284.1025,-172.8 284.1025,-172.8 290.1025,-172.8 296.1025,-178.8 296.1025,-184.8 296.1025,-184.8 296.1025,-196.8 296.1025,-196.8 296.1025,-202.8 290.1025,-208.8 284.1025,-208.8"></path><text text-anchor="middle" x="269" y="-186.6" font-family="Arial" font-size="14.00" fill="#333333">TRRS</text></g><!-- tascam ixz:combo in&#45;&gt;tascam ixz:trrs --><g id="edge4" class="edge"><title>tascam ixz:combo in-&gt;tascam ixz:trrs</title><path fill="none" stroke="#333333" stroke-width="2" stroke-opacity="0.600000" d="M269.8559,-244.6314C269.8559,-244.6314 269.8559,-219.2133 269.8559,-219.2133"></path><polygon fill="#333333" fill-opacity="0.600000" stroke="#333333" stroke-width="2" stroke-opacity="0.600000" points="273.356,-219.2132 269.8559,-209.2133 266.356,-219.2133 273.356,-219.2132"></polygon></g><!-- tascam ixz:trrs&#45;&gt;tascam ixz:3.5mm stereo out --><g id="edge3" class="edge"><title>tascam ixz:trrs-&gt;tascam ixz:3.5mm stereo out</title><path fill="none" stroke="#333333" stroke-width="2" stroke-opacity="0.600000" d="M269,-172.6314C269,-172.6314 269,-147.2133 269,-147.2133"></path><polygon fill="#333333" fill-opacity="0.600000" stroke="#333333" stroke-width="2" stroke-opacity="0.600000" points="272.5001,-147.2132 269,-137.2133 265.5001,-147.2133 272.5001,-147.2132"></polygon></g><!-- focusrite:line out 4 --><g id="node5" class="node"><title>focusrite:line out 4</title><path fill="#ffffff" stroke="#4b75b9" stroke-width="3" d="M400.7444,-52C400.7444,-52 339.2556,-52 339.2556,-52 333.2556,-52 327.2556,-46 327.2556,-40 327.2556,-40 327.2556,-28 327.2556,-28 327.2556,-22 333.2556,-16 339.2556,-16 339.2556,-16 400.7444,-16 400.7444,-16 406.7444,-16 412.7444,-22 412.7444,-28 412.7444,-28 412.7444,-40 412.7444,-40 412.7444,-46 406.7444,-52 400.7444,-52"></path><text text-anchor="middle" x="370" y="-29.8" font-family="Arial" font-size="14.00" fill="#333333">LINE Out 4</text></g><!-- focusrite:line out 4&#45;&gt;tascam ixz:combo in --><g id="edge1" class="edge"><title>focusrite:line out 4-&gt;tascam ixz:combo in</title><path fill="none" stroke="#333333" stroke-width="2" stroke-opacity="0.600000" d="M373.4004,-52.2728C373.4004,-106.3763 373.4004,-262 373.4004,-262 373.4004,-262 330.2324,-262 330.2324,-262"></path><polygon fill="#333333" fill-opacity="0.600000" stroke="#333333" stroke-width="2" stroke-opacity="0.600000" points="330.2324,-258.5001 320.2324,-262 330.2324,-265.5001 330.2324,-258.5001"></polygon></g><!-- apple headphone adapter:trrs --><g id="node6" class="node"><title>apple headphone adapter:trrs</title><path fill="#ffffff" stroke="#4b75b9" stroke-width="3" d="M168.1025,-280.8C168.1025,-280.8 137.8975,-280.8 137.8975,-280.8 131.8975,-280.8 125.8975,-274.8 125.8975,-268.8 125.8975,-268.8 125.8975,-256.8 125.8975,-256.8 125.8975,-250.8 131.8975,-244.8 137.8975,-244.8 137.8975,-244.8 168.1025,-244.8 168.1025,-244.8 174.1025,-244.8 180.1025,-250.8 180.1025,-256.8 180.1025,-256.8 180.1025,-268.8 180.1025,-268.8 180.1025,-274.8 174.1025,-280.8 168.1025,-280.8"></path><text text-anchor="middle" x="153" y="-258.6" font-family="Arial" font-size="14.00" fill="#333333">TRRS</text></g><!-- apple headphone adapter:trrs&#45;&gt;tascam ixz:trrs --><g id="edge5" class="edge"><title>apple headphone adapter:trrs-&gt;tascam ixz:trrs</title><path fill="none" stroke="#333333" stroke-width="2" stroke-opacity="0.600000" d="M153,-234.4295C153,-234.4295 153,-190 153,-190 153,-190 231.8032,-190 231.8032,-190"></path><polygon fill="#333333" fill-opacity="0.600000" stroke="#333333" stroke-width="2" stroke-opacity="0.600000" points="149.5001,-234.4295 153,-244.4295 156.5001,-234.4295 149.5001,-234.4295"></polygon><polygon fill="#333333" fill-opacity="0.600000" stroke="#333333" stroke-width="2" stroke-opacity="0.600000" points="231.8032,-193.5001 241.8032,-190 231.8031,-186.5001 231.8032,-193.5001"></polygon></g></g></svg>