<?xml version="1.0" encoding="UTF-8" standalone="no"?><!-- Generated by graphviz version 2.40.1 (20161225.0304)
 --><!-- Title: ndiag Pages: 1 --><svg width="145pt" height="186pt" viewBox="0.00 0.00 145.00 185.60" xmlns="http://www.w3.org/2000/svg" xmlns:xlink="http://www.w3.org/1999/xlink"><g id="graph0" class="graph" transform="scale(1 1) rotate(0) translate(4 181.6)"><title>ndiag</title><polygon fill="#ffffff" stroke="transparent" points="-4,4 -4,-181.6 141,-181.6 141,4 -4,4"></polygon><g id="clust2" class="cluster"><title>cluster_Focusrite</title><polygon fill="none" stroke="#999999" stroke-width="2" points="8,-92.8 8,-169.6 81,-169.6 81,-92.8 8,-92.8"></polygon><text text-anchor="middle" x="44.5" y="-153" font-family="Arial" font-size="14.00" fill="#666666">Focusrite</text></g><g id="clust1" class="cluster"><title>cluster_Windows(NUC1)</title><polygon fill="none" stroke="#000000" stroke-width="2" points="9,-8 9,-84.8 129,-84.8 129,-8 9,-8"></polygon><text text-anchor="middle" x="69" y="-68.2" font-family="Arial" font-size="14.00" fill="#000000">Windows(NUC1)</text></g><!-- windows(nuc1):usb --><g id="node1" class="node"><title>windows(nuc1):usb</title><path fill="#ffffff" stroke="#4b75b9" stroke-width="3" d="M59,-52C59,-52 29,-52 29,-52 23,-52 17,-46 17,-40 17,-40 17,-28 17,-28 17,-22 23,-16 29,-16 29,-16 59,-16 59,-16 65,-16 71,-22 71,-28 71,-28 71,-40 71,-40 71,-46 65,-52 59,-52"></path><text text-anchor="middle" x="44" y="-29.8" font-family="Arial" font-size="14.00" fill="#333333">USB</text></g><!-- focusrite:usb --><g id="node2" class="node"><title>focusrite:usb</title><path fill="#ffffff" stroke="#4b75b9" stroke-width="3" d="M59,-136.8C59,-136.8 29,-136.8 29,-136.8 23,-136.8 17,-130.8 17,-124.8 17,-124.8 17,-112.8 17,-112.8 17,-106.8 23,-100.8 29,-100.8 29,-100.8 59,-100.8 59,-100.8 65,-100.8 71,-106.8 71,-112.8 71,-112.8 71,-124.8 71,-124.8 71,-130.8 65,-136.8 59,-136.8"></path><text text-anchor="middle" x="44" y="-114.6" font-family="Arial" font-size="14.00" fill="#333333">USB</text></g><!-- focusrite:usb&#45;&gt;windows(nuc1):usb --><g id="edge1" class="edge"><title>focusrite:usb-&gt;windows(nuc1):usb</title><path fill="none" stroke="#333333" stroke-width="2" stroke-opacity="0.600000" d="M44,-90.3997C44,-90.3997 44,-62.0731 44,-62.0731"></path><polygon fill="#333333" fill-opacity="0.600000" stroke="#333333" stroke-width="2" stroke-opacity="0.600000" points="47.5,-62.0731 44,-52.0731 40.5,-62.0731 47.5,-62.0731"></polygon><polygon fill="#333333" fill-opacity="0.600000" stroke="#333333" stroke-width="2" stroke-opacity="0.600000" points="40.5,-90.3997 44,-100.3997 47.5,-90.3997 40.5,-90.3997"></polygon></g></g></svg>