<?xml version="1.0" encoding="UTF-8" standalone="no"?><!-- Generated by graphviz version 2.40.1 (20161225.0304)
 --><!-- Title: ndiag Pages: 1 --><svg width="152pt" height="186pt" viewBox="0.00 0.00 152.00 185.60" xmlns="http://www.w3.org/2000/svg" xmlns:xlink="http://www.w3.org/1999/xlink"><g id="graph0" class="graph" transform="scale(1 1) rotate(0) translate(4 181.6)"><title>ndiag</title><polygon fill="#ffffff" stroke="transparent" points="-4,4 -4,-181.6 148,-181.6 148,4 -4,4"></polygon><g id="clust2" class="cluster"><title>cluster_Sound Blaster</title><polygon fill="none" stroke="#999999" stroke-width="2" points="8,-92.8 8,-169.6 111,-169.6 111,-92.8 8,-92.8"></polygon><text text-anchor="middle" x="59.5" y="-153" font-family="Arial" font-size="14.00" fill="#666666">Sound Blaster</text></g><g id="clust1" class="cluster"><title>cluster_Windows(NUC2)</title><polygon fill="none" stroke="#000000" stroke-width="2" points="16,-8 16,-84.8 136,-84.8 136,-8 16,-8"></polygon><text text-anchor="middle" x="76" y="-68.2" font-family="Arial" font-size="14.00" fill="#000000">Windows(NUC2)</text></g><!-- windows(nuc2):usb --><g id="node1" class="node"><title>windows(nuc2):usb</title><path fill="#ffffff" stroke="#4b75b9" stroke-width="3" d="M74,-52C74,-52 44,-52 44,-52 38,-52 32,-46 32,-40 32,-40 32,-28 32,-28 32,-22 38,-16 44,-16 44,-16 74,-16 74,-16 80,-16 86,-22 86,-28 86,-28 86,-40 86,-40 86,-46 80,-52 74,-52"></path><text text-anchor="middle" x="59" y="-29.8" font-family="Arial" font-size="14.00" fill="#333333">USB</text></g><!-- sound blaster:usb --><g id="node2" class="node"><title>sound blaster:usb</title><path fill="#ffffff" stroke="#4b75b9" stroke-width="3" d="M74,-136.8C74,-136.8 44,-136.8 44,-136.8 38,-136.8 32,-130.8 32,-124.8 32,-124.8 32,-112.8 32,-112.8 32,-106.8 38,-100.8 44,-100.8 44,-100.8 74,-100.8 74,-100.8 80,-100.8 86,-106.8 86,-112.8 86,-112.8 86,-124.8 86,-124.8 86,-130.8 80,-136.8 74,-136.8"></path><text text-anchor="middle" x="59" y="-114.6" font-family="Arial" font-size="14.00" fill="#333333">USB</text></g><!-- sound blaster:usb&#45;&gt;windows(nuc2):usb --><g id="edge1" class="edge"><title>sound blaster:usb-&gt;windows(nuc2):usb</title><path fill="none" stroke="#333333" stroke-width="2" stroke-opacity="0.600000" d="M59,-90.3997C59,-90.3997 59,-62.0731 59,-62.0731"></path><polygon fill="#333333" fill-opacity="0.600000" stroke="#333333" stroke-width="2" stroke-opacity="0.600000" points="62.5,-62.0731 59,-52.0731 55.5,-62.0731 62.5,-62.0731"></polygon><polygon fill="#333333" fill-opacity="0.600000" stroke="#333333" stroke-width="2" stroke-opacity="0.600000" points="55.5,-90.3997 59,-100.3997 62.5,-90.3997 55.5,-90.3997"></polygon></g></g></svg>