<?xml version="1.0" encoding="UTF-8" standalone="no"?><!-- Generated by graphviz version 2.40.1 (20161225.0304)
 --><!-- Title: ndiag Pages: 1 --><svg width="657pt" height="186pt" viewBox="0.00 0.00 657.00 185.60" xmlns="http://www.w3.org/2000/svg" xmlns:xlink="http://www.w3.org/1999/xlink"><g id="graph0" class="graph" transform="scale(1 1) rotate(0) translate(4 181.6)"><title>ndiag</title><polygon fill="#ffffff" stroke="transparent" points="-4,4 -4,-181.6 653,-181.6 653,4 -4,4"></polygon><g id="clust2" class="cluster"><title>cluster_Focusrite</title><polygon fill="none" stroke="#999999" stroke-width="2" points="8,-8 8,-84.8 641,-84.8 641,-8 8,-8"></polygon><text text-anchor="middle" x="324.5" y="-68.2" font-family="Arial" font-size="14.00" fill="#666666">Focusrite</text></g><g id="clust1" class="cluster"><title>cluster_Cantabile</title><polygon fill="none" stroke="#000000" stroke-width="2" points="288,-92.8 288,-169.6 502,-169.6 502,-92.8 288,-92.8"></polygon><text text-anchor="middle" x="395" y="-153" font-family="Arial" font-size="14.00" fill="#000000">Cantabile</text></g><!-- cantabile:nectar 3 in --><g id="node1" class="node"><title>cantabile:nectar 3 in</title><path fill="#ffffff" stroke="#4b75b9" stroke-width="3" d="M482.4613,-136.8C482.4613,-136.8 421.5387,-136.8 421.5387,-136.8 415.5387,-136.8 409.5387,-130.8 409.5387,-124.8 409.5387,-124.8 409.5387,-112.8 409.5387,-112.8 409.5387,-106.8 415.5387,-100.8 421.5387,-100.8 421.5387,-100.8 482.4613,-100.8 482.4613,-100.8 488.4613,-100.8 494.4613,-106.8 494.4613,-112.8 494.4613,-112.8 494.4613,-124.8 494.4613,-124.8 494.4613,-130.8 488.4613,-136.8 482.4613,-136.8"></path><text text-anchor="middle" x="452" y="-114.6" font-family="Arial" font-size="14.00" fill="#333333">Nectar 3 In</text></g><!-- cantabile:nectar 3 out --><g id="node2" class="node"><title>cantabile:nectar 3 out</title><path fill="#ffffff" stroke="#4b75b9" stroke-width="3" d="M379.8512,-136.8C379.8512,-136.8 308.1488,-136.8 308.1488,-136.8 302.1488,-136.8 296.1488,-130.8 296.1488,-124.8 296.1488,-124.8 296.1488,-112.8 296.1488,-112.8 296.1488,-106.8 302.1488,-100.8 308.1488,-100.8 308.1488,-100.8 379.8512,-100.8 379.8512,-100.8 385.8512,-100.8 391.8512,-106.8 391.8512,-112.8 391.8512,-112.8 391.8512,-124.8 391.8512,-124.8 391.8512,-130.8 385.8512,-136.8 379.8512,-136.8"></path><text text-anchor="middle" x="344" y="-114.6" font-family="Arial" font-size="14.00" fill="#333333">Nectar 3 Out</text></g><!-- focusrite:line out 3 --><g id="node4" class="node"><title>focusrite:line out 3</title><path fill="#ffffff" stroke="#4b75b9" stroke-width="3" d="M532.7444,-52C532.7444,-52 471.2556,-52 471.2556,-52 465.2556,-52 459.2556,-46 459.2556,-40 459.2556,-40 459.2556,-28 459.2556,-28 459.2556,-22 465.2556,-16 471.2556,-16 471.2556,-16 532.7444,-16 532.7444,-16 538.7444,-16 544.7444,-22 544.7444,-28 544.7444,-28 544.7444,-40 544.7444,-40 544.7444,-46 538.7444,-52 532.7444,-52"></path><text text-anchor="middle" x="502" y="-29.8" font-family="Arial" font-size="14.00" fill="#333333">LINE Out 3</text></g><!-- cantabile:nectar 3 out&#45;&gt;focusrite:line out 3 --><g id="edge3" class="edge"><title>cantabile:nectar 3 out-&gt;focusrite:line out 3</title><path fill="none" stroke="#333333" stroke-width="2" stroke-opacity="0.600000" d="M379.9095,-100.4006C379.9095,-88.8003 379.9095,-76 379.9095,-76 379.9095,-76 476.804,-76 476.804,-76 476.804,-76 476.804,-62.0555 476.804,-62.0555"></path><polygon fill="#333333" fill-opacity="0.600000" stroke="#333333" stroke-width="2" stroke-opacity="0.600000" points="480.3041,-62.0555 476.804,-52.0555 473.3041,-62.0556 480.3041,-62.0555"></polygon></g><!-- focusrite:line out 4 --><g id="node5" class="node"><title>focusrite:line out 4</title><path fill="#ffffff" stroke="#4b75b9" stroke-width="3" d="M429.7444,-52C429.7444,-52 368.2556,-52 368.2556,-52 362.2556,-52 356.2556,-46 356.2556,-40 356.2556,-40 356.2556,-28 356.2556,-28 356.2556,-22 362.2556,-16 368.2556,-16 368.2556,-16 429.7444,-16 429.7444,-16 435.7444,-16 441.7444,-22 441.7444,-28 441.7444,-28 441.7444,-40 441.7444,-40 441.7444,-46 435.7444,-52 429.7444,-52"></path><text text-anchor="middle" x="399" y="-29.8" font-family="Arial" font-size="14.00" fill="#333333">LINE Out 4</text></g><!-- cantabile:nectar 3 out&#45;&gt;focusrite:line out 4 --><g id="edge4" class="edge"><title>cantabile:nectar 3 out-&gt;focusrite:line out 4</title><path fill="none" stroke="#333333" stroke-width="2" stroke-opacity="0.600000" d="M368.1438,-100.3997C368.1438,-100.3997 368.1438,-62.0731 368.1438,-62.0731"></path><polygon fill="#333333" fill-opacity="0.600000" stroke="#333333" stroke-width="2" stroke-opacity="0.600000" points="371.6439,-62.0731 368.1438,-52.0731 364.6439,-62.0731 371.6439,-62.0731"></polygon></g><!-- focusrite:line out 5/6 --><g id="node6" class="node"><title>focusrite:line out 5/6</title><path fill="#ffffff" stroke="#4b75b9" stroke-width="3" d="M326.4172,-52C326.4172,-52 253.5828,-52 253.5828,-52 247.5828,-52 241.5828,-46 241.5828,-40 241.5828,-40 241.5828,-28 241.5828,-28 241.5828,-22 247.5828,-16 253.5828,-16 253.5828,-16 326.4172,-16 326.4172,-16 332.4172,-16 338.4172,-22 338.4172,-28 338.4172,-28 338.4172,-40 338.4172,-40 338.4172,-46 332.4172,-52 326.4172,-52"></path><text text-anchor="middle" x="290" y="-29.8" font-family="Arial" font-size="14.00" fill="#333333">LINE Out 5/6</text></g><!-- cantabile:nectar 3 out&#45;&gt;focusrite:line out 5/6 --><g id="edge5" class="edge"><title>cantabile:nectar 3 out-&gt;focusrite:line out 5/6</title><path fill="none" stroke="#333333" stroke-width="2" stroke-opacity="0.600000" d="M317.3917,-100.3997C317.3917,-100.3997 317.3917,-62.0731 317.3917,-62.0731"></path><polygon fill="#333333" fill-opacity="0.600000" stroke="#333333" stroke-width="2" stroke-opacity="0.600000" points="320.8917,-62.0731 317.3917,-52.0731 313.8917,-62.0731 320.8917,-62.0731"></polygon></g><!-- focusrite:adat out 1&#45;8 --><g id="node7" class="node"><title>focusrite:adat out 1-8</title><path fill="#ffffff" stroke="#4b75b9" stroke-width="3" d="M211.9032,-52C211.9032,-52 132.0968,-52 132.0968,-52 126.0968,-52 120.0968,-46 120.0968,-40 120.0968,-40 120.0968,-28 120.0968,-28 120.0968,-22 126.0968,-16 132.0968,-16 132.0968,-16 211.9032,-16 211.9032,-16 217.9032,-16 223.9032,-22 223.9032,-28 223.9032,-28 223.9032,-40 223.9032,-40 223.9032,-46 217.9032,-52 211.9032,-52"></path><text text-anchor="middle" x="172" y="-29.8" font-family="Arial" font-size="14.00" fill="#333333">ADAT Out 1-8</text></g><!-- cantabile:nectar 3 out&#45;&gt;focusrite:adat out 1&#45;8 --><g id="edge1" class="edge"><title>cantabile:nectar 3 out-&gt;focusrite:adat out 1-8</title><path fill="none" stroke="#333333" stroke-width="2" stroke-opacity="0.600000" d="M296.0884,-112C245.195,-112 172,-112 172,-112 172,-112 172,-62.0908 172,-62.0908"></path><polygon fill="#333333" fill-opacity="0.600000" stroke="#333333" stroke-width="2" stroke-opacity="0.600000" points="175.5001,-62.0908 172,-52.0908 168.5001,-62.0909 175.5001,-62.0908"></polygon></g><!-- focusrite:line out 6 --><g id="node8" class="node"><title>focusrite:line out 6</title><path fill="#ffffff" stroke="#4b75b9" stroke-width="3" d="M89.7444,-52C89.7444,-52 28.2556,-52 28.2556,-52 22.2556,-52 16.2556,-46 16.2556,-40 16.2556,-40 16.2556,-28 16.2556,-28 16.2556,-22 22.2556,-16 28.2556,-16 28.2556,-16 89.7444,-16 89.7444,-16 95.7444,-16 101.7444,-22 101.7444,-28 101.7444,-28 101.7444,-40 101.7444,-40 101.7444,-46 95.7444,-52 89.7444,-52"></path><text text-anchor="middle" x="59" y="-29.8" font-family="Arial" font-size="14.00" fill="#333333">LINE Out 6</text></g><!-- cantabile:nectar 3 out&#45;&gt;focusrite:line out 6 --><g id="edge6" class="edge"><title>cantabile:nectar 3 out-&gt;focusrite:line out 6</title><path fill="none" stroke="#333333" stroke-width="2" stroke-opacity="0.600000" d="M296.2974,-124C215.1649,-124 59,-124 59,-124 59,-124 59,-62.2128 59,-62.2128"></path><polygon fill="#333333" fill-opacity="0.600000" stroke="#333333" stroke-width="2" stroke-opacity="0.600000" points="62.5001,-62.2128 59,-52.2128 55.5001,-62.2129 62.5001,-62.2128"></polygon></g><!-- focusrite:xlr in 1 --><g id="node3" class="node"><title>focusrite:xlr in 1</title><path fill="#ffffff" stroke="#4b75b9" stroke-width="3" d="M621.4643,-52C621.4643,-52 574.5357,-52 574.5357,-52 568.5357,-52 562.5357,-46 562.5357,-40 562.5357,-40 562.5357,-28 562.5357,-28 562.5357,-22 568.5357,-16 574.5357,-16 574.5357,-16 621.4643,-16 621.4643,-16 627.4643,-16 633.4643,-22 633.4643,-28 633.4643,-28 633.4643,-40 633.4643,-40 633.4643,-46 627.4643,-52 621.4643,-52"></path><text text-anchor="middle" x="598" y="-29.8" font-family="Arial" font-size="14.00" fill="#333333">XLR In 1</text></g><!-- focusrite:xlr in 1&#45;&gt;cantabile:nectar 3 in --><g id="edge2" class="edge"><title>focusrite:xlr in 1-&gt;cantabile:nectar 3 in</title><path fill="none" stroke="#333333" stroke-width="2" stroke-opacity="0.600000" d="M598,-52.2267C598,-76.9318 598,-118 598,-118 598,-118 504.6217,-118 504.6217,-118"></path><polygon fill="#333333" fill-opacity="0.600000" stroke="#333333" stroke-width="2" stroke-opacity="0.600000" points="504.6218,-114.5001 494.6217,-118 504.6217,-121.5001 504.6218,-114.5001"></polygon></g></g></svg>