<?xml version="1.0" encoding="UTF-8" standalone="no"?><!-- Generated by graphviz version 2.40.1 (20161225.0304)
 --><!-- Title: ndiag Pages: 1 --><svg width="142pt" height="186pt" viewBox="0.00 0.00 142.00 185.60" xmlns="http://www.w3.org/2000/svg" xmlns:xlink="http://www.w3.org/1999/xlink"><g id="graph0" class="graph" transform="scale(1 1) rotate(0) translate(4 181.6)"><title>ndiag</title><polygon fill="#ffffff" stroke="transparent" points="-4,4 -4,-181.6 138,-181.6 138,4 -4,4"></polygon><g id="clust2" class="cluster"><title>cluster_Focusrite</title><polygon fill="none" stroke="#999999" stroke-width="2" points="8,-8 8,-84.8 110,-84.8 110,-8 8,-8"></polygon><text text-anchor="middle" x="59" y="-68.2" font-family="Arial" font-size="14.00" fill="#666666">Focusrite</text></g><g id="clust1" class="cluster"><title>cluster_Nintendo Switch</title><polygon fill="none" stroke="#000000" stroke-width="2" points="9,-92.8 9,-169.6 126,-169.6 126,-92.8 9,-92.8"></polygon><text text-anchor="middle" x="67.5" y="-153" font-family="Arial" font-size="14.00" fill="#000000">Nintendo Switch</text></g><!-- nintendo switch:stereo out --><g id="node1" class="node"><title>nintendo switch:stereo out</title><path fill="#ffffff" stroke="#4b75b9" stroke-width="3" d="M88.6906,-136.8C88.6906,-136.8 29.3094,-136.8 29.3094,-136.8 23.3094,-136.8 17.3094,-130.8 17.3094,-124.8 17.3094,-124.8 17.3094,-112.8 17.3094,-112.8 17.3094,-106.8 23.3094,-100.8 29.3094,-100.8 29.3094,-100.8 88.6906,-100.8 88.6906,-100.8 94.6906,-100.8 100.6906,-106.8 100.6906,-112.8 100.6906,-112.8 100.6906,-124.8 100.6906,-124.8 100.6906,-130.8 94.6906,-136.8 88.6906,-136.8"></path><text text-anchor="middle" x="59" y="-114.6" font-family="Arial" font-size="14.00" fill="#333333">Stereo Out</text></g><!-- focusrite:line in 3/4 --><g id="node2" class="node"><title>focusrite:line in 3/4</title><path fill="#ffffff" stroke="#4b75b9" stroke-width="3" d="M90.0266,-52C90.0266,-52 27.9734,-52 27.9734,-52 21.9734,-52 15.9734,-46 15.9734,-40 15.9734,-40 15.9734,-28 15.9734,-28 15.9734,-22 21.9734,-16 27.9734,-16 27.9734,-16 90.0266,-16 90.0266,-16 96.0266,-16 102.0266,-22 102.0266,-28 102.0266,-28 102.0266,-40 102.0266,-40 102.0266,-46 96.0266,-52 90.0266,-52"></path><text text-anchor="middle" x="59" y="-29.8" font-family="Arial" font-size="14.00" fill="#333333">LINE In 3/4</text></g><!-- nintendo switch:stereo out&#45;&gt;focusrite:line in 3/4 --><g id="edge1" class="edge"><title>nintendo switch:stereo out-&gt;focusrite:line in 3/4</title><path fill="none" stroke="#333333" stroke-width="2" stroke-opacity="0.600000" d="M59,-100.3997C59,-100.3997 59,-62.0731 59,-62.0731"></path><polygon fill="#333333" fill-opacity="0.600000" stroke="#333333" stroke-width="2" stroke-opacity="0.600000" points="62.5001,-62.0731 59,-52.0731 55.5001,-62.0731 62.5001,-62.0731"></polygon></g></g></svg>