<?xml version="1.0" encoding="UTF-8" standalone="no"?><!-- Generated by graphviz version 2.40.1 (20161225.0304)
 --><!-- Title: ndiag Pages: 1 --><svg width="154pt" height="186pt" viewBox="0.00 0.00 154.00 185.60" xmlns="http://www.w3.org/2000/svg" xmlns:xlink="http://www.w3.org/1999/xlink"><g id="graph0" class="graph" transform="scale(1 1) rotate(0) translate(4 181.6)"><title>ndiag</title><polygon fill="#ffffff" stroke="transparent" points="-4,4 -4,-181.6 150,-181.6 150,4 -4,4"></polygon><g id="clust2" class="cluster"><title>cluster_Focusrite</title><polygon fill="none" stroke="#999999" stroke-width="2" points="8,-92.8 8,-169.6 128,-169.6 128,-92.8 8,-92.8"></polygon><text text-anchor="middle" x="68" y="-153" font-family="Arial" font-size="14.00" fill="#666666">Focusrite</text></g><g id="clust1" class="cluster"><title>cluster_Creative Pebble</title><polygon fill="none" stroke="#000000" stroke-width="2" points="23,-8 23,-84.8 138,-84.8 138,-8 23,-8"></polygon><text text-anchor="middle" x="80.5" y="-68.2" font-family="Arial" font-size="14.00" fill="#000000">Creative Pebble</text></g><!-- creative pebble:l/r --><g id="node1" class="node"><title>creative pebble:l/r</title><path fill="#ffffff" stroke="#4b75b9" stroke-width="3" d="M83,-52C83,-52 53,-52 53,-52 47,-52 41,-46 41,-40 41,-40 41,-28 41,-28 41,-22 47,-16 53,-16 53,-16 83,-16 83,-16 89,-16 95,-22 95,-28 95,-28 95,-40 95,-40 95,-46 89,-52 83,-52"></path><text text-anchor="middle" x="68" y="-29.8" font-family="Arial" font-size="14.00" fill="#333333">L/R</text></g><!-- focusrite:line out 9/10 --><g id="node2" class="node"><title>focusrite:line out 9/10</title><path fill="#ffffff" stroke="#4b75b9" stroke-width="3" d="M108.2002,-136.8C108.2002,-136.8 27.7998,-136.8 27.7998,-136.8 21.7998,-136.8 15.7998,-130.8 15.7998,-124.8 15.7998,-124.8 15.7998,-112.8 15.7998,-112.8 15.7998,-106.8 21.7998,-100.8 27.7998,-100.8 27.7998,-100.8 108.2002,-100.8 108.2002,-100.8 114.2002,-100.8 120.2002,-106.8 120.2002,-112.8 120.2002,-112.8 120.2002,-124.8 120.2002,-124.8 120.2002,-130.8 114.2002,-136.8 108.2002,-136.8"></path><text text-anchor="middle" x="68" y="-114.6" font-family="Arial" font-size="14.00" fill="#333333">LINE Out 9/10</text></g><!-- focusrite:line out 9/10&#45;&gt;creative pebble:l/r --><g id="edge1" class="edge"><title>focusrite:line out 9/10-&gt;creative pebble:l/r</title><path fill="none" stroke="#333333" stroke-width="2" stroke-opacity="0.600000" d="M68,-100.3997C68,-100.3997 68,-62.0731 68,-62.0731"></path><polygon fill="#333333" fill-opacity="0.600000" stroke="#333333" stroke-width="2" stroke-opacity="0.600000" points="71.5001,-62.0731 68,-52.0731 64.5001,-62.0731 71.5001,-62.0731"></polygon></g></g></svg>