<?xml version="1.0" encoding="UTF-8" standalone="no"?><!-- Generated by graphviz version 2.40.1 (20161225.0304)
 --><!-- Title: ndiag Pages: 1 --><svg width="210pt" height="186pt" viewBox="0.00 0.00 210.00 185.60" xmlns="http://www.w3.org/2000/svg" xmlns:xlink="http://www.w3.org/1999/xlink"><g id="graph0" class="graph" transform="scale(1 1) rotate(0) translate(4 181.6)"><title>ndiag</title><polygon fill="#ffffff" stroke="transparent" points="-4,4 -4,-181.6 206,-181.6 206,4 -4,4"></polygon><g id="clust2" class="cluster"><title>cluster_Apple Headphone Adapter</title><polygon fill="none" stroke="#999999" stroke-width="2" points="14,-8 14,-84.8 194,-84.8 194,-8 14,-8"></polygon><text text-anchor="middle" x="104" y="-68.2" font-family="Arial" font-size="14.00" fill="#666666">Apple Headphone Adapter</text></g><g id="clust1" class="cluster"><title>cluster_Apple iPhone 8</title><polygon fill="none" stroke="#000000" stroke-width="2" points="8,-92.8 8,-169.6 118,-169.6 118,-92.8 8,-92.8"></polygon><text text-anchor="middle" x="63" y="-153" font-family="Arial" font-size="14.00" fill="#000000">Apple iPhone 8</text></g><!-- apple iphone 8:lightning --><g id="node1" class="node"><title>apple iphone 8:lightning</title><path fill="#ffffff" stroke="#4b75b9" stroke-width="3" d="M87.2997,-136.8C87.2997,-136.8 38.7003,-136.8 38.7003,-136.8 32.7003,-136.8 26.7003,-130.8 26.7003,-124.8 26.7003,-124.8 26.7003,-112.8 26.7003,-112.8 26.7003,-106.8 32.7003,-100.8 38.7003,-100.8 38.7003,-100.8 87.2997,-100.8 87.2997,-100.8 93.2997,-100.8 99.2997,-106.8 99.2997,-112.8 99.2997,-112.8 99.2997,-124.8 99.2997,-124.8 99.2997,-130.8 93.2997,-136.8 87.2997,-136.8"></path><text text-anchor="middle" x="63" y="-114.6" font-family="Arial" font-size="14.00" fill="#333333">Lightning</text></g><!-- apple headphone adapter:lightning --><g id="node2" class="node"><title>apple headphone adapter:lightning</title><path fill="#ffffff" stroke="#4b75b9" stroke-width="3" d="M87.2997,-52C87.2997,-52 38.7003,-52 38.7003,-52 32.7003,-52 26.7003,-46 26.7003,-40 26.7003,-40 26.7003,-28 26.7003,-28 26.7003,-22 32.7003,-16 38.7003,-16 38.7003,-16 87.2997,-16 87.2997,-16 93.2997,-16 99.2997,-22 99.2997,-28 99.2997,-28 99.2997,-40 99.2997,-40 99.2997,-46 93.2997,-52 87.2997,-52"></path><text text-anchor="middle" x="63" y="-29.8" font-family="Arial" font-size="14.00" fill="#333333">Lightning</text></g><!-- apple iphone 8:lightning&#45;&gt;apple headphone adapter:lightning --><g id="edge1" class="edge"><title>apple iphone 8:lightning-&gt;apple headphone adapter:lightning</title><path fill="none" stroke="#333333" stroke-width="2" stroke-opacity="0.600000" d="M63,-90.3997C63,-90.3997 63,-62.0731 63,-62.0731"></path><polygon fill="#333333" fill-opacity="0.600000" stroke="#333333" stroke-width="2" stroke-opacity="0.600000" points="66.5,-62.0731 63,-52.0731 59.5,-62.0731 66.5,-62.0731"></polygon><polygon fill="#333333" fill-opacity="0.600000" stroke="#333333" stroke-width="2" stroke-opacity="0.600000" points="59.5,-90.3997 63,-100.3997 66.5,-90.3997 59.5,-90.3997"></polygon></g></g></svg>