<?xml version="1.0" encoding="UTF-8" standalone="no"?><!-- Generated by graphviz version 2.40.1 (20161225.0304)
 --><!-- Title: ndiag Pages: 1 --><svg width="1438pt" height="270pt" viewBox="0.00 0.00 1438.00 270.40" xmlns="http://www.w3.org/2000/svg" xmlns:xlink="http://www.w3.org/1999/xlink"><g id="graph0" class="graph" transform="scale(1 1) rotate(0) translate(4 266.4)"><title>ndiag</title><polygon fill="#ffffff" stroke="transparent" points="-4,4 -4,-266.4 1434,-266.4 1434,4 -4,4"></polygon><g id="clust11" class="cluster"><title>cluster_Creative Pebble</title><polygon fill="none" stroke="#999999" stroke-width="2" points="995,-8 995,-84.8 1110,-84.8 1110,-8 995,-8"></polygon><text text-anchor="middle" x="1052.5" y="-68.2" font-family="Arial" font-size="14.00" fill="#666666">Creative Pebble</text></g><g id="clust10" class="cluster"><title>cluster_SONY MDR-CD900ST</title><polygon fill="none" stroke="#999999" stroke-width="2" points="810,-8 810,-84.8 967,-84.8 967,-8 810,-8"></polygon><text text-anchor="middle" x="888.5" y="-68.2" font-family="Arial" font-size="14.00" fill="#666666">SONY MDR-CD900ST</text></g><g id="clust9" class="cluster"><title>cluster_Nintendo Switch</title><polygon fill="none" stroke="#999999" stroke-width="2" points="1095,-177.6 1095,-254.4 1212,-254.4 1212,-177.6 1095,-177.6"></polygon><text text-anchor="middle" x="1153.5" y="-237.8" font-family="Arial" font-size="14.00" fill="#666666">Nintendo Switch</text></g><g id="clust8" class="cluster"><title>cluster_TASCAM iXZ</title><polygon fill="none" stroke="#999999" stroke-width="2" points="337,-8 337,-84.8 578,-84.8 578,-8 337,-8"></polygon><text text-anchor="middle" x="457.5" y="-68.2" font-family="Arial" font-size="14.00" fill="#666666">TASCAM iXZ</text></g><g id="clust7" class="cluster"><title>cluster_Steinberg UR22C</title><polygon fill="none" stroke="#999999" stroke-width="2" points="136,-8 136,-84.8 326,-84.8 326,-8 136,-8"></polygon><text text-anchor="middle" x="231" y="-68.2" font-family="Arial" font-size="14.00" fill="#666666">Steinberg UR22C</text></g><g id="clust6" class="cluster"><title>cluster_Sound Blaster</title><polygon fill="none" stroke="#999999" stroke-width="2" points="601,-8 601,-84.8 791,-84.8 791,-8 601,-8"></polygon><text text-anchor="middle" x="696" y="-68.2" font-family="Arial" font-size="14.00" fill="#666666">Sound Blaster</text></g><g id="clust5" class="cluster"><title>cluster_Babyface</title><polygon fill="none" stroke="#999999" stroke-width="2" points="1186,-8 1186,-84.8 1417,-84.8 1417,-8 1186,-8"></polygon><text text-anchor="middle" x="1301.5" y="-68.2" font-family="Arial" font-size="14.00" fill="#666666">Babyface</text></g><g id="clust4" class="cluster"><title>cluster_Windows(NUC1)</title><polygon fill="none" stroke="#999999" stroke-width="2" points="8,-8 8,-84.8 128,-84.8 128,-8 8,-8"></polygon><text text-anchor="middle" x="68" y="-68.2" font-family="Arial" font-size="14.00" fill="#666666">Windows(NUC1)</text></g><g id="clust3" class="cluster"><title>cluster_Cantabile</title><polygon fill="none" stroke="#999999" stroke-width="2" points="597,-177.6 597,-254.4 811,-254.4 811,-177.6 597,-177.6"></polygon><text text-anchor="middle" x="704" y="-237.8" font-family="Arial" font-size="14.00" fill="#666666">Cantabile</text></g><g id="clust2" class="cluster"><title>cluster_DM1 DYNAMITE</title><polygon fill="none" stroke="#999999" stroke-width="2" points="966,-177.6 966,-254.4 1087,-254.4 1087,-177.6 966,-177.6"></polygon><text text-anchor="middle" x="1026.5" y="-237.8" font-family="Arial" font-size="14.00" fill="#666666">DM1 DYNAMITE</text></g><g id="clust1" class="cluster"><title>cluster_Focusrite</title><polygon fill="none" stroke="#000000" stroke-width="2" points="68,-92.8 68,-169.6 1422,-169.6 1422,-92.8 68,-92.8"></polygon><text text-anchor="middle" x="745" y="-153" font-family="Arial" font-size="14.00" fill="#000000">Focusrite</text></g><!-- focusrite:usb --><g id="node1" class="node"><title>focusrite:usb</title><path fill="#ffffff" stroke="#4b75b9" stroke-width="3" d="M118,-136.8C118,-136.8 88,-136.8 88,-136.8 82,-136.8 76,-130.8 76,-124.8 76,-124.8 76,-112.8 76,-112.8 76,-106.8 82,-100.8 88,-100.8 88,-100.8 118,-100.8 118,-100.8 124,-100.8 130,-106.8 130,-112.8 130,-112.8 130,-124.8 130,-124.8 130,-130.8 124,-136.8 118,-136.8"></path><text text-anchor="middle" x="103" y="-114.6" font-family="Arial" font-size="14.00" fill="#333333">USB</text></g><!-- windows(nuc1):usb --><g id="node17" class="node"><title>windows(nuc1):usb</title><path fill="#ffffff" stroke="#4b75b9" stroke-width="3" d="M108,-52C108,-52 78,-52 78,-52 72,-52 66,-46 66,-40 66,-40 66,-28 66,-28 66,-22 72,-16 78,-16 78,-16 108,-16 108,-16 114,-16 120,-22 120,-28 120,-28 120,-40 120,-40 120,-46 114,-52 108,-52"></path><text text-anchor="middle" x="93" y="-29.8" font-family="Arial" font-size="14.00" fill="#333333">USB</text></g><!-- focusrite:usb&#45;&gt;windows(nuc1):usb --><g id="edge8" class="edge"><title>focusrite:usb-&gt;windows(nuc1):usb</title><path fill="none" stroke="#333333" stroke-width="2" stroke-opacity="0.600000" d="M98,-90.3997C98,-90.3997 98,-62.0731 98,-62.0731"></path><polygon fill="#333333" fill-opacity="0.600000" stroke="#333333" stroke-width="2" stroke-opacity="0.600000" points="101.5,-62.0731 98,-52.0731 94.5,-62.0731 101.5,-62.0731"></polygon><polygon fill="#333333" fill-opacity="0.600000" stroke="#333333" stroke-width="2" stroke-opacity="0.600000" points="94.5,-90.3997 98,-100.3997 101.5,-90.3997 94.5,-90.3997"></polygon></g><!-- focusrite:xlr in 1 --><g id="node2" class="node"><title>focusrite:xlr in 1</title><path fill="#ffffff" stroke="#4b75b9" stroke-width="3" d="M1169.4643,-136.8C1169.4643,-136.8 1122.5357,-136.8 1122.5357,-136.8 1116.5357,-136.8 1110.5357,-130.8 1110.5357,-124.8 1110.5357,-124.8 1110.5357,-112.8 1110.5357,-112.8 1110.5357,-106.8 1116.5357,-100.8 1122.5357,-100.8 1122.5357,-100.8 1169.4643,-100.8 1169.4643,-100.8 1175.4643,-100.8 1181.4643,-106.8 1181.4643,-112.8 1181.4643,-112.8 1181.4643,-124.8 1181.4643,-124.8 1181.4643,-130.8 1175.4643,-136.8 1169.4643,-136.8"></path><text text-anchor="middle" x="1146" y="-114.6" font-family="Arial" font-size="14.00" fill="#333333">XLR In 1</text></g><!-- cantabile:nectar 3 in --><g id="node15" class="node"><title>cantabile:nectar 3 in</title><path fill="#ffffff" stroke="#4b75b9" stroke-width="3" d="M791.4613,-221.6C791.4613,-221.6 730.5387,-221.6 730.5387,-221.6 724.5387,-221.6 718.5387,-215.6 718.5387,-209.6 718.5387,-209.6 718.5387,-197.6 718.5387,-197.6 718.5387,-191.6 724.5387,-185.6 730.5387,-185.6 730.5387,-185.6 791.4613,-185.6 791.4613,-185.6 797.4613,-185.6 803.4613,-191.6 803.4613,-197.6 803.4613,-197.6 803.4613,-209.6 803.4613,-209.6 803.4613,-215.6 797.4613,-221.6 791.4613,-221.6"></path><text text-anchor="middle" x="761" y="-199.4" font-family="Arial" font-size="14.00" fill="#333333">Nectar 3 In</text></g><!-- focusrite:xlr in 1&#45;&gt;cantabile:nectar 3 in --><g id="edge3" class="edge"><title>focusrite:xlr in 1-&gt;cantabile:nectar 3 in</title><path fill="none" stroke="#333333" stroke-width="2" stroke-opacity="0.600000" d="M1146,-136.9415C1146,-148.3792 1146,-161 1146,-161 1146,-161 786.1084,-161 786.1084,-161 786.1084,-161 786.1084,-175.2865 786.1084,-175.2865"></path><polygon fill="#333333" fill-opacity="0.600000" stroke="#333333" stroke-width="2" stroke-opacity="0.600000" points="782.6084,-175.2865 786.1084,-185.2865 789.6084,-175.2866 782.6084,-175.2865"></polygon></g><!-- focusrite:line in 3/4 --><g id="node3" class="node"><title>focusrite:line in 3/4</title><path fill="#ffffff" stroke="#4b75b9" stroke-width="3" d="M843.0266,-136.8C843.0266,-136.8 780.9734,-136.8 780.9734,-136.8 774.9734,-136.8 768.9734,-130.8 768.9734,-124.8 768.9734,-124.8 768.9734,-112.8 768.9734,-112.8 768.9734,-106.8 774.9734,-100.8 780.9734,-100.8 780.9734,-100.8 843.0266,-100.8 843.0266,-100.8 849.0266,-100.8 855.0266,-106.8 855.0266,-112.8 855.0266,-112.8 855.0266,-124.8 855.0266,-124.8 855.0266,-130.8 849.0266,-136.8 843.0266,-136.8"></path><text text-anchor="middle" x="812" y="-114.6" font-family="Arial" font-size="14.00" fill="#333333">LINE In 3/4</text></g><!-- focusrite:line in 6 --><g id="node4" class="node"><title>focusrite:line in 6</title><path fill="#ffffff" stroke="#4b75b9" stroke-width="3" d="M210.3542,-136.8C210.3542,-136.8 159.6458,-136.8 159.6458,-136.8 153.6458,-136.8 147.6458,-130.8 147.6458,-124.8 147.6458,-124.8 147.6458,-112.8 147.6458,-112.8 147.6458,-106.8 153.6458,-100.8 159.6458,-100.8 159.6458,-100.8 210.3542,-100.8 210.3542,-100.8 216.3542,-100.8 222.3542,-106.8 222.3542,-112.8 222.3542,-112.8 222.3542,-124.8 222.3542,-124.8 222.3542,-130.8 216.3542,-136.8 210.3542,-136.8"></path><text text-anchor="middle" x="185" y="-114.6" font-family="Arial" font-size="14.00" fill="#333333">LINE In 6</text></g><!-- focusrite:line in 7/8 --><g id="node5" class="node"><title>focusrite:line in 7/8</title><path fill="#ffffff" stroke="#4b75b9" stroke-width="3" d="M521.0266,-136.8C521.0266,-136.8 458.9734,-136.8 458.9734,-136.8 452.9734,-136.8 446.9734,-130.8 446.9734,-124.8 446.9734,-124.8 446.9734,-112.8 446.9734,-112.8 446.9734,-106.8 452.9734,-100.8 458.9734,-100.8 458.9734,-100.8 521.0266,-100.8 521.0266,-100.8 527.0266,-100.8 533.0266,-106.8 533.0266,-112.8 533.0266,-112.8 533.0266,-124.8 533.0266,-124.8 533.0266,-130.8 527.0266,-136.8 521.0266,-136.8"></path><text text-anchor="middle" x="490" y="-114.6" font-family="Arial" font-size="14.00" fill="#333333">LINE In 7/8</text></g><!-- focusrite:line out 3 --><g id="node6" class="node"><title>focusrite:line out 3</title><path fill="#ffffff" stroke="#4b75b9" stroke-width="3" d="M313.7444,-136.8C313.7444,-136.8 252.2556,-136.8 252.2556,-136.8 246.2556,-136.8 240.2556,-130.8 240.2556,-124.8 240.2556,-124.8 240.2556,-112.8 240.2556,-112.8 240.2556,-106.8 246.2556,-100.8 252.2556,-100.8 252.2556,-100.8 313.7444,-100.8 313.7444,-100.8 319.7444,-100.8 325.7444,-106.8 325.7444,-112.8 325.7444,-112.8 325.7444,-124.8 325.7444,-124.8 325.7444,-130.8 319.7444,-136.8 313.7444,-136.8"></path><text text-anchor="middle" x="283" y="-114.6" font-family="Arial" font-size="14.00" fill="#333333">LINE Out 3</text></g><!-- steinberg ur22c:xlr in 1 --><g id="node22" class="node"><title>steinberg ur22c:xlr in 1</title><path fill="#ffffff" stroke="#4b75b9" stroke-width="3" d="M306.4643,-52C306.4643,-52 259.5357,-52 259.5357,-52 253.5357,-52 247.5357,-46 247.5357,-40 247.5357,-40 247.5357,-28 247.5357,-28 247.5357,-22 253.5357,-16 259.5357,-16 259.5357,-16 306.4643,-16 306.4643,-16 312.4643,-16 318.4643,-22 318.4643,-28 318.4643,-28 318.4643,-40 318.4643,-40 318.4643,-46 312.4643,-52 306.4643,-52"></path><text text-anchor="middle" x="283" y="-29.8" font-family="Arial" font-size="14.00" fill="#333333">XLR In 1</text></g><!-- focusrite:line out 3&#45;&gt;steinberg ur22c:xlr in 1 --><g id="edge13" class="edge"><title>focusrite:line out 3-&gt;steinberg ur22c:xlr in 1</title><path fill="none" stroke="#333333" stroke-width="2" stroke-opacity="0.600000" d="M283,-100.3997C283,-100.3997 283,-62.0731 283,-62.0731"></path><polygon fill="#333333" fill-opacity="0.600000" stroke="#333333" stroke-width="2" stroke-opacity="0.600000" points="286.5001,-62.0731 283,-52.0731 279.5001,-62.0731 286.5001,-62.0731"></polygon></g><!-- focusrite:line out 4 --><g id="node7" class="node"><title>focusrite:line out 4</title><path fill="#ffffff" stroke="#4b75b9" stroke-width="3" d="M416.7444,-136.8C416.7444,-136.8 355.2556,-136.8 355.2556,-136.8 349.2556,-136.8 343.2556,-130.8 343.2556,-124.8 343.2556,-124.8 343.2556,-112.8 343.2556,-112.8 343.2556,-106.8 349.2556,-100.8 355.2556,-100.8 355.2556,-100.8 416.7444,-100.8 416.7444,-100.8 422.7444,-100.8 428.7444,-106.8 428.7444,-112.8 428.7444,-112.8 428.7444,-124.8 428.7444,-124.8 428.7444,-130.8 422.7444,-136.8 416.7444,-136.8"></path><text text-anchor="middle" x="386" y="-114.6" font-family="Arial" font-size="14.00" fill="#333333">LINE Out 4</text></g><!-- tascam ixz:combo in --><g id="node25" class="node"><title>tascam ixz:combo in</title><path fill="#ffffff" stroke="#4b75b9" stroke-width="3" d="M409.1795,-52C409.1795,-52 356.8205,-52 356.8205,-52 350.8205,-52 344.8205,-46 344.8205,-40 344.8205,-40 344.8205,-28 344.8205,-28 344.8205,-22 350.8205,-16 356.8205,-16 356.8205,-16 409.1795,-16 409.1795,-16 415.1795,-16 421.1795,-22 421.1795,-28 421.1795,-28 421.1795,-40 421.1795,-40 421.1795,-46 415.1795,-52 409.1795,-52"></path><text text-anchor="middle" x="383" y="-29.8" font-family="Arial" font-size="14.00" fill="#333333">Combo In</text></g><!-- focusrite:line out 4&#45;&gt;tascam ixz:combo in --><g id="edge15" class="edge"><title>focusrite:line out 4-&gt;tascam ixz:combo in</title><path fill="none" stroke="#333333" stroke-width="2" stroke-opacity="0.600000" d="M383,-100.3997C383,-100.3997 383,-62.0731 383,-62.0731"></path><polygon fill="#333333" fill-opacity="0.600000" stroke="#333333" stroke-width="2" stroke-opacity="0.600000" points="386.5001,-62.0731 383,-52.0731 379.5001,-62.0731 386.5001,-62.0731"></polygon></g><!-- focusrite:line out 5/6 --><g id="node8" class="node"><title>focusrite:line out 5/6</title><path fill="#ffffff" stroke="#4b75b9" stroke-width="3" d="M635.4172,-136.8C635.4172,-136.8 562.5828,-136.8 562.5828,-136.8 556.5828,-136.8 550.5828,-130.8 550.5828,-124.8 550.5828,-124.8 550.5828,-112.8 550.5828,-112.8 550.5828,-106.8 556.5828,-100.8 562.5828,-100.8 562.5828,-100.8 635.4172,-100.8 635.4172,-100.8 641.4172,-100.8 647.4172,-106.8 647.4172,-112.8 647.4172,-112.8 647.4172,-124.8 647.4172,-124.8 647.4172,-130.8 641.4172,-136.8 635.4172,-136.8"></path><text text-anchor="middle" x="599" y="-114.6" font-family="Arial" font-size="14.00" fill="#333333">LINE Out 5/6</text></g><!-- sound blaster:stereo in --><g id="node20" class="node"><title>sound blaster:stereo in</title><path fill="#ffffff" stroke="#4b75b9" stroke-width="3" d="M669.2997,-52C669.2997,-52 620.7003,-52 620.7003,-52 614.7003,-52 608.7003,-46 608.7003,-40 608.7003,-40 608.7003,-28 608.7003,-28 608.7003,-22 614.7003,-16 620.7003,-16 620.7003,-16 669.2997,-16 669.2997,-16 675.2997,-16 681.2997,-22 681.2997,-28 681.2997,-28 681.2997,-40 681.2997,-40 681.2997,-46 675.2997,-52 669.2997,-52"></path><text text-anchor="middle" x="645" y="-29.8" font-family="Arial" font-size="14.00" fill="#333333">Stereo In</text></g><!-- focusrite:line out 5/6&#45;&gt;sound blaster:stereo in --><g id="edge12" class="edge"><title>focusrite:line out 5/6-&gt;sound blaster:stereo in</title><path fill="none" stroke="#333333" stroke-width="2" stroke-opacity="0.600000" d="M628.0295,-100.3997C628.0295,-100.3997 628.0295,-62.0731 628.0295,-62.0731"></path><polygon fill="#333333" fill-opacity="0.600000" stroke="#333333" stroke-width="2" stroke-opacity="0.600000" points="631.5295,-62.0731 628.0295,-52.0731 624.5295,-62.0731 631.5295,-62.0731"></polygon></g><!-- focusrite:line out 7/8 --><g id="node9" class="node"><title>focusrite:line out 7/8</title><path fill="#ffffff" stroke="#4b75b9" stroke-width="3" d="M957.4172,-136.8C957.4172,-136.8 884.5828,-136.8 884.5828,-136.8 878.5828,-136.8 872.5828,-130.8 872.5828,-124.8 872.5828,-124.8 872.5828,-112.8 872.5828,-112.8 872.5828,-106.8 878.5828,-100.8 884.5828,-100.8 884.5828,-100.8 957.4172,-100.8 957.4172,-100.8 963.4172,-100.8 969.4172,-106.8 969.4172,-112.8 969.4172,-112.8 969.4172,-124.8 969.4172,-124.8 969.4172,-130.8 963.4172,-136.8 957.4172,-136.8"></path><text text-anchor="middle" x="921" y="-114.6" font-family="Arial" font-size="14.00" fill="#333333">LINE Out 7/8</text></g><!-- sony mdr&#45;cd900st:l/r --><g id="node27" class="node"><title>sony mdr-cd900st:l/r</title><path fill="#ffffff" stroke="#4b75b9" stroke-width="3" d="M936,-52C936,-52 906,-52 906,-52 900,-52 894,-46 894,-40 894,-40 894,-28 894,-28 894,-22 900,-16 906,-16 906,-16 936,-16 936,-16 942,-16 948,-22 948,-28 948,-28 948,-40 948,-40 948,-46 942,-52 936,-52"></path><text text-anchor="middle" x="921" y="-29.8" font-family="Arial" font-size="14.00" fill="#333333">L/R</text></g><!-- focusrite:line out 7/8&#45;&gt;sony mdr&#45;cd900st:l/r --><g id="edge18" class="edge"><title>focusrite:line out 7/8-&gt;sony mdr-cd900st:l/r</title><path fill="none" stroke="#333333" stroke-width="2" stroke-opacity="0.600000" d="M921,-100.3997C921,-100.3997 921,-62.0731 921,-62.0731"></path><polygon fill="#333333" fill-opacity="0.600000" stroke="#333333" stroke-width="2" stroke-opacity="0.600000" points="924.5001,-62.0731 921,-52.0731 917.5001,-62.0731 924.5001,-62.0731"></polygon></g><!-- focusrite:line out 9/10 --><g id="node10" class="node"><title>focusrite:line out 9/10</title><path fill="#ffffff" stroke="#4b75b9" stroke-width="3" d="M1080.2002,-136.8C1080.2002,-136.8 999.7998,-136.8 999.7998,-136.8 993.7998,-136.8 987.7998,-130.8 987.7998,-124.8 987.7998,-124.8 987.7998,-112.8 987.7998,-112.8 987.7998,-106.8 993.7998,-100.8 999.7998,-100.8 999.7998,-100.8 1080.2002,-100.8 1080.2002,-100.8 1086.2002,-100.8 1092.2002,-106.8 1092.2002,-112.8 1092.2002,-112.8 1092.2002,-124.8 1092.2002,-124.8 1092.2002,-130.8 1086.2002,-136.8 1080.2002,-136.8"></path><text text-anchor="middle" x="1040" y="-114.6" font-family="Arial" font-size="14.00" fill="#333333">LINE Out 9/10</text></g><!-- creative pebble:l/r --><g id="node28" class="node"><title>creative pebble:l/r</title><path fill="#ffffff" stroke="#4b75b9" stroke-width="3" d="M1055,-52C1055,-52 1025,-52 1025,-52 1019,-52 1013,-46 1013,-40 1013,-40 1013,-28 1013,-28 1013,-22 1019,-16 1025,-16 1025,-16 1055,-16 1055,-16 1061,-16 1067,-22 1067,-28 1067,-28 1067,-40 1067,-40 1067,-46 1061,-52 1055,-52"></path><text text-anchor="middle" x="1040" y="-29.8" font-family="Arial" font-size="14.00" fill="#333333">L/R</text></g><!-- focusrite:line out 9/10&#45;&gt;creative pebble:l/r --><g id="edge19" class="edge"><title>focusrite:line out 9/10-&gt;creative pebble:l/r</title><path fill="none" stroke="#333333" stroke-width="2" stroke-opacity="0.600000" d="M1040,-100.3997C1040,-100.3997 1040,-62.0731 1040,-62.0731"></path><polygon fill="#333333" fill-opacity="0.600000" stroke="#333333" stroke-width="2" stroke-opacity="0.600000" points="1043.5001,-62.0731 1040,-52.0731 1036.5001,-62.0731 1043.5001,-62.0731"></polygon></g><!-- focusrite:adat in 1&#45;8 --><g id="node11" class="node"><title>focusrite:adat in 1-8</title><path fill="#ffffff" stroke="#4b75b9" stroke-width="3" d="M1280.5126,-136.8C1280.5126,-136.8 1211.4874,-136.8 1211.4874,-136.8 1205.4874,-136.8 1199.4874,-130.8 1199.4874,-124.8 1199.4874,-124.8 1199.4874,-112.8 1199.4874,-112.8 1199.4874,-106.8 1205.4874,-100.8 1211.4874,-100.8 1211.4874,-100.8 1280.5126,-100.8 1280.5126,-100.8 1286.5126,-100.8 1292.5126,-106.8 1292.5126,-112.8 1292.5126,-112.8 1292.5126,-124.8 1292.5126,-124.8 1292.5126,-130.8 1286.5126,-136.8 1280.5126,-136.8"></path><text text-anchor="middle" x="1246" y="-114.6" font-family="Arial" font-size="14.00" fill="#333333">ADAT In 1-8</text></g><!-- focusrite:adat out 1&#45;8 --><g id="node12" class="node"><title>focusrite:adat out 1-8</title><path fill="#ffffff" stroke="#4b75b9" stroke-width="3" d="M1401.9032,-136.8C1401.9032,-136.8 1322.0968,-136.8 1322.0968,-136.8 1316.0968,-136.8 1310.0968,-130.8 1310.0968,-124.8 1310.0968,-124.8 1310.0968,-112.8 1310.0968,-112.8 1310.0968,-106.8 1316.0968,-100.8 1322.0968,-100.8 1322.0968,-100.8 1401.9032,-100.8 1401.9032,-100.8 1407.9032,-100.8 1413.9032,-106.8 1413.9032,-112.8 1413.9032,-112.8 1413.9032,-124.8 1413.9032,-124.8 1413.9032,-130.8 1407.9032,-136.8 1401.9032,-136.8"></path><text text-anchor="middle" x="1362" y="-114.6" font-family="Arial" font-size="14.00" fill="#333333">ADAT Out 1-8</text></g><!-- babyface:adat in 1&#45;8 --><g id="node18" class="node"><title>babyface:adat in 1-8</title><path fill="#ffffff" stroke="#4b75b9" stroke-width="3" d="M1396.5126,-52C1396.5126,-52 1327.4874,-52 1327.4874,-52 1321.4874,-52 1315.4874,-46 1315.4874,-40 1315.4874,-40 1315.4874,-28 1315.4874,-28 1315.4874,-22 1321.4874,-16 1327.4874,-16 1327.4874,-16 1396.5126,-16 1396.5126,-16 1402.5126,-16 1408.5126,-22 1408.5126,-28 1408.5126,-28 1408.5126,-40 1408.5126,-40 1408.5126,-46 1402.5126,-52 1396.5126,-52"></path><text text-anchor="middle" x="1362" y="-29.8" font-family="Arial" font-size="14.00" fill="#333333">ADAT In 1-8</text></g><!-- focusrite:adat out 1&#45;8&#45;&gt;babyface:adat in 1&#45;8 --><g id="edge9" class="edge"><title>focusrite:adat out 1-8-&gt;babyface:adat in 1-8</title><path fill="none" stroke="#333333" stroke-width="2" stroke-opacity="0.600000" d="M1362,-100.3997C1362,-100.3997 1362,-62.0731 1362,-62.0731"></path><polygon fill="#333333" fill-opacity="0.600000" stroke="#333333" stroke-width="2" stroke-opacity="0.600000" points="1365.5001,-62.0731 1362,-52.0731 1358.5001,-62.0731 1365.5001,-62.0731"></polygon></g><!-- focusrite:line out 6 --><g id="node13" class="node"><title>focusrite:line out 6</title><path fill="#ffffff" stroke="#4b75b9" stroke-width="3" d="M738.7444,-136.8C738.7444,-136.8 677.2556,-136.8 677.2556,-136.8 671.2556,-136.8 665.2556,-130.8 665.2556,-124.8 665.2556,-124.8 665.2556,-112.8 665.2556,-112.8 665.2556,-106.8 671.2556,-100.8 677.2556,-100.8 677.2556,-100.8 738.7444,-100.8 738.7444,-100.8 744.7444,-100.8 750.7444,-106.8 750.7444,-112.8 750.7444,-112.8 750.7444,-124.8 750.7444,-124.8 750.7444,-130.8 744.7444,-136.8 738.7444,-136.8"></path><text text-anchor="middle" x="708" y="-114.6" font-family="Arial" font-size="14.00" fill="#333333">LINE Out 6</text></g><!-- dm1 dynamite:xlr --><g id="node14" class="node"><title>dm1 dynamite:xlr</title><path fill="#ffffff" stroke="#4b75b9" stroke-width="3" d="M1067,-221.6C1067,-221.6 1037,-221.6 1037,-221.6 1031,-221.6 1025,-215.6 1025,-209.6 1025,-209.6 1025,-197.6 1025,-197.6 1025,-191.6 1031,-185.6 1037,-185.6 1037,-185.6 1067,-185.6 1067,-185.6 1073,-185.6 1079,-191.6 1079,-197.6 1079,-197.6 1079,-209.6 1079,-209.6 1079,-215.6 1073,-221.6 1067,-221.6"></path><text text-anchor="middle" x="1052" y="-199.4" font-family="Arial" font-size="14.00" fill="#333333">XLR</text></g><!-- dm1 dynamite:xlr&#45;&gt;focusrite:xlr in 1 --><g id="edge1" class="edge"><title>dm1 dynamite:xlr-&gt;focusrite:xlr in 1</title><path fill="none" stroke="#333333" stroke-width="2" stroke-opacity="0.600000" d="M1079.1432,-203C1088.9951,-203 1097.7525,-203 1097.7525,-203 1097.7525,-203 1097.7525,-118 1097.7525,-118 1097.7525,-118 1100.6819,-118 1100.6819,-118"></path><polygon fill="#333333" fill-opacity="0.600000" stroke="#333333" stroke-width="2" stroke-opacity="0.600000" points="1100.6819,-121.5001 1110.6819,-118 1100.6819,-114.5001 1100.6819,-121.5001"></polygon></g><!-- cantabile:nectar 3 out --><g id="node16" class="node"><title>cantabile:nectar 3 out</title><path fill="#ffffff" stroke="#4b75b9" stroke-width="3" d="M688.8512,-221.6C688.8512,-221.6 617.1488,-221.6 617.1488,-221.6 611.1488,-221.6 605.1488,-215.6 605.1488,-209.6 605.1488,-209.6 605.1488,-197.6 605.1488,-197.6 605.1488,-191.6 611.1488,-185.6 617.1488,-185.6 617.1488,-185.6 688.8512,-185.6 688.8512,-185.6 694.8512,-185.6 700.8512,-191.6 700.8512,-197.6 700.8512,-197.6 700.8512,-209.6 700.8512,-209.6 700.8512,-215.6 694.8512,-221.6 688.8512,-221.6"></path><text text-anchor="middle" x="653" y="-199.4" font-family="Arial" font-size="14.00" fill="#333333">Nectar 3 Out</text></g><!-- cantabile:nectar 3 out&#45;&gt;focusrite:line out 3 --><g id="edge4" class="edge"><title>cantabile:nectar 3 out-&gt;focusrite:line out 3</title><path fill="none" stroke="#333333" stroke-width="2" stroke-opacity="0.600000" d="M605.0083,-209C504.8953,-209 283,-209 283,-209 283,-209 283,-147.0533 283,-147.0533"></path><polygon fill="#333333" fill-opacity="0.600000" stroke="#333333" stroke-width="2" stroke-opacity="0.600000" points="286.5001,-147.0533 283,-137.0533 279.5001,-147.0534 286.5001,-147.0533"></polygon></g><!-- cantabile:nectar 3 out&#45;&gt;focusrite:line out 4 --><g id="edge5" class="edge"><title>cantabile:nectar 3 out-&gt;focusrite:line out 4</title><path fill="none" stroke="#333333" stroke-width="2" stroke-opacity="0.600000" d="M605.2658,-197C528.4671,-197 386,-197 386,-197 386,-197 386,-146.9372 386,-146.9372"></path><polygon fill="#333333" fill-opacity="0.600000" stroke="#333333" stroke-width="2" stroke-opacity="0.600000" points="389.5001,-146.9372 386,-136.9372 382.5001,-146.9372 389.5001,-146.9372"></polygon></g><!-- cantabile:nectar 3 out&#45;&gt;focusrite:line out 5/6 --><g id="edge6" class="edge"><title>cantabile:nectar 3 out-&gt;focusrite:line out 5/6</title><path fill="none" stroke="#333333" stroke-width="2" stroke-opacity="0.600000" d="M626.3917,-185.1997C626.3917,-185.1997 626.3917,-146.8731 626.3917,-146.8731"></path><polygon fill="#333333" fill-opacity="0.600000" stroke="#333333" stroke-width="2" stroke-opacity="0.600000" points="629.8917,-146.8731 626.3917,-136.8731 622.8917,-146.8731 629.8917,-146.8731"></polygon></g><!-- cantabile:nectar 3 out&#45;&gt;focusrite:adat out 1&#45;8 --><g id="edge2" class="edge"><title>cantabile:nectar 3 out-&gt;focusrite:adat out 1-8</title><path fill="none" stroke="#333333" stroke-width="2" stroke-opacity="0.600000" d="M688.9095,-185.4462C688.9095,-178.857 688.9095,-173 688.9095,-173 688.9095,-173 1362,-173 1362,-173 1362,-173 1362,-146.8478 1362,-146.8478"></path><polygon fill="#333333" fill-opacity="0.600000" stroke="#333333" stroke-width="2" stroke-opacity="0.600000" points="1365.5001,-146.8478 1362,-136.8478 1358.5001,-146.8479 1365.5001,-146.8478"></polygon></g><!-- cantabile:nectar 3 out&#45;&gt;focusrite:line out 6 --><g id="edge7" class="edge"><title>cantabile:nectar 3 out-&gt;focusrite:line out 6</title><path fill="none" stroke="#333333" stroke-width="2" stroke-opacity="0.600000" d="M677.1438,-185.1997C677.1438,-185.1997 677.1438,-146.8731 677.1438,-146.8731"></path><polygon fill="#333333" fill-opacity="0.600000" stroke="#333333" stroke-width="2" stroke-opacity="0.600000" points="680.6439,-146.8731 677.1438,-136.8731 673.6439,-146.8731 680.6439,-146.8731"></polygon></g><!-- babyface:adat out 1&#45;8 --><g id="node19" class="node"><title>babyface:adat out 1-8</title><path fill="#ffffff" stroke="#4b75b9" stroke-width="3" d="M1285.9032,-52C1285.9032,-52 1206.0968,-52 1206.0968,-52 1200.0968,-52 1194.0968,-46 1194.0968,-40 1194.0968,-40 1194.0968,-28 1194.0968,-28 1194.0968,-22 1200.0968,-16 1206.0968,-16 1206.0968,-16 1285.9032,-16 1285.9032,-16 1291.9032,-16 1297.9032,-22 1297.9032,-28 1297.9032,-28 1297.9032,-40 1297.9032,-40 1297.9032,-46 1291.9032,-52 1285.9032,-52"></path><text text-anchor="middle" x="1246" y="-29.8" font-family="Arial" font-size="14.00" fill="#333333">ADAT Out 1-8</text></g><!-- babyface:adat out 1&#45;8&#45;&gt;focusrite:adat in 1&#45;8 --><g id="edge10" class="edge"><title>babyface:adat out 1-8-&gt;focusrite:adat in 1-8</title><path fill="none" stroke="#333333" stroke-width="2" stroke-opacity="0.600000" d="M1246,-52.4003C1246,-52.4003 1246,-90.7269 1246,-90.7269"></path><polygon fill="#333333" fill-opacity="0.600000" stroke="#333333" stroke-width="2" stroke-opacity="0.600000" points="1242.5001,-90.7269 1246,-100.7269 1249.5001,-90.7269 1242.5001,-90.7269"></polygon></g><!-- sound blaster:stereo out --><g id="node21" class="node"><title>sound blaster:stereo out</title><path fill="#ffffff" stroke="#4b75b9" stroke-width="3" d="M770.6906,-52C770.6906,-52 711.3094,-52 711.3094,-52 705.3094,-52 699.3094,-46 699.3094,-40 699.3094,-40 699.3094,-28 699.3094,-28 699.3094,-22 705.3094,-16 711.3094,-16 711.3094,-16 770.6906,-16 770.6906,-16 776.6906,-16 782.6906,-22 782.6906,-28 782.6906,-28 782.6906,-40 782.6906,-40 782.6906,-46 776.6906,-52 770.6906,-52"></path><text text-anchor="middle" x="741" y="-29.8" font-family="Arial" font-size="14.00" fill="#333333">Stereo Out</text></g><!-- sound blaster:stereo out&#45;&gt;focusrite:line in 3/4 --><g id="edge11" class="edge"><title>sound blaster:stereo out-&gt;focusrite:line in 3/4</title><path fill="none" stroke="#333333" stroke-width="2" stroke-opacity="0.600000" d="M775.9159,-52.4003C775.9159,-52.4003 775.9159,-90.7269 775.9159,-90.7269"></path><polygon fill="#333333" fill-opacity="0.600000" stroke="#333333" stroke-width="2" stroke-opacity="0.600000" points="772.4159,-90.7269 775.9159,-100.7269 779.4159,-90.7269 772.4159,-90.7269"></polygon></g><!-- steinberg ur22c:line out l --><g id="node23" class="node"><title>steinberg ur22c:line out l</title><path fill="#ffffff" stroke="#4b75b9" stroke-width="3" d="M217.7444,-52C217.7444,-52 156.2556,-52 156.2556,-52 150.2556,-52 144.2556,-46 144.2556,-40 144.2556,-40 144.2556,-28 144.2556,-28 144.2556,-22 150.2556,-16 156.2556,-16 156.2556,-16 217.7444,-16 217.7444,-16 223.7444,-16 229.7444,-22 229.7444,-28 229.7444,-28 229.7444,-40 229.7444,-40 229.7444,-46 223.7444,-52 217.7444,-52"></path><text text-anchor="middle" x="187" y="-29.8" font-family="Arial" font-size="14.00" fill="#333333">LINE Out L</text></g><!-- steinberg ur22c:line out l&#45;&gt;focusrite:line in 6 --><g id="edge14" class="edge"><title>steinberg ur22c:line out l-&gt;focusrite:line in 6</title><path fill="none" stroke="#333333" stroke-width="2" stroke-opacity="0.600000" d="M185,-52.4003C185,-52.4003 185,-90.7269 185,-90.7269"></path><polygon fill="#333333" fill-opacity="0.600000" stroke="#333333" stroke-width="2" stroke-opacity="0.600000" points="181.5001,-90.7269 185,-100.7269 188.5001,-90.7269 181.5001,-90.7269"></polygon></g><!-- tascam ixz:3.5mm stereo out --><g id="node24" class="node"><title>tascam ixz:3.5mm stereo out</title><path fill="#ffffff" stroke="#4b75b9" stroke-width="3" d="M558.3581,-52C558.3581,-52 451.6419,-52 451.6419,-52 445.6419,-52 439.6419,-46 439.6419,-40 439.6419,-40 439.6419,-28 439.6419,-28 439.6419,-22 445.6419,-16 451.6419,-16 451.6419,-16 558.3581,-16 558.3581,-16 564.3581,-16 570.3581,-22 570.3581,-28 570.3581,-28 570.3581,-40 570.3581,-40 570.3581,-46 564.3581,-52 558.3581,-52"></path><text text-anchor="middle" x="505" y="-29.8" font-family="Arial" font-size="14.00" fill="#333333">3.5mm Stereo Out</text></g><!-- tascam ixz:3.5mm stereo out&#45;&gt;focusrite:line in 7/8 --><g id="edge16" class="edge"><title>tascam ixz:3.5mm stereo out-&gt;focusrite:line in 7/8</title><path fill="none" stroke="#333333" stroke-width="2" stroke-opacity="0.600000" d="M490,-52.4003C490,-52.4003 490,-90.7269 490,-90.7269"></path><polygon fill="#333333" fill-opacity="0.600000" stroke="#333333" stroke-width="2" stroke-opacity="0.600000" points="486.5001,-90.7269 490,-100.7269 493.5001,-90.7269 486.5001,-90.7269"></polygon></g><!-- nintendo switch:stereo out --><g id="node26" class="node"><title>nintendo switch:stereo out</title><path fill="#ffffff" stroke="#4b75b9" stroke-width="3" d="M1174.6906,-221.6C1174.6906,-221.6 1115.3094,-221.6 1115.3094,-221.6 1109.3094,-221.6 1103.3094,-215.6 1103.3094,-209.6 1103.3094,-209.6 1103.3094,-197.6 1103.3094,-197.6 1103.3094,-191.6 1109.3094,-185.6 1115.3094,-185.6 1115.3094,-185.6 1174.6906,-185.6 1174.6906,-185.6 1180.6906,-185.6 1186.6906,-191.6 1186.6906,-197.6 1186.6906,-197.6 1186.6906,-209.6 1186.6906,-209.6 1186.6906,-215.6 1180.6906,-221.6 1174.6906,-221.6"></path><text text-anchor="middle" x="1145" y="-199.4" font-family="Arial" font-size="14.00" fill="#333333">Stereo Out</text></g><!-- nintendo switch:stereo out&#45;&gt;focusrite:line in 3/4 --><g id="edge17" class="edge"><title>nintendo switch:stereo out-&gt;focusrite:line in 3/4</title><path fill="none" stroke="#333333" stroke-width="2" stroke-opacity="0.600000" d="M1106.9618,-185.419C1106.9618,-169.5358 1106.9618,-149 1106.9618,-149 1106.9618,-149 829.1217,-149 829.1217,-149 829.1217,-149 829.1217,-147.0642 829.1217,-147.0642"></path><polygon fill="#333333" fill-opacity="0.600000" stroke="#333333" stroke-width="2" stroke-opacity="0.600000" points="832.6217,-147.0641 829.1217,-137.0642 825.6217,-147.0642 832.6217,-147.0641"></polygon></g></g></svg>