<?xml version="1.0" encoding="UTF-8" standalone="no"?><!-- Generated by graphviz version 2.40.1 (20161225.0304)
 --><!-- Title: ndiag Pages: 1 --><svg width="154pt" height="186pt" viewBox="0.00 0.00 154.00 185.60" xmlns="http://www.w3.org/2000/svg" xmlns:xlink="http://www.w3.org/1999/xlink"><g id="graph0" class="graph" transform="scale(1 1) rotate(0) translate(4 181.6)"><title>ndiag</title><polygon fill="#ffffff" stroke="transparent" points="-4,4 -4,-181.6 150,-181.6 150,4 -4,4"></polygon><g id="clust2" class="cluster"><title>cluster_DM1 DYNAMITE</title><polygon fill="none" stroke="#999999" stroke-width="2" points="17,-8 17,-84.8 138,-84.8 138,-8 17,-8"></polygon><text text-anchor="middle" x="77.5" y="-68.2" font-family="Arial" font-size="14.00" fill="#666666">DM1 DYNAMITE</text></g><g id="clust1" class="cluster"><title>cluster_SHURE SM7b</title><polygon fill="none" stroke="#000000" stroke-width="2" points="8,-92.8 8,-169.6 113,-169.6 113,-92.8 8,-92.8"></polygon><text text-anchor="middle" x="60.5" y="-153" font-family="Arial" font-size="14.00" fill="#000000">SHURE SM7b</text></g><!-- shure sm7b:xlr out --><g id="node1" class="node"><title>shure sm7b:xlr out</title><path fill="#ffffff" stroke="#4b75b9" stroke-width="3" d="M82.6809,-136.8C82.6809,-136.8 37.3191,-136.8 37.3191,-136.8 31.3191,-136.8 25.3191,-130.8 25.3191,-124.8 25.3191,-124.8 25.3191,-112.8 25.3191,-112.8 25.3191,-106.8 31.3191,-100.8 37.3191,-100.8 37.3191,-100.8 82.6809,-100.8 82.6809,-100.8 88.6809,-100.8 94.6809,-106.8 94.6809,-112.8 94.6809,-112.8 94.6809,-124.8 94.6809,-124.8 94.6809,-130.8 88.6809,-136.8 82.6809,-136.8"></path><text text-anchor="middle" x="60" y="-114.6" font-family="Arial" font-size="14.00" fill="#333333">XLR Out</text></g><!-- dm1 dynamite:xlr --><g id="node2" class="node"><title>dm1 dynamite:xlr</title><path fill="#ffffff" stroke="#4b75b9" stroke-width="3" d="M75,-52C75,-52 45,-52 45,-52 39,-52 33,-46 33,-40 33,-40 33,-28 33,-28 33,-22 39,-16 45,-16 45,-16 75,-16 75,-16 81,-16 87,-22 87,-28 87,-28 87,-40 87,-40 87,-46 81,-52 75,-52"></path><text text-anchor="middle" x="60" y="-29.8" font-family="Arial" font-size="14.00" fill="#333333">XLR</text></g><!-- shure sm7b:xlr out&#45;&gt;dm1 dynamite:xlr --><g id="edge1" class="edge"><title>shure sm7b:xlr out-&gt;dm1 dynamite:xlr</title><path fill="none" stroke="#333333" stroke-width="2" stroke-opacity="0.600000" d="M60,-100.3997C60,-100.3997 60,-62.0731 60,-62.0731"></path><polygon fill="#333333" fill-opacity="0.600000" stroke="#333333" stroke-width="2" stroke-opacity="0.600000" points="63.5001,-62.0731 60,-52.0731 56.5001,-62.0731 63.5001,-62.0731"></polygon></g></g></svg>