<?xml version="1.0" encoding="UTF-8" standalone="no"?><!-- Generated by graphviz version 2.40.1 (20161225.0304)
 --><!-- Title: ndiag Pages: 1 --><svg width="154pt" height="270pt" viewBox="0.00 0.00 154.00 270.40" xmlns="http://www.w3.org/2000/svg" xmlns:xlink="http://www.w3.org/1999/xlink"><g id="graph0" class="graph" transform="scale(1 1) rotate(0) translate(4 266.4)"><title>ndiag</title><polygon fill="#ffffff" stroke="transparent" points="-4,4 -4,-266.4 150,-266.4 150,4 -4,4"></polygon><g id="clust3" class="cluster"><title>cluster_Focusrite</title><polygon fill="none" stroke="#999999" stroke-width="2" points="17,-8 17,-84.8 103,-84.8 103,-8 17,-8"></polygon><text text-anchor="middle" x="60" y="-68.2" font-family="Arial" font-size="14.00" fill="#666666">Focusrite</text></g><g id="clust2" class="cluster"><title>cluster_SHURE SM7b</title><polygon fill="none" stroke="#999999" stroke-width="2" points="8,-177.6 8,-254.4 113,-254.4 113,-177.6 8,-177.6"></polygon><text text-anchor="middle" x="60.5" y="-237.8" font-family="Arial" font-size="14.00" fill="#666666">SHURE SM7b</text></g><g id="clust1" class="cluster"><title>cluster_DM1 DYNAMITE</title><polygon fill="none" stroke="#000000" stroke-width="2" points="17,-92.8 17,-169.6 138,-169.6 138,-92.8 17,-92.8"></polygon><text text-anchor="middle" x="77.5" y="-153" font-family="Arial" font-size="14.00" fill="#000000">DM1 DYNAMITE</text></g><!-- dm1 dynamite:xlr --><g id="node1" class="node"><title>dm1 dynamite:xlr</title><path fill="#ffffff" stroke="#4b75b9" stroke-width="3" d="M75,-136.8C75,-136.8 45,-136.8 45,-136.8 39,-136.8 33,-130.8 33,-124.8 33,-124.8 33,-112.8 33,-112.8 33,-106.8 39,-100.8 45,-100.8 45,-100.8 75,-100.8 75,-100.8 81,-100.8 87,-106.8 87,-112.8 87,-112.8 87,-124.8 87,-124.8 87,-130.8 81,-136.8 75,-136.8"></path><text text-anchor="middle" x="60" y="-114.6" font-family="Arial" font-size="14.00" fill="#333333">XLR</text></g><!-- focusrite:xlr in 1 --><g id="node3" class="node"><title>focusrite:xlr in 1</title><path fill="#ffffff" stroke="#4b75b9" stroke-width="3" d="M83.4643,-52C83.4643,-52 36.5357,-52 36.5357,-52 30.5357,-52 24.5357,-46 24.5357,-40 24.5357,-40 24.5357,-28 24.5357,-28 24.5357,-22 30.5357,-16 36.5357,-16 36.5357,-16 83.4643,-16 83.4643,-16 89.4643,-16 95.4643,-22 95.4643,-28 95.4643,-28 95.4643,-40 95.4643,-40 95.4643,-46 89.4643,-52 83.4643,-52"></path><text text-anchor="middle" x="60" y="-29.8" font-family="Arial" font-size="14.00" fill="#333333">XLR In 1</text></g><!-- dm1 dynamite:xlr&#45;&gt;focusrite:xlr in 1 --><g id="edge2" class="edge"><title>dm1 dynamite:xlr-&gt;focusrite:xlr in 1</title><path fill="none" stroke="#333333" stroke-width="2" stroke-opacity="0.600000" d="M60,-100.3997C60,-100.3997 60,-62.0731 60,-62.0731"></path><polygon fill="#333333" fill-opacity="0.600000" stroke="#333333" stroke-width="2" stroke-opacity="0.600000" points="63.5001,-62.0731 60,-52.0731 56.5001,-62.0731 63.5001,-62.0731"></polygon></g><!-- shure sm7b:xlr out --><g id="node2" class="node"><title>shure sm7b:xlr out</title><path fill="#ffffff" stroke="#4b75b9" stroke-width="3" d="M82.6809,-221.6C82.6809,-221.6 37.3191,-221.6 37.3191,-221.6 31.3191,-221.6 25.3191,-215.6 25.3191,-209.6 25.3191,-209.6 25.3191,-197.6 25.3191,-197.6 25.3191,-191.6 31.3191,-185.6 37.3191,-185.6 37.3191,-185.6 82.6809,-185.6 82.6809,-185.6 88.6809,-185.6 94.6809,-191.6 94.6809,-197.6 94.6809,-197.6 94.6809,-209.6 94.6809,-209.6 94.6809,-215.6 88.6809,-221.6 82.6809,-221.6"></path><text text-anchor="middle" x="60" y="-199.4" font-family="Arial" font-size="14.00" fill="#333333">XLR Out</text></g><!-- shure sm7b:xlr out&#45;&gt;dm1 dynamite:xlr --><g id="edge1" class="edge"><title>shure sm7b:xlr out-&gt;dm1 dynamite:xlr</title><path fill="none" stroke="#333333" stroke-width="2" stroke-opacity="0.600000" d="M60,-185.1997C60,-185.1997 60,-146.8731 60,-146.8731"></path><polygon fill="#333333" fill-opacity="0.600000" stroke="#333333" stroke-width="2" stroke-opacity="0.600000" points="63.5001,-146.8731 60,-136.8731 56.5001,-146.8731 63.5001,-146.8731"></polygon></g></g></svg>