<?xml version="1.0" encoding="UTF-8" standalone="no"?><!-- Generated by graphviz version 2.40.1 (20161225.0304)
 --><!-- Title: ndiag Pages: 1 --><svg width="149pt" height="186pt" viewBox="0.00 0.00 149.00 185.60" xmlns="http://www.w3.org/2000/svg" xmlns:xlink="http://www.w3.org/1999/xlink"><g id="graph0" class="graph" transform="scale(1 1) rotate(0) translate(4 181.6)"><title>ndiag</title><polygon fill="#ffffff" stroke="transparent" points="-4,4 -4,-181.6 145,-181.6 145,4 -4,4"></polygon><g id="clust2" class="cluster"><title>cluster_Steinberg UR22C</title><polygon fill="none" stroke="#999999" stroke-width="2" points="8,-92.8 8,-169.6 133,-169.6 133,-92.8 8,-92.8"></polygon><text text-anchor="middle" x="70.5" y="-153" font-family="Arial" font-size="14.00" fill="#666666">Steinberg UR22C</text></g><g id="clust1" class="cluster"><title>cluster_Mac</title><polygon fill="none" stroke="#000000" stroke-width="2" points="8,-8 8,-84.8 78,-84.8 78,-8 8,-8"></polygon><text text-anchor="middle" x="43" y="-68.2" font-family="Arial" font-size="14.00" fill="#000000">Mac</text></g><!-- mac:usb --><g id="node1" class="node"><title>mac:usb</title><path fill="#ffffff" stroke="#4b75b9" stroke-width="3" d="M58,-52C58,-52 28,-52 28,-52 22,-52 16,-46 16,-40 16,-40 16,-28 16,-28 16,-22 22,-16 28,-16 28,-16 58,-16 58,-16 64,-16 70,-22 70,-28 70,-28 70,-40 70,-40 70,-46 64,-52 58,-52"></path><text text-anchor="middle" x="43" y="-29.8" font-family="Arial" font-size="14.00" fill="#333333">USB</text></g><!-- steinberg ur22c:usb --><g id="node2" class="node"><title>steinberg ur22c:usb</title><path fill="#ffffff" stroke="#4b75b9" stroke-width="3" d="M58,-136.8C58,-136.8 28,-136.8 28,-136.8 22,-136.8 16,-130.8 16,-124.8 16,-124.8 16,-112.8 16,-112.8 16,-106.8 22,-100.8 28,-100.8 28,-100.8 58,-100.8 58,-100.8 64,-100.8 70,-106.8 70,-112.8 70,-112.8 70,-124.8 70,-124.8 70,-130.8 64,-136.8 58,-136.8"></path><text text-anchor="middle" x="43" y="-114.6" font-family="Arial" font-size="14.00" fill="#333333">USB</text></g><!-- steinberg ur22c:usb&#45;&gt;mac:usb --><g id="edge1" class="edge"><title>steinberg ur22c:usb-&gt;mac:usb</title><path fill="none" stroke="#333333" stroke-width="2" stroke-opacity="0.600000" d="M43,-90.3997C43,-90.3997 43,-62.0731 43,-62.0731"></path><polygon fill="#333333" fill-opacity="0.600000" stroke="#333333" stroke-width="2" stroke-opacity="0.600000" points="46.5,-62.0731 43,-52.0731 39.5,-62.0731 46.5,-62.0731"></polygon><polygon fill="#333333" fill-opacity="0.600000" stroke="#333333" stroke-width="2" stroke-opacity="0.600000" points="39.5,-90.3997 43,-100.3997 46.5,-90.3997 39.5,-90.3997"></polygon></g></g></svg>