<?xml version="1.0" encoding="UTF-8" standalone="no"?><!-- Generated by graphviz version 2.40.1 (20161225.0304)
 --><!-- Title: ndiag Pages: 1 --><svg width="368pt" height="186pt" viewBox="0.00 0.00 368.00 185.60" xmlns="http://www.w3.org/2000/svg" xmlns:xlink="http://www.w3.org/1999/xlink"><g id="graph0" class="graph" transform="scale(1 1) rotate(0) translate(4 181.6)"><title>ndiag</title><polygon fill="#ffffff" stroke="transparent" points="-4,4 -4,-181.6 364,-181.6 364,4 -4,4"></polygon><g id="clust3" class="cluster"><title>cluster_Focusrite</title><polygon fill="none" stroke="#999999" stroke-width="2" points="136,-8 136,-84.8 352,-84.8 352,-8 136,-8"></polygon><text text-anchor="middle" x="244" y="-68.2" font-family="Arial" font-size="14.00" fill="#666666">Focusrite</text></g><g id="clust2" class="cluster"><title>cluster_Windows(NUC2)</title><polygon fill="none" stroke="#999999" stroke-width="2" points="8,-8 8,-84.8 128,-84.8 128,-8 8,-8"></polygon><text text-anchor="middle" x="68" y="-68.2" font-family="Arial" font-size="14.00" fill="#666666">Windows(NUC2)</text></g><g id="clust1" class="cluster"><title>cluster_Sound Blaster</title><polygon fill="none" stroke="#000000" stroke-width="2" points="76,-92.8 76,-169.6 338,-169.6 338,-92.8 76,-92.8"></polygon><text text-anchor="middle" x="207" y="-153" font-family="Arial" font-size="14.00" fill="#000000">Sound Blaster</text></g><!-- sound blaster:usb --><g id="node1" class="node"><title>sound blaster:usb</title><path fill="#ffffff" stroke="#4b75b9" stroke-width="3" d="M126,-136.8C126,-136.8 96,-136.8 96,-136.8 90,-136.8 84,-130.8 84,-124.8 84,-124.8 84,-112.8 84,-112.8 84,-106.8 90,-100.8 96,-100.8 96,-100.8 126,-100.8 126,-100.8 132,-100.8 138,-106.8 138,-112.8 138,-112.8 138,-124.8 138,-124.8 138,-130.8 132,-136.8 126,-136.8"></path><text text-anchor="middle" x="111" y="-114.6" font-family="Arial" font-size="14.00" fill="#333333">USB</text></g><!-- windows(nuc2):usb --><g id="node4" class="node"><title>windows(nuc2):usb</title><path fill="#ffffff" stroke="#4b75b9" stroke-width="3" d="M108,-52C108,-52 78,-52 78,-52 72,-52 66,-46 66,-40 66,-40 66,-28 66,-28 66,-22 72,-16 78,-16 78,-16 108,-16 108,-16 114,-16 120,-22 120,-28 120,-28 120,-40 120,-40 120,-46 114,-52 108,-52"></path><text text-anchor="middle" x="93" y="-29.8" font-family="Arial" font-size="14.00" fill="#333333">USB</text></g><!-- sound blaster:usb&#45;&gt;windows(nuc2):usb --><g id="edge1" class="edge"><title>sound blaster:usb-&gt;windows(nuc2):usb</title><path fill="none" stroke="#333333" stroke-width="2" stroke-opacity="0.600000" d="M102,-90.3997C102,-90.3997 102,-62.0731 102,-62.0731"></path><polygon fill="#333333" fill-opacity="0.600000" stroke="#333333" stroke-width="2" stroke-opacity="0.600000" points="105.5,-62.0731 102,-52.0731 98.5,-62.0731 105.5,-62.0731"></polygon><polygon fill="#333333" fill-opacity="0.600000" stroke="#333333" stroke-width="2" stroke-opacity="0.600000" points="98.5,-90.3997 102,-100.3997 105.5,-90.3997 98.5,-90.3997"></polygon></g><!-- sound blaster:stereo in --><g id="node2" class="node"><title>sound blaster:stereo in</title><path fill="#ffffff" stroke="#4b75b9" stroke-width="3" d="M216.2997,-136.8C216.2997,-136.8 167.7003,-136.8 167.7003,-136.8 161.7003,-136.8 155.7003,-130.8 155.7003,-124.8 155.7003,-124.8 155.7003,-112.8 155.7003,-112.8 155.7003,-106.8 161.7003,-100.8 167.7003,-100.8 167.7003,-100.8 216.2997,-100.8 216.2997,-100.8 222.2997,-100.8 228.2997,-106.8 228.2997,-112.8 228.2997,-112.8 228.2997,-124.8 228.2997,-124.8 228.2997,-130.8 222.2997,-136.8 216.2997,-136.8"></path><text text-anchor="middle" x="192" y="-114.6" font-family="Arial" font-size="14.00" fill="#333333">Stereo In</text></g><!-- sound blaster:stereo out --><g id="node3" class="node"><title>sound blaster:stereo out</title><path fill="#ffffff" stroke="#4b75b9" stroke-width="3" d="M317.6906,-136.8C317.6906,-136.8 258.3094,-136.8 258.3094,-136.8 252.3094,-136.8 246.3094,-130.8 246.3094,-124.8 246.3094,-124.8 246.3094,-112.8 246.3094,-112.8 246.3094,-106.8 252.3094,-100.8 258.3094,-100.8 258.3094,-100.8 317.6906,-100.8 317.6906,-100.8 323.6906,-100.8 329.6906,-106.8 329.6906,-112.8 329.6906,-112.8 329.6906,-124.8 329.6906,-124.8 329.6906,-130.8 323.6906,-136.8 317.6906,-136.8"></path><text text-anchor="middle" x="288" y="-114.6" font-family="Arial" font-size="14.00" fill="#333333">Stereo Out</text></g><!-- focusrite:line in 3/4 --><g id="node5" class="node"><title>focusrite:line in 3/4</title><path fill="#ffffff" stroke="#4b75b9" stroke-width="3" d="M332.0266,-52C332.0266,-52 269.9734,-52 269.9734,-52 263.9734,-52 257.9734,-46 257.9734,-40 257.9734,-40 257.9734,-28 257.9734,-28 257.9734,-22 263.9734,-16 269.9734,-16 269.9734,-16 332.0266,-16 332.0266,-16 338.0266,-16 344.0266,-22 344.0266,-28 344.0266,-28 344.0266,-40 344.0266,-40 344.0266,-46 338.0266,-52 332.0266,-52"></path><text text-anchor="middle" x="301" y="-29.8" font-family="Arial" font-size="14.00" fill="#333333">LINE In 3/4</text></g><!-- sound blaster:stereo out&#45;&gt;focusrite:line in 3/4 --><g id="edge2" class="edge"><title>sound blaster:stereo out-&gt;focusrite:line in 3/4</title><path fill="none" stroke="#333333" stroke-width="2" stroke-opacity="0.600000" d="M293.9159,-100.3997C293.9159,-100.3997 293.9159,-62.0731 293.9159,-62.0731"></path><polygon fill="#333333" fill-opacity="0.600000" stroke="#333333" stroke-width="2" stroke-opacity="0.600000" points="297.4159,-62.0731 293.9159,-52.0731 290.4159,-62.0731 297.4159,-62.0731"></polygon></g><!-- focusrite:line out 5/6 --><g id="node6" class="node"><title>focusrite:line out 5/6</title><path fill="#ffffff" stroke="#4b75b9" stroke-width="3" d="M228.4172,-52C228.4172,-52 155.5828,-52 155.5828,-52 149.5828,-52 143.5828,-46 143.5828,-40 143.5828,-40 143.5828,-28 143.5828,-28 143.5828,-22 149.5828,-16 155.5828,-16 155.5828,-16 228.4172,-16 228.4172,-16 234.4172,-16 240.4172,-22 240.4172,-28 240.4172,-28 240.4172,-40 240.4172,-40 240.4172,-46 234.4172,-52 228.4172,-52"></path><text text-anchor="middle" x="192" y="-29.8" font-family="Arial" font-size="14.00" fill="#333333">LINE Out 5/6</text></g><!-- focusrite:line out 5/6&#45;&gt;sound blaster:stereo in --><g id="edge3" class="edge"><title>focusrite:line out 5/6-&gt;sound blaster:stereo in</title><path fill="none" stroke="#333333" stroke-width="2" stroke-opacity="0.600000" d="M192,-52.4003C192,-52.4003 192,-90.7269 192,-90.7269"></path><polygon fill="#333333" fill-opacity="0.600000" stroke="#333333" stroke-width="2" stroke-opacity="0.600000" points="188.5001,-90.7269 192,-100.7269 195.5001,-90.7269 188.5001,-90.7269"></polygon></g></g></svg>