<?xml version="1.0" encoding="UTF-8" standalone="no"?><!-- Generated by graphviz version 2.40.1 (20161225.0304)
 --><!-- Title: ndiag Pages: 1 --><svg width="300pt" height="186pt" viewBox="0.00 0.00 300.00 185.60" xmlns="http://www.w3.org/2000/svg" xmlns:xlink="http://www.w3.org/1999/xlink"><g id="graph0" class="graph" transform="scale(1 1) rotate(0) translate(4 181.6)"><title>ndiag</title><polygon fill="#ffffff" stroke="transparent" points="-4,4 -4,-181.6 296,-181.6 296,4 -4,4"></polygon><g id="clust3" class="cluster"><title>cluster_Focusrite</title><polygon fill="none" stroke="#999999" stroke-width="2" points="86,-8 86,-84.8 280,-84.8 280,-8 86,-8"></polygon><text text-anchor="middle" x="183" y="-68.2" font-family="Arial" font-size="14.00" fill="#666666">Focusrite</text></g><g id="clust2" class="cluster"><title>cluster_Mac</title><polygon fill="none" stroke="#999999" stroke-width="2" points="8,-8 8,-84.8 78,-84.8 78,-8 8,-8"></polygon><text text-anchor="middle" x="43" y="-68.2" font-family="Arial" font-size="14.00" fill="#666666">Mac</text></g><g id="clust1" class="cluster"><title>cluster_Steinberg UR22C</title><polygon fill="none" stroke="#000000" stroke-width="2" points="22,-92.8 22,-169.6 284,-169.6 284,-92.8 22,-92.8"></polygon><text text-anchor="middle" x="153" y="-153" font-family="Arial" font-size="14.00" fill="#000000">Steinberg UR22C</text></g><!-- steinberg ur22c:usb --><g id="node1" class="node"><title>steinberg ur22c:usb</title><path fill="#ffffff" stroke="#4b75b9" stroke-width="3" d="M72,-136.8C72,-136.8 42,-136.8 42,-136.8 36,-136.8 30,-130.8 30,-124.8 30,-124.8 30,-112.8 30,-112.8 30,-106.8 36,-100.8 42,-100.8 42,-100.8 72,-100.8 72,-100.8 78,-100.8 84,-106.8 84,-112.8 84,-112.8 84,-124.8 84,-124.8 84,-130.8 78,-136.8 72,-136.8"></path><text text-anchor="middle" x="57" y="-114.6" font-family="Arial" font-size="14.00" fill="#333333">USB</text></g><!-- mac:usb --><g id="node4" class="node"><title>mac:usb</title><path fill="#ffffff" stroke="#4b75b9" stroke-width="3" d="M58,-52C58,-52 28,-52 28,-52 22,-52 16,-46 16,-40 16,-40 16,-28 16,-28 16,-22 22,-16 28,-16 28,-16 58,-16 58,-16 64,-16 70,-22 70,-28 70,-28 70,-40 70,-40 70,-46 64,-52 58,-52"></path><text text-anchor="middle" x="43" y="-29.8" font-family="Arial" font-size="14.00" fill="#333333">USB</text></g><!-- steinberg ur22c:usb&#45;&gt;mac:usb --><g id="edge1" class="edge"><title>steinberg ur22c:usb-&gt;mac:usb</title><path fill="none" stroke="#333333" stroke-width="2" stroke-opacity="0.600000" d="M50,-90.3997C50,-90.3997 50,-62.0731 50,-62.0731"></path><polygon fill="#333333" fill-opacity="0.600000" stroke="#333333" stroke-width="2" stroke-opacity="0.600000" points="53.5,-62.0731 50,-52.0731 46.5,-62.0731 53.5,-62.0731"></polygon><polygon fill="#333333" fill-opacity="0.600000" stroke="#333333" stroke-width="2" stroke-opacity="0.600000" points="46.5,-90.3997 50,-100.3997 53.5,-90.3997 46.5,-90.3997"></polygon></g><!-- steinberg ur22c:xlr in 1 --><g id="node2" class="node"><title>steinberg ur22c:xlr in 1</title><path fill="#ffffff" stroke="#4b75b9" stroke-width="3" d="M160.4643,-136.8C160.4643,-136.8 113.5357,-136.8 113.5357,-136.8 107.5357,-136.8 101.5357,-130.8 101.5357,-124.8 101.5357,-124.8 101.5357,-112.8 101.5357,-112.8 101.5357,-106.8 107.5357,-100.8 113.5357,-100.8 113.5357,-100.8 160.4643,-100.8 160.4643,-100.8 166.4643,-100.8 172.4643,-106.8 172.4643,-112.8 172.4643,-112.8 172.4643,-124.8 172.4643,-124.8 172.4643,-130.8 166.4643,-136.8 160.4643,-136.8"></path><text text-anchor="middle" x="137" y="-114.6" font-family="Arial" font-size="14.00" fill="#333333">XLR In 1</text></g><!-- steinberg ur22c:line out l --><g id="node3" class="node"><title>steinberg ur22c:line out l</title><path fill="#ffffff" stroke="#4b75b9" stroke-width="3" d="M263.7444,-136.8C263.7444,-136.8 202.2556,-136.8 202.2556,-136.8 196.2556,-136.8 190.2556,-130.8 190.2556,-124.8 190.2556,-124.8 190.2556,-112.8 190.2556,-112.8 190.2556,-106.8 196.2556,-100.8 202.2556,-100.8 202.2556,-100.8 263.7444,-100.8 263.7444,-100.8 269.7444,-100.8 275.7444,-106.8 275.7444,-112.8 275.7444,-112.8 275.7444,-124.8 275.7444,-124.8 275.7444,-130.8 269.7444,-136.8 263.7444,-136.8"></path><text text-anchor="middle" x="233" y="-114.6" font-family="Arial" font-size="14.00" fill="#333333">LINE Out L</text></g><!-- focusrite:line in 6 --><g id="node5" class="node"><title>focusrite:line in 6</title><path fill="#ffffff" stroke="#4b75b9" stroke-width="3" d="M260.3542,-52C260.3542,-52 209.6458,-52 209.6458,-52 203.6458,-52 197.6458,-46 197.6458,-40 197.6458,-40 197.6458,-28 197.6458,-28 197.6458,-22 203.6458,-16 209.6458,-16 209.6458,-16 260.3542,-16 260.3542,-16 266.3542,-16 272.3542,-22 272.3542,-28 272.3542,-28 272.3542,-40 272.3542,-40 272.3542,-46 266.3542,-52 260.3542,-52"></path><text text-anchor="middle" x="235" y="-29.8" font-family="Arial" font-size="14.00" fill="#333333">LINE In 6</text></g><!-- steinberg ur22c:line out l&#45;&gt;focusrite:line in 6 --><g id="edge3" class="edge"><title>steinberg ur22c:line out l-&gt;focusrite:line in 6</title><path fill="none" stroke="#333333" stroke-width="2" stroke-opacity="0.600000" d="M235,-100.3997C235,-100.3997 235,-62.0731 235,-62.0731"></path><polygon fill="#333333" fill-opacity="0.600000" stroke="#333333" stroke-width="2" stroke-opacity="0.600000" points="238.5001,-62.0731 235,-52.0731 231.5001,-62.0731 238.5001,-62.0731"></polygon></g><!-- focusrite:line out 3 --><g id="node6" class="node"><title>focusrite:line out 3</title><path fill="#ffffff" stroke="#4b75b9" stroke-width="3" d="M167.7444,-52C167.7444,-52 106.2556,-52 106.2556,-52 100.2556,-52 94.2556,-46 94.2556,-40 94.2556,-40 94.2556,-28 94.2556,-28 94.2556,-22 100.2556,-16 106.2556,-16 106.2556,-16 167.7444,-16 167.7444,-16 173.7444,-16 179.7444,-22 179.7444,-28 179.7444,-28 179.7444,-40 179.7444,-40 179.7444,-46 173.7444,-52 167.7444,-52"></path><text text-anchor="middle" x="137" y="-29.8" font-family="Arial" font-size="14.00" fill="#333333">LINE Out 3</text></g><!-- focusrite:line out 3&#45;&gt;steinberg ur22c:xlr in 1 --><g id="edge2" class="edge"><title>focusrite:line out 3-&gt;steinberg ur22c:xlr in 1</title><path fill="none" stroke="#333333" stroke-width="2" stroke-opacity="0.600000" d="M137,-52.4003C137,-52.4003 137,-90.7269 137,-90.7269"></path><polygon fill="#333333" fill-opacity="0.600000" stroke="#333333" stroke-width="2" stroke-opacity="0.600000" points="133.5001,-90.7269 137,-100.7269 140.5001,-90.7269 133.5001,-90.7269"></polygon></g></g></svg>