<?xml version="1.0" encoding="UTF-8" standalone="no"?><!-- Generated by graphviz version 2.40.1 (20161225.0304)
 --><!-- Title: ndiag Pages: 1 --><svg width="396pt" height="186pt" viewBox="0.00 0.00 396.00 185.60" xmlns="http://www.w3.org/2000/svg" xmlns:xlink="http://www.w3.org/1999/xlink"><g id="graph0" class="graph" transform="scale(1 1) rotate(0) translate(4 181.6)"><title>ndiag</title><polygon fill="#ffffff" stroke="transparent" points="-4,4 -4,-181.6 392,-181.6 392,4 -4,4"></polygon><g id="clust3" class="cluster"><title>cluster_Focusrite</title><polygon fill="none" stroke="#999999" stroke-width="2" points="8,-8 8,-84.8 239,-84.8 239,-8 8,-8"></polygon><text text-anchor="middle" x="123.5" y="-68.2" font-family="Arial" font-size="14.00" fill="#666666">Focusrite</text></g><g id="clust2" class="cluster"><title>cluster_Windows(Desktop)</title><polygon fill="none" stroke="#999999" stroke-width="2" points="247,-8 247,-84.8 380,-84.8 380,-8 247,-8"></polygon><text text-anchor="middle" x="313.5" y="-68.2" font-family="Arial" font-size="14.00" fill="#666666">Windows(Desktop)</text></g><g id="clust1" class="cluster"><title>cluster_Babyface</title><polygon fill="none" stroke="#000000" stroke-width="2" points="13,-92.8 13,-169.6 316,-169.6 316,-92.8 13,-92.8"></polygon><text text-anchor="middle" x="164.5" y="-153" font-family="Arial" font-size="14.00" fill="#000000">Babyface</text></g><!-- babyface:adat in 1&#45;8 --><g id="node1" class="node"><title>babyface:adat in 1-8</title><path fill="#ffffff" stroke="#4b75b9" stroke-width="3" d="M102.5126,-136.8C102.5126,-136.8 33.4874,-136.8 33.4874,-136.8 27.4874,-136.8 21.4874,-130.8 21.4874,-124.8 21.4874,-124.8 21.4874,-112.8 21.4874,-112.8 21.4874,-106.8 27.4874,-100.8 33.4874,-100.8 33.4874,-100.8 102.5126,-100.8 102.5126,-100.8 108.5126,-100.8 114.5126,-106.8 114.5126,-112.8 114.5126,-112.8 114.5126,-124.8 114.5126,-124.8 114.5126,-130.8 108.5126,-136.8 102.5126,-136.8"></path><text text-anchor="middle" x="68" y="-114.6" font-family="Arial" font-size="14.00" fill="#333333">ADAT In 1-8</text></g><!-- babyface:adat out 1&#45;8 --><g id="node2" class="node"><title>babyface:adat out 1-8</title><path fill="#ffffff" stroke="#4b75b9" stroke-width="3" d="M223.9032,-136.8C223.9032,-136.8 144.0968,-136.8 144.0968,-136.8 138.0968,-136.8 132.0968,-130.8 132.0968,-124.8 132.0968,-124.8 132.0968,-112.8 132.0968,-112.8 132.0968,-106.8 138.0968,-100.8 144.0968,-100.8 144.0968,-100.8 223.9032,-100.8 223.9032,-100.8 229.9032,-100.8 235.9032,-106.8 235.9032,-112.8 235.9032,-112.8 235.9032,-124.8 235.9032,-124.8 235.9032,-130.8 229.9032,-136.8 223.9032,-136.8"></path><text text-anchor="middle" x="184" y="-114.6" font-family="Arial" font-size="14.00" fill="#333333">ADAT Out 1-8</text></g><!-- focusrite:adat in 1&#45;8 --><g id="node5" class="node"><title>focusrite:adat in 1-8</title><path fill="#ffffff" stroke="#4b75b9" stroke-width="3" d="M218.5126,-52C218.5126,-52 149.4874,-52 149.4874,-52 143.4874,-52 137.4874,-46 137.4874,-40 137.4874,-40 137.4874,-28 137.4874,-28 137.4874,-22 143.4874,-16 149.4874,-16 149.4874,-16 218.5126,-16 218.5126,-16 224.5126,-16 230.5126,-22 230.5126,-28 230.5126,-28 230.5126,-40 230.5126,-40 230.5126,-46 224.5126,-52 218.5126,-52"></path><text text-anchor="middle" x="184" y="-29.8" font-family="Arial" font-size="14.00" fill="#333333">ADAT In 1-8</text></g><!-- babyface:adat out 1&#45;8&#45;&gt;focusrite:adat in 1&#45;8 --><g id="edge3" class="edge"><title>babyface:adat out 1-8-&gt;focusrite:adat in 1-8</title><path fill="none" stroke="#333333" stroke-width="2" stroke-opacity="0.600000" d="M184,-100.3997C184,-100.3997 184,-62.0731 184,-62.0731"></path><polygon fill="#333333" fill-opacity="0.600000" stroke="#333333" stroke-width="2" stroke-opacity="0.600000" points="187.5001,-62.0731 184,-52.0731 180.5001,-62.0731 187.5001,-62.0731"></polygon></g><!-- babyface:usb --><g id="node3" class="node"><title>babyface:usb</title><path fill="#ffffff" stroke="#4b75b9" stroke-width="3" d="M296,-136.8C296,-136.8 266,-136.8 266,-136.8 260,-136.8 254,-130.8 254,-124.8 254,-124.8 254,-112.8 254,-112.8 254,-106.8 260,-100.8 266,-100.8 266,-100.8 296,-100.8 296,-100.8 302,-100.8 308,-106.8 308,-112.8 308,-112.8 308,-124.8 308,-124.8 308,-130.8 302,-136.8 296,-136.8"></path><text text-anchor="middle" x="281" y="-114.6" font-family="Arial" font-size="14.00" fill="#333333">USB</text></g><!-- windows(desktop):usb --><g id="node4" class="node"><title>windows(desktop):usb</title><path fill="#ffffff" stroke="#4b75b9" stroke-width="3" d="M297,-52C297,-52 267,-52 267,-52 261,-52 255,-46 255,-40 255,-40 255,-28 255,-28 255,-22 261,-16 267,-16 267,-16 297,-16 297,-16 303,-16 309,-22 309,-28 309,-28 309,-40 309,-40 309,-46 303,-52 297,-52"></path><text text-anchor="middle" x="282" y="-29.8" font-family="Arial" font-size="14.00" fill="#333333">USB</text></g><!-- babyface:usb&#45;&gt;windows(desktop):usb --><g id="edge1" class="edge"><title>babyface:usb-&gt;windows(desktop):usb</title><path fill="none" stroke="#333333" stroke-width="2" stroke-opacity="0.600000" d="M281.5,-90.3997C281.5,-90.3997 281.5,-62.0731 281.5,-62.0731"></path><polygon fill="#333333" fill-opacity="0.600000" stroke="#333333" stroke-width="2" stroke-opacity="0.600000" points="285,-62.0731 281.5,-52.0731 278,-62.0731 285,-62.0731"></polygon><polygon fill="#333333" fill-opacity="0.600000" stroke="#333333" stroke-width="2" stroke-opacity="0.600000" points="278,-90.3997 281.5,-100.3997 285,-90.3997 278,-90.3997"></polygon></g><!-- focusrite:adat out 1&#45;8 --><g id="node6" class="node"><title>focusrite:adat out 1-8</title><path fill="#ffffff" stroke="#4b75b9" stroke-width="3" d="M107.9032,-52C107.9032,-52 28.0968,-52 28.0968,-52 22.0968,-52 16.0968,-46 16.0968,-40 16.0968,-40 16.0968,-28 16.0968,-28 16.0968,-22 22.0968,-16 28.0968,-16 28.0968,-16 107.9032,-16 107.9032,-16 113.9032,-16 119.9032,-22 119.9032,-28 119.9032,-28 119.9032,-40 119.9032,-40 119.9032,-46 113.9032,-52 107.9032,-52"></path><text text-anchor="middle" x="68" y="-29.8" font-family="Arial" font-size="14.00" fill="#333333">ADAT Out 1-8</text></g><!-- focusrite:adat out 1&#45;8&#45;&gt;babyface:adat in 1&#45;8 --><g id="edge2" class="edge"><title>focusrite:adat out 1-8-&gt;babyface:adat in 1-8</title><path fill="none" stroke="#333333" stroke-width="2" stroke-opacity="0.600000" d="M68,-52.4003C68,-52.4003 68,-90.7269 68,-90.7269"></path><polygon fill="#333333" fill-opacity="0.600000" stroke="#333333" stroke-width="2" stroke-opacity="0.600000" points="64.5001,-90.7269 68,-100.7269 71.5001,-90.7269 64.5001,-90.7269"></polygon></g></g></svg>