<?xml version="1.0" encoding="UTF-8" standalone="no"?><!-- Generated by graphviz version 2.40.1 (20161225.0304)
 --><!-- Title: ndiag Pages: 1 --><svg width="224pt" height="270pt" viewBox="0.00 0.00 224.00 270.40" xmlns="http://www.w3.org/2000/svg" xmlns:xlink="http://www.w3.org/1999/xlink"><g id="graph0" class="graph" transform="scale(1 1) rotate(0) translate(4 266.4)"><title>ndiag</title><polygon fill="#ffffff" stroke="transparent" points="-4,4 -4,-266.4 220,-266.4 220,4 -4,4"></polygon><g id="clust3" class="cluster"><title>cluster_Apple iPhone 8</title><polygon fill="none" stroke="#999999" stroke-width="2" points="18,-177.6 18,-254.4 128,-254.4 128,-177.6 18,-177.6"></polygon><text text-anchor="middle" x="73" y="-237.8" font-family="Arial" font-size="14.00" fill="#666666">Apple iPhone 8</text></g><g id="clust2" class="cluster"><title>cluster_TASCAM iXZ</title><polygon fill="none" stroke="#999999" stroke-width="2" points="109,-8 109,-84.8 208,-84.8 208,-8 109,-8"></polygon><text text-anchor="middle" x="158.5" y="-68.2" font-family="Arial" font-size="14.00" fill="#666666">TASCAM iXZ</text></g><g id="clust1" class="cluster"><title>cluster_Apple Headphone Adapter</title><polygon fill="none" stroke="#000000" stroke-width="2" points="8,-92.8 8,-169.6 188,-169.6 188,-92.8 8,-92.8"></polygon><text text-anchor="middle" x="98" y="-153" font-family="Arial" font-size="14.00" fill="#000000">Apple Headphone Adapter</text></g><!-- apple headphone adapter:trrs --><g id="node1" class="node"><title>apple headphone adapter:trrs</title><path fill="#ffffff" stroke="#4b75b9" stroke-width="3" d="M163.1025,-136.8C163.1025,-136.8 132.8975,-136.8 132.8975,-136.8 126.8975,-136.8 120.8975,-130.8 120.8975,-124.8 120.8975,-124.8 120.8975,-112.8 120.8975,-112.8 120.8975,-106.8 126.8975,-100.8 132.8975,-100.8 132.8975,-100.8 163.1025,-100.8 163.1025,-100.8 169.1025,-100.8 175.1025,-106.8 175.1025,-112.8 175.1025,-112.8 175.1025,-124.8 175.1025,-124.8 175.1025,-130.8 169.1025,-136.8 163.1025,-136.8"></path><text text-anchor="middle" x="148" y="-114.6" font-family="Arial" font-size="14.00" fill="#333333">TRRS</text></g><!-- tascam ixz:trrs --><g id="node3" class="node"><title>tascam ixz:trrs</title><path fill="#ffffff" stroke="#4b75b9" stroke-width="3" d="M163.1025,-52C163.1025,-52 132.8975,-52 132.8975,-52 126.8975,-52 120.8975,-46 120.8975,-40 120.8975,-40 120.8975,-28 120.8975,-28 120.8975,-22 126.8975,-16 132.8975,-16 132.8975,-16 163.1025,-16 163.1025,-16 169.1025,-16 175.1025,-22 175.1025,-28 175.1025,-28 175.1025,-40 175.1025,-40 175.1025,-46 169.1025,-52 163.1025,-52"></path><text text-anchor="middle" x="148" y="-29.8" font-family="Arial" font-size="14.00" fill="#333333">TRRS</text></g><!-- apple headphone adapter:trrs&#45;&gt;tascam ixz:trrs --><g id="edge1" class="edge"><title>apple headphone adapter:trrs-&gt;tascam ixz:trrs</title><path fill="none" stroke="#333333" stroke-width="2" stroke-opacity="0.600000" d="M148,-90.3997C148,-90.3997 148,-62.0731 148,-62.0731"></path><polygon fill="#333333" fill-opacity="0.600000" stroke="#333333" stroke-width="2" stroke-opacity="0.600000" points="151.5,-62.0731 148,-52.0731 144.5,-62.0731 151.5,-62.0731"></polygon><polygon fill="#333333" fill-opacity="0.600000" stroke="#333333" stroke-width="2" stroke-opacity="0.600000" points="144.5,-90.3997 148,-100.3997 151.5,-90.3997 144.5,-90.3997"></polygon></g><!-- apple headphone adapter:lightning --><g id="node2" class="node"><title>apple headphone adapter:lightning</title><path fill="#ffffff" stroke="#4b75b9" stroke-width="3" d="M86.2997,-136.8C86.2997,-136.8 37.7003,-136.8 37.7003,-136.8 31.7003,-136.8 25.7003,-130.8 25.7003,-124.8 25.7003,-124.8 25.7003,-112.8 25.7003,-112.8 25.7003,-106.8 31.7003,-100.8 37.7003,-100.8 37.7003,-100.8 86.2997,-100.8 86.2997,-100.8 92.2997,-100.8 98.2997,-106.8 98.2997,-112.8 98.2997,-112.8 98.2997,-124.8 98.2997,-124.8 98.2997,-130.8 92.2997,-136.8 86.2997,-136.8"></path><text text-anchor="middle" x="62" y="-114.6" font-family="Arial" font-size="14.00" fill="#333333">Lightning</text></g><!-- apple iphone 8:lightning --><g id="node4" class="node"><title>apple iphone 8:lightning</title><path fill="#ffffff" stroke="#4b75b9" stroke-width="3" d="M86.2997,-221.6C86.2997,-221.6 37.7003,-221.6 37.7003,-221.6 31.7003,-221.6 25.7003,-215.6 25.7003,-209.6 25.7003,-209.6 25.7003,-197.6 25.7003,-197.6 25.7003,-191.6 31.7003,-185.6 37.7003,-185.6 37.7003,-185.6 86.2997,-185.6 86.2997,-185.6 92.2997,-185.6 98.2997,-191.6 98.2997,-197.6 98.2997,-197.6 98.2997,-209.6 98.2997,-209.6 98.2997,-215.6 92.2997,-221.6 86.2997,-221.6"></path><text text-anchor="middle" x="62" y="-199.4" font-family="Arial" font-size="14.00" fill="#333333">Lightning</text></g><!-- apple iphone 8:lightning&#45;&gt;apple headphone adapter:lightning --><g id="edge2" class="edge"><title>apple iphone 8:lightning-&gt;apple headphone adapter:lightning</title><path fill="none" stroke="#333333" stroke-width="2" stroke-opacity="0.600000" d="M62,-175.1997C62,-175.1997 62,-146.8731 62,-146.8731"></path><polygon fill="#333333" fill-opacity="0.600000" stroke="#333333" stroke-width="2" stroke-opacity="0.600000" points="65.5,-146.8731 62,-136.8731 58.5,-146.8731 65.5,-146.8731"></polygon><polygon fill="#333333" fill-opacity="0.600000" stroke="#333333" stroke-width="2" stroke-opacity="0.600000" points="58.5,-175.1997 62,-185.1997 65.5,-175.1997 58.5,-175.1997"></polygon></g></g></svg>