<?xml version="1.0" encoding="UTF-8" standalone="no"?><!-- Generated by graphviz version 2.40.1 (20161225.0304)
 --><!-- Title: ndiag Pages: 1 --><svg width="260pt" height="101pt" viewBox="0.00 0.00 260.46 101.00" xmlns="http://www.w3.org/2000/svg" xmlns:xlink="http://www.w3.org/1999/xlink"><g id="graph0" class="graph" transform="scale(1 1) rotate(0) translate(4 97)"><title>ndiag</title><polygon fill="#ffffff" stroke="transparent" points="-4,4 -4,-97 256.46,-97 256.46,4 -4,4"></polygon><g id="clust1" class="cluster"><title>cluster_TASCAM iXZ</title><polygon fill="none" stroke="#000000" stroke-width="2" points="8,-8 8,-85 244.46,-85 244.46,-8 8,-8"></polygon><text text-anchor="middle" x="126.23" y="-68.4" font-family="Arial" font-size="14.00" fill="#000000">TASCAM iXZ</text></g><!-- tascam ixz:3.5mm stereo out --><g id="node1" class="node"><title>tascam ixz:3.5mm stereo out</title><path fill="#ffffff" stroke="#4b75b9" stroke-width="3" d="M224.6393,-52C224.6393,-52 117.9231,-52 117.9231,-52 111.9231,-52 105.9231,-46 105.9231,-40 105.9231,-40 105.9231,-28 105.9231,-28 105.9231,-22 111.9231,-16 117.9231,-16 117.9231,-16 224.6393,-16 224.6393,-16 230.6393,-16 236.6393,-22 236.6393,-28 236.6393,-28 236.6393,-40 236.6393,-40 236.6393,-46 230.6393,-52 224.6393,-52"></path><text text-anchor="middle" x="171.2812" y="-29.8" font-family="Arial" font-size="14.00" fill="#333333">3.5mm Stereo Out</text></g><!-- tascam ixz:trrs --><g id="node2" class="node"><title>tascam ixz:trrs</title><path fill="#ffffff" stroke="#4b75b9" stroke-width="3" d="M58.1537,-52C58.1537,-52 27.9487,-52 27.9487,-52 21.9487,-52 15.9487,-46 15.9487,-40 15.9487,-40 15.9487,-28 15.9487,-28 15.9487,-22 21.9487,-16 27.9487,-16 27.9487,-16 58.1537,-16 58.1537,-16 64.1537,-16 70.1537,-22 70.1537,-28 70.1537,-28 70.1537,-40 70.1537,-40 70.1537,-46 64.1537,-52 58.1537,-52"></path><text text-anchor="middle" x="43.0512" y="-29.8" font-family="Arial" font-size="14.00" fill="#333333">TRRS</text></g><!-- tascam ixz:trrs&#45;&gt;tascam ixz:3.5mm stereo out --><g id="edge-0" class="edge"><title>tascam ixz:trrs-&gt;tascam ixz:3.5mm stereo out</title><path fill="none" stroke="#333333" stroke-width="2" stroke-opacity="0.600000" d="M70.2455,-34C70.2455,-34 95.869,-34 95.869,-34"></path><polygon fill="#333333" fill-opacity="0.600000" stroke="#333333" stroke-width="2" stroke-opacity="0.600000" points="95.8691,-37.5001 105.869,-34 95.869,-30.5001 95.8691,-37.5001"></polygon></g></g></svg>