<?xml version="1.0" encoding="UTF-8" standalone="no"?><!-- Generated by graphviz version 2.40.1 (20161225.0304)
 --><!-- Title: ndiag Pages: 1 --><svg width="248pt" height="101pt" viewBox="0.00 0.00 247.72 101.00" xmlns="http://www.w3.org/2000/svg" xmlns:xlink="http://www.w3.org/1999/xlink"><g id="graph0" class="graph" transform="scale(1 1) rotate(0) translate(4 97)"><title>ndiag</title><polygon fill="#ffffff" stroke="transparent" points="-4,4 -4,-97 243.7166,-97 243.7166,4 -4,4"></polygon><g id="clust2" class="cluster"><title>cluster_Sound Blaster</title><polygon fill="none" stroke="#000000" stroke-width="2" points="6,-8 6,-85 109.69,-85 109.69,-8 6,-8"></polygon><text text-anchor="middle" x="57.845" y="-68.4" font-family="Arial" font-size="14.00" fill="#000000">Sound Blaster</text></g><g id="clust1" class="cluster"><title>cluster_Focusrite</title><polygon fill="none" stroke="#000000" stroke-width="2" points="129.69,-8 129.69,-85 231.7166,-85 231.7166,-8 129.69,-8"></polygon><text text-anchor="middle" x="180.7033" y="-68.4" font-family="Arial" font-size="14.00" fill="#000000">Focusrite</text></g><!-- focusrite:line in 3/4 --><g id="node1" class="node"><title>focusrite:line in 3/4</title><path fill="#ffffff" stroke="#4b75b9" stroke-width="3" d="M211.7299,-52C211.7299,-52 149.6767,-52 149.6767,-52 143.6767,-52 137.6767,-46 137.6767,-40 137.6767,-40 137.6767,-28 137.6767,-28 137.6767,-22 143.6767,-16 149.6767,-16 149.6767,-16 211.7299,-16 211.7299,-16 217.7299,-16 223.7299,-22 223.7299,-28 223.7299,-28 223.7299,-40 223.7299,-40 223.7299,-46 217.7299,-52 211.7299,-52"></path><text text-anchor="middle" x="180.7033" y="-29.8" font-family="Arial" font-size="14.00" fill="#333333">LINE In 3/4</text></g><!-- sound blaster:stereo out --><g id="node2" class="node"><title>sound blaster:stereo out</title><path fill="#ffffff" stroke="#4b75b9" stroke-width="3" d="M87.5356,-52C87.5356,-52 28.1544,-52 28.1544,-52 22.1544,-52 16.1544,-46 16.1544,-40 16.1544,-40 16.1544,-28 16.1544,-28 16.1544,-22 22.1544,-16 28.1544,-16 28.1544,-16 87.5356,-16 87.5356,-16 93.5356,-16 99.5356,-22 99.5356,-28 99.5356,-28 99.5356,-40 99.5356,-40 99.5356,-46 93.5356,-52 87.5356,-52"></path><text text-anchor="middle" x="57.845" y="-29.8" font-family="Arial" font-size="14.00" fill="#333333">Stereo Out</text></g><!-- sound blaster:stereo out&#45;&gt;focusrite:line in 3/4 --><g id="edge-0" class="edge"><title>sound blaster:stereo out-&gt;focusrite:line in 3/4</title><path fill="none" stroke="#333333" stroke-width="2" stroke-opacity="0.600000" d="M99.7822,-34C99.7822,-34 127.2814,-34 127.2814,-34"></path><polygon fill="#333333" fill-opacity="0.600000" stroke="#333333" stroke-width="2" stroke-opacity="0.600000" points="127.2814,-37.5001 137.2814,-34 127.2813,-30.5001 127.2814,-37.5001"></polygon></g></g></svg>