<?xml version="1.0" encoding="UTF-8" standalone="no"?><!-- Generated by graphviz version 2.40.1 (20161225.0304)
 --><!-- Title: ndiag Pages: 1 --><svg width="251pt" height="101pt" viewBox="0.00 0.00 251.00 101.00" xmlns="http://www.w3.org/2000/svg" xmlns:xlink="http://www.w3.org/1999/xlink"><g id="graph0" class="graph" transform="scale(1 1) rotate(0) translate(4 97)"><title>ndiag</title><polygon fill="#ffffff" stroke="transparent" points="-4,4 -4,-97 247,-97 247,4 -4,4"></polygon><g id="clust2" class="cluster"><title>cluster_Sound Blaster</title><polygon fill="none" stroke="#000000" stroke-width="2" points="140,-8 140,-85 243,-85 243,-8 140,-8"></polygon><text text-anchor="middle" x="191.5" y="-68.4" font-family="Arial" font-size="14.00" fill="#000000">Sound Blaster</text></g><g id="clust1" class="cluster"><title>cluster_Windows(NUC2)</title><polygon fill="none" stroke="#000000" stroke-width="2" points="0,-8 0,-85 120,-85 120,-8 0,-8"></polygon><text text-anchor="middle" x="60" y="-68.4" font-family="Arial" font-size="14.00" fill="#000000">Windows(NUC2)</text></g><!-- windows(nuc2):usb --><g id="node1" class="node"><title>windows(nuc2):usb</title><path fill="#ffffff" stroke="#4b75b9" stroke-width="3" d="M75,-52C75,-52 45,-52 45,-52 39,-52 33,-46 33,-40 33,-40 33,-28 33,-28 33,-22 39,-16 45,-16 45,-16 75,-16 75,-16 81,-16 87,-22 87,-28 87,-28 87,-40 87,-40 87,-46 81,-52 75,-52"></path><text text-anchor="middle" x="60" y="-29.8" font-family="Arial" font-size="14.00" fill="#333333">USB</text></g><!-- sound blaster:usb --><g id="node2" class="node"><title>sound blaster:usb</title><path fill="#ffffff" stroke="#4b75b9" stroke-width="3" d="M206,-52C206,-52 176,-52 176,-52 170,-52 164,-46 164,-40 164,-40 164,-28 164,-28 164,-22 170,-16 176,-16 176,-16 206,-16 206,-16 212,-16 218,-22 218,-28 218,-28 218,-40 218,-40 218,-46 212,-52 206,-52"></path><text text-anchor="middle" x="191" y="-29.8" font-family="Arial" font-size="14.00" fill="#333333">USB</text></g><!-- windows(nuc2):usb&#45;&gt;sound blaster:usb --><g id="edge-0" class="edge"><title>windows(nuc2):usb-&gt;sound blaster:usb</title><path fill="none" stroke="#333333" stroke-width="2" stroke-opacity="0.600000" d="M87.1433,-34C87.1433,-34 153.8915,-34 153.8915,-34"></path><polygon fill="#333333" fill-opacity="0.600000" stroke="#333333" stroke-width="2" stroke-opacity="0.600000" points="153.8915,-37.5001 163.8915,-34 153.8915,-30.5001 153.8915,-37.5001"></polygon></g></g></svg>