<?xml version="1.0" encoding="UTF-8" standalone="no"?><!-- Generated by graphviz version 2.40.1 (20161225.0304)
 --><!-- Title: ndiag Pages: 1 --><svg width="251pt" height="101pt" viewBox="0.00 0.00 251.00 101.00" xmlns="http://www.w3.org/2000/svg" xmlns:xlink="http://www.w3.org/1999/xlink"><g id="graph0" class="graph" transform="scale(1 1) rotate(0) translate(4 97)"><title>ndiag</title><polygon fill="#ffffff" stroke="transparent" points="-4,4 -4,-97 247,-97 247,4 -4,4"></polygon><g id="clust2" class="cluster"><title>cluster_Sound Blaster</title><polygon fill="none" stroke="#000000" stroke-width="2" points="0,-8 0,-85 103,-85 103,-8 0,-8"></polygon><text text-anchor="middle" x="51.5" y="-68.4" font-family="Arial" font-size="14.00" fill="#000000">Sound Blaster</text></g><g id="clust1" class="cluster"><title>cluster_Windows(NUC2)</title><polygon fill="none" stroke="#000000" stroke-width="2" points="123,-8 123,-85 243,-85 243,-8 123,-8"></polygon><text text-anchor="middle" x="183" y="-68.4" font-family="Arial" font-size="14.00" fill="#000000">Windows(NUC2)</text></g><!-- windows(nuc2):usb --><g id="node1" class="node"><title>windows(nuc2):usb</title><path fill="#ffffff" stroke="#4b75b9" stroke-width="3" d="M198,-52C198,-52 168,-52 168,-52 162,-52 156,-46 156,-40 156,-40 156,-28 156,-28 156,-22 162,-16 168,-16 168,-16 198,-16 198,-16 204,-16 210,-22 210,-28 210,-28 210,-40 210,-40 210,-46 204,-52 198,-52"></path><text text-anchor="middle" x="183" y="-29.8" font-family="Arial" font-size="14.00" fill="#333333">USB</text></g><!-- sound blaster:usb --><g id="node2" class="node"><title>sound blaster:usb</title><path fill="#ffffff" stroke="#4b75b9" stroke-width="3" d="M66,-52C66,-52 36,-52 36,-52 30,-52 24,-46 24,-40 24,-40 24,-28 24,-28 24,-22 30,-16 36,-16 36,-16 66,-16 66,-16 72,-16 78,-22 78,-28 78,-28 78,-40 78,-40 78,-46 72,-52 66,-52"></path><text text-anchor="middle" x="51" y="-29.8" font-family="Arial" font-size="14.00" fill="#333333">USB</text></g><!-- sound blaster:usb&#45;&gt;windows(nuc2):usb --><g id="edge-0" class="edge"><title>sound blaster:usb-&gt;windows(nuc2):usb</title><path fill="none" stroke="#333333" stroke-width="2" stroke-opacity="0.600000" d="M78.0307,-34C78.0307,-34 145.5518,-34 145.5518,-34"></path><polygon fill="#333333" fill-opacity="0.600000" stroke="#333333" stroke-width="2" stroke-opacity="0.600000" points="145.5519,-37.5001 155.5518,-34 145.5518,-30.5001 145.5519,-37.5001"></polygon></g></g></svg>