<?xml version="1.0" encoding="UTF-8" standalone="no"?><!-- Generated by graphviz version 2.40.1 (20161225.0304)
 --><!-- Title: ndiag Pages: 1 --><svg width="263pt" height="101pt" viewBox="0.00 0.00 262.71 101.00" xmlns="http://www.w3.org/2000/svg" xmlns:xlink="http://www.w3.org/1999/xlink"><g id="graph0" class="graph" transform="scale(1 1) rotate(0) translate(4 97)"><title>ndiag</title><polygon fill="#ffffff" stroke="transparent" points="-4,4 -4,-97 258.7068,-97 258.7068,4 -4,4"></polygon><g id="clust2" class="cluster"><title>cluster_Steinberg UR22C</title><polygon fill="none" stroke="#000000" stroke-width="2" points="129.244,-8 129.244,-85 254.7068,-85 254.7068,-8 129.244,-8"></polygon><text text-anchor="middle" x="191.9754" y="-68.4" font-family="Arial" font-size="14.00" fill="#000000">Steinberg UR22C</text></g><g id="clust1" class="cluster"><title>cluster_Focusrite</title><polygon fill="none" stroke="#000000" stroke-width="2" points="8,-8 8,-85 109.244,-85 109.244,-8 8,-8"></polygon><text text-anchor="middle" x="58.622" y="-68.4" font-family="Arial" font-size="14.00" fill="#000000">Focusrite</text></g><!-- focusrite:line out 3 --><g id="node1" class="node"><title>focusrite:line out 3</title><path fill="#ffffff" stroke="#4b75b9" stroke-width="3" d="M89.3664,-52C89.3664,-52 27.8776,-52 27.8776,-52 21.8776,-52 15.8776,-46 15.8776,-40 15.8776,-40 15.8776,-28 15.8776,-28 15.8776,-22 21.8776,-16 27.8776,-16 27.8776,-16 89.3664,-16 89.3664,-16 95.3664,-16 101.3664,-22 101.3664,-28 101.3664,-28 101.3664,-40 101.3664,-40 101.3664,-46 95.3664,-52 89.3664,-52"></path><text text-anchor="middle" x="58.622" y="-29.8" font-family="Arial" font-size="14.00" fill="#333333">LINE Out 3</text></g><!-- steinberg ur22c:xlr in 1 --><g id="node2" class="node"><title>steinberg ur22c:xlr in 1</title><path fill="#ffffff" stroke="#4b75b9" stroke-width="3" d="M214.9397,-52C214.9397,-52 168.0111,-52 168.0111,-52 162.0111,-52 156.0111,-46 156.0111,-40 156.0111,-40 156.0111,-28 156.0111,-28 156.0111,-22 162.0111,-16 168.0111,-16 168.0111,-16 214.9397,-16 214.9397,-16 220.9397,-16 226.9397,-22 226.9397,-28 226.9397,-28 226.9397,-40 226.9397,-40 226.9397,-46 220.9397,-52 214.9397,-52"></path><text text-anchor="middle" x="191.4754" y="-29.8" font-family="Arial" font-size="14.00" fill="#333333">XLR In 1</text></g><!-- focusrite:line out 3&#45;&gt;steinberg ur22c:xlr in 1 --><g id="edge-0" class="edge"><title>focusrite:line out 3-&gt;steinberg ur22c:xlr in 1</title><path fill="none" stroke="#333333" stroke-width="2" stroke-opacity="0.600000" d="M101.3889,-34C101.3889,-34 145.9059,-34 145.9059,-34"></path><polygon fill="#333333" fill-opacity="0.600000" stroke="#333333" stroke-width="2" stroke-opacity="0.600000" points="145.9059,-37.5001 155.9059,-34 145.9058,-30.5001 145.9059,-37.5001"></polygon></g></g></svg>