<?xml version="1.0" encoding="UTF-8" standalone="no"?><!-- Generated by graphviz version 2.40.1 (20161225.0304)
 --><!-- Title: ndiag Pages: 1 --><svg width="253pt" height="101pt" viewBox="0.00 0.00 252.72 101.00" xmlns="http://www.w3.org/2000/svg" xmlns:xlink="http://www.w3.org/1999/xlink"><g id="graph0" class="graph" transform="scale(1 1) rotate(0) translate(4 97)"><title>ndiag</title><polygon fill="#ffffff" stroke="transparent" points="-4,4 -4,-97 248.7166,-97 248.7166,4 -4,4"></polygon><g id="clust2" class="cluster"><title>cluster_Sound Blaster</title><polygon fill="none" stroke="#000000" stroke-width="2" points="140.9172,-8 140.9172,-85 244.7166,-85 244.7166,-8 140.9172,-8"></polygon><text text-anchor="middle" x="192.8169" y="-68.4" font-family="Arial" font-size="14.00" fill="#000000">Sound Blaster</text></g><g id="clust1" class="cluster"><title>cluster_Focusrite</title><polygon fill="none" stroke="#000000" stroke-width="2" points="8,-8 8,-85 120.9172,-85 120.9172,-8 8,-8"></polygon><text text-anchor="middle" x="64.4586" y="-68.4" font-family="Arial" font-size="14.00" fill="#000000">Focusrite</text></g><!-- focusrite:line out 5/6 --><g id="node1" class="node"><title>focusrite:line out 5/6</title><path fill="#ffffff" stroke="#4b75b9" stroke-width="3" d="M100.8758,-52C100.8758,-52 28.0414,-52 28.0414,-52 22.0414,-52 16.0414,-46 16.0414,-40 16.0414,-40 16.0414,-28 16.0414,-28 16.0414,-22 22.0414,-16 28.0414,-16 28.0414,-16 100.8758,-16 100.8758,-16 106.8758,-16 112.8758,-22 112.8758,-28 112.8758,-28 112.8758,-40 112.8758,-40 112.8758,-46 106.8758,-52 100.8758,-52"></path><text text-anchor="middle" x="64.4586" y="-29.8" font-family="Arial" font-size="14.00" fill="#333333">LINE Out 5/6</text></g><!-- sound blaster:stereo in --><g id="node2" class="node"><title>sound blaster:stereo in</title><path fill="#ffffff" stroke="#4b75b9" stroke-width="3" d="M216.6166,-52C216.6166,-52 168.0172,-52 168.0172,-52 162.0172,-52 156.0172,-46 156.0172,-40 156.0172,-40 156.0172,-28 156.0172,-28 156.0172,-22 162.0172,-16 168.0172,-16 168.0172,-16 216.6166,-16 216.6166,-16 222.6166,-16 228.6166,-22 228.6166,-28 228.6166,-28 228.6166,-40 228.6166,-40 228.6166,-46 222.6166,-52 216.6166,-52"></path><text text-anchor="middle" x="192.3169" y="-29.8" font-family="Arial" font-size="14.00" fill="#333333">Stereo In</text></g><!-- focusrite:line out 5/6&#45;&gt;sound blaster:stereo in --><g id="edge-0" class="edge"><title>focusrite:line out 5/6-&gt;sound blaster:stereo in</title><path fill="none" stroke="#333333" stroke-width="2" stroke-opacity="0.600000" d="M113.1611,-34C113.1611,-34 145.6832,-34 145.6832,-34"></path><polygon fill="#333333" fill-opacity="0.600000" stroke="#333333" stroke-width="2" stroke-opacity="0.600000" points="145.6832,-37.5001 155.6832,-34 145.6832,-30.5001 145.6832,-37.5001"></polygon></g></g></svg>