<?xml version="1.0" encoding="UTF-8" standalone="no"?><!-- Generated by graphviz version 2.40.1 (20161225.0304)
 --><!-- Title: ndiag Pages: 1 --><svg width="241pt" height="101pt" viewBox="0.00 0.00 241.00 101.00" xmlns="http://www.w3.org/2000/svg" xmlns:xlink="http://www.w3.org/1999/xlink"><g id="graph0" class="graph" transform="scale(1 1) rotate(0) translate(4 97)"><title>ndiag</title><polygon fill="#ffffff" stroke="transparent" points="-4,4 -4,-97 237,-97 237,4 -4,4"></polygon><g id="clust2" class="cluster"><title>cluster_Babyface</title><polygon fill="none" stroke="#000000" stroke-width="2" points="6,-8 6,-85 80,-85 80,-8 6,-8"></polygon><text text-anchor="middle" x="43" y="-68.4" font-family="Arial" font-size="14.00" fill="#000000">Babyface</text></g><g id="clust1" class="cluster"><title>cluster_Windows(Desktop)</title><polygon fill="none" stroke="#000000" stroke-width="2" points="100,-8 100,-85 233,-85 233,-8 100,-8"></polygon><text text-anchor="middle" x="166.5" y="-68.4" font-family="Arial" font-size="14.00" fill="#000000">Windows(Desktop)</text></g><!-- windows(desktop):usb --><g id="node1" class="node"><title>windows(desktop):usb</title><path fill="#ffffff" stroke="#4b75b9" stroke-width="3" d="M181,-52C181,-52 151,-52 151,-52 145,-52 139,-46 139,-40 139,-40 139,-28 139,-28 139,-22 145,-16 151,-16 151,-16 181,-16 181,-16 187,-16 193,-22 193,-28 193,-28 193,-40 193,-40 193,-46 187,-52 181,-52"></path><text text-anchor="middle" x="166" y="-29.8" font-family="Arial" font-size="14.00" fill="#333333">USB</text></g><!-- babyface:usb --><g id="node2" class="node"><title>babyface:usb</title><path fill="#ffffff" stroke="#4b75b9" stroke-width="3" d="M58,-52C58,-52 28,-52 28,-52 22,-52 16,-46 16,-40 16,-40 16,-28 16,-28 16,-22 22,-16 28,-16 28,-16 58,-16 58,-16 64,-16 70,-22 70,-28 70,-28 70,-40 70,-40 70,-46 64,-52 58,-52"></path><text text-anchor="middle" x="43" y="-29.8" font-family="Arial" font-size="14.00" fill="#333333">USB</text></g><!-- babyface:usb&#45;&gt;windows(desktop):usb --><g id="edge-0" class="edge"><title>babyface:usb-&gt;windows(desktop):usb</title><path fill="none" stroke="#333333" stroke-width="2" stroke-opacity="0.600000" d="M70.2977,-34C70.2977,-34 128.7786,-34 128.7786,-34"></path><polygon fill="#333333" fill-opacity="0.600000" stroke="#333333" stroke-width="2" stroke-opacity="0.600000" points="128.7787,-37.5001 138.7786,-34 128.7786,-30.5001 128.7787,-37.5001"></polygon></g></g></svg>