<?xml version="1.0" encoding="UTF-8" standalone="no"?><!-- Generated by graphviz version 2.40.1 (20161225.0304)
 --><!-- Title: ndiag Pages: 1 --><svg width="306pt" height="101pt" viewBox="0.00 0.00 305.92 101.00" xmlns="http://www.w3.org/2000/svg" xmlns:xlink="http://www.w3.org/1999/xlink"><g id="graph0" class="graph" transform="scale(1 1) rotate(0) translate(4 97)"><title>ndiag</title><polygon fill="#ffffff" stroke="transparent" points="-4,4 -4,-97 301.9172,-97 301.9172,4 -4,4"></polygon><g id="clust2" class="cluster"><title>cluster_Focusrite</title><polygon fill="none" stroke="#000000" stroke-width="2" points="8,-8 8,-85 120.9172,-85 120.9172,-8 8,-8"></polygon><text text-anchor="middle" x="64.4586" y="-68.4" font-family="Arial" font-size="14.00" fill="#000000">Focusrite</text></g><g id="clust1" class="cluster"><title>cluster_SONY MDR-CD900ST</title><polygon fill="none" stroke="#000000" stroke-width="2" points="140.9172,-8 140.9172,-85 297.9172,-85 297.9172,-8 140.9172,-8"></polygon><text text-anchor="middle" x="219.4172" y="-68.4" font-family="Arial" font-size="14.00" fill="#000000">SONY MDR-CD900ST</text></g><!-- sony mdr&#45;cd900st:l/r --><g id="node1" class="node"><title>sony mdr-cd900st:l/r</title><path fill="#ffffff" stroke="#4b75b9" stroke-width="3" d="M233.9172,-52C233.9172,-52 203.9172,-52 203.9172,-52 197.9172,-52 191.9172,-46 191.9172,-40 191.9172,-40 191.9172,-28 191.9172,-28 191.9172,-22 197.9172,-16 203.9172,-16 203.9172,-16 233.9172,-16 233.9172,-16 239.9172,-16 245.9172,-22 245.9172,-28 245.9172,-28 245.9172,-40 245.9172,-40 245.9172,-46 239.9172,-52 233.9172,-52"></path><text text-anchor="middle" x="218.9172" y="-29.8" font-family="Arial" font-size="14.00" fill="#333333">L/R</text></g><!-- focusrite:line out 7/8 --><g id="node2" class="node"><title>focusrite:line out 7/8</title><path fill="#ffffff" stroke="#4b75b9" stroke-width="3" d="M100.8758,-52C100.8758,-52 28.0414,-52 28.0414,-52 22.0414,-52 16.0414,-46 16.0414,-40 16.0414,-40 16.0414,-28 16.0414,-28 16.0414,-22 22.0414,-16 28.0414,-16 28.0414,-16 100.8758,-16 100.8758,-16 106.8758,-16 112.8758,-22 112.8758,-28 112.8758,-28 112.8758,-40 112.8758,-40 112.8758,-46 106.8758,-52 100.8758,-52"></path><text text-anchor="middle" x="64.4586" y="-29.8" font-family="Arial" font-size="14.00" fill="#333333">LINE Out 7/8</text></g><!-- focusrite:line out 7/8&#45;&gt;sony mdr&#45;cd900st:l/r --><g id="edge-0" class="edge"><title>focusrite:line out 7/8-&gt;sony mdr-cd900st:l/r</title><path fill="none" stroke="#333333" stroke-width="2" stroke-opacity="0.600000" d="M112.9065,-34C112.9065,-34 181.7736,-34 181.7736,-34"></path><polygon fill="#333333" fill-opacity="0.600000" stroke="#333333" stroke-width="2" stroke-opacity="0.600000" points="181.7736,-37.5001 191.7736,-34 181.7735,-30.5001 181.7736,-37.5001"></polygon></g></g></svg>