<?xml version="1.0" encoding="UTF-8" standalone="no"?><!-- Generated by graphviz version 2.40.1 (20161225.0304)
 --><!-- Title: ndiag Pages: 1 --><svg width="241pt" height="101pt" viewBox="0.00 0.00 240.92 101.00" xmlns="http://www.w3.org/2000/svg" xmlns:xlink="http://www.w3.org/1999/xlink"><g id="graph0" class="graph" transform="scale(1 1) rotate(0) translate(4 97)"><title>ndiag</title><polygon fill="#ffffff" stroke="transparent" points="-4,4 -4,-97 236.9228,-97 236.9228,4 -4,4"></polygon><g id="clust2" class="cluster"><title>cluster_TASCAM iXZ</title><polygon fill="none" stroke="#000000" stroke-width="2" points="129.244,-8 129.244,-85 227.9228,-85 227.9228,-8 129.244,-8"></polygon><text text-anchor="middle" x="178.5834" y="-68.4" font-family="Arial" font-size="14.00" fill="#000000">TASCAM iXZ</text></g><g id="clust1" class="cluster"><title>cluster_Focusrite</title><polygon fill="none" stroke="#000000" stroke-width="2" points="8,-8 8,-85 109.244,-85 109.244,-8 8,-8"></polygon><text text-anchor="middle" x="58.622" y="-68.4" font-family="Arial" font-size="14.00" fill="#000000">Focusrite</text></g><!-- focusrite:line out 4 --><g id="node1" class="node"><title>focusrite:line out 4</title><path fill="#ffffff" stroke="#4b75b9" stroke-width="3" d="M89.3664,-52C89.3664,-52 27.8776,-52 27.8776,-52 21.8776,-52 15.8776,-46 15.8776,-40 15.8776,-40 15.8776,-28 15.8776,-28 15.8776,-22 21.8776,-16 27.8776,-16 27.8776,-16 89.3664,-16 89.3664,-16 95.3664,-16 101.3664,-22 101.3664,-28 101.3664,-28 101.3664,-40 101.3664,-40 101.3664,-46 95.3664,-52 89.3664,-52"></path><text text-anchor="middle" x="58.622" y="-29.8" font-family="Arial" font-size="14.00" fill="#333333">LINE Out 4</text></g><!-- tascam ixz:combo in --><g id="node2" class="node"><title>tascam ixz:combo in</title><path fill="#ffffff" stroke="#4b75b9" stroke-width="3" d="M204.7629,-52C204.7629,-52 152.4039,-52 152.4039,-52 146.4039,-52 140.4039,-46 140.4039,-40 140.4039,-40 140.4039,-28 140.4039,-28 140.4039,-22 146.4039,-16 152.4039,-16 152.4039,-16 204.7629,-16 204.7629,-16 210.7629,-16 216.7629,-22 216.7629,-28 216.7629,-28 216.7629,-40 216.7629,-40 216.7629,-46 210.7629,-52 204.7629,-52"></path><text text-anchor="middle" x="178.5834" y="-29.8" font-family="Arial" font-size="14.00" fill="#333333">Combo In</text></g><!-- focusrite:line out 4&#45;&gt;tascam ixz:combo in --><g id="edge-0" class="edge"><title>focusrite:line out 4-&gt;tascam ixz:combo in</title><path fill="none" stroke="#333333" stroke-width="2" stroke-opacity="0.600000" d="M101.2537,-34C101.2537,-34 130.0854,-34 130.0854,-34"></path><polygon fill="#333333" fill-opacity="0.600000" stroke="#333333" stroke-width="2" stroke-opacity="0.600000" points="130.0854,-37.5001 140.0854,-34 130.0854,-30.5001 130.0854,-37.5001"></polygon></g></g></svg>