<?xml version="1.0" encoding="UTF-8" standalone="no"?><!-- Generated by graphviz version 2.40.1 (20161225.0304)
 --><!-- Title: ndiag Pages: 1 --><svg width="272pt" height="101pt" viewBox="0.00 0.00 271.70 101.00" xmlns="http://www.w3.org/2000/svg" xmlns:xlink="http://www.w3.org/1999/xlink"><g id="graph0" class="graph" transform="scale(1 1) rotate(0) translate(4 97)"><title>ndiag</title><polygon fill="#ffffff" stroke="transparent" points="-4,4 -4,-97 267.6998,-97 267.6998,4 -4,4"></polygon><g id="clust2" class="cluster"><title>cluster_Focusrite</title><polygon fill="none" stroke="#000000" stroke-width="2" points="8,-8 8,-85 128.6998,-85 128.6998,-8 8,-8"></polygon><text text-anchor="middle" x="68.3499" y="-68.4" font-family="Arial" font-size="14.00" fill="#000000">Focusrite</text></g><g id="clust1" class="cluster"><title>cluster_Creative Pebble</title><polygon fill="none" stroke="#000000" stroke-width="2" points="148.6998,-8 148.6998,-85 263.6998,-85 263.6998,-8 148.6998,-8"></polygon><text text-anchor="middle" x="206.1998" y="-68.4" font-family="Arial" font-size="14.00" fill="#000000">Creative Pebble</text></g><!-- creative pebble:l/r --><g id="node1" class="node"><title>creative pebble:l/r</title><path fill="#ffffff" stroke="#4b75b9" stroke-width="3" d="M220.6998,-52C220.6998,-52 190.6998,-52 190.6998,-52 184.6998,-52 178.6998,-46 178.6998,-40 178.6998,-40 178.6998,-28 178.6998,-28 178.6998,-22 184.6998,-16 190.6998,-16 190.6998,-16 220.6998,-16 220.6998,-16 226.6998,-16 232.6998,-22 232.6998,-28 232.6998,-28 232.6998,-40 232.6998,-40 232.6998,-46 226.6998,-52 220.6998,-52"></path><text text-anchor="middle" x="205.6998" y="-29.8" font-family="Arial" font-size="14.00" fill="#333333">L/R</text></g><!-- focusrite:line out 9/10 --><g id="node2" class="node"><title>focusrite:line out 9/10</title><path fill="#ffffff" stroke="#4b75b9" stroke-width="3" d="M108.5501,-52C108.5501,-52 28.1497,-52 28.1497,-52 22.1497,-52 16.1497,-46 16.1497,-40 16.1497,-40 16.1497,-28 16.1497,-28 16.1497,-22 22.1497,-16 28.1497,-16 28.1497,-16 108.5501,-16 108.5501,-16 114.5501,-16 120.5501,-22 120.5501,-28 120.5501,-28 120.5501,-40 120.5501,-40 120.5501,-46 114.5501,-52 108.5501,-52"></path><text text-anchor="middle" x="68.3499" y="-29.8" font-family="Arial" font-size="14.00" fill="#333333">LINE Out 9/10</text></g><!-- focusrite:line out 9/10&#45;&gt;creative pebble:l/r --><g id="edge-0" class="edge"><title>focusrite:line out 9/10-&gt;creative pebble:l/r</title><path fill="none" stroke="#333333" stroke-width="2" stroke-opacity="0.600000" d="M120.6678,-34C120.6678,-34 168.5049,-34 168.5049,-34"></path><polygon fill="#333333" fill-opacity="0.600000" stroke="#333333" stroke-width="2" stroke-opacity="0.600000" points="168.5049,-37.5001 178.5049,-34 168.5049,-30.5001 168.5049,-37.5001"></polygon></g></g></svg>