<?xml version="1.0" encoding="UTF-8" standalone="no"?><!-- Generated by graphviz version 2.40.1 (20161225.0304)
 --><!-- Title: ndiag Pages: 1 --><svg width="255pt" height="101pt" viewBox="0.00 0.00 254.72 101.00" xmlns="http://www.w3.org/2000/svg" xmlns:xlink="http://www.w3.org/1999/xlink"><g id="graph0" class="graph" transform="scale(1 1) rotate(0) translate(4 97)"><title>ndiag</title><polygon fill="#ffffff" stroke="transparent" points="-4,4 -4,-97 250.7166,-97 250.7166,4 -4,4"></polygon><g id="clust2" class="cluster"><title>cluster_Focusrite</title><polygon fill="none" stroke="#000000" stroke-width="2" points="136.69,-8 136.69,-85 238.7166,-85 238.7166,-8 136.69,-8"></polygon><text text-anchor="middle" x="187.7033" y="-68.4" font-family="Arial" font-size="14.00" fill="#000000">Focusrite</text></g><g id="clust1" class="cluster"><title>cluster_Nintendo Switch</title><polygon fill="none" stroke="#000000" stroke-width="2" points="0,-8 0,-85 116.69,-85 116.69,-8 0,-8"></polygon><text text-anchor="middle" x="58.345" y="-68.4" font-family="Arial" font-size="14.00" fill="#000000">Nintendo Switch</text></g><!-- nintendo switch:stereo out --><g id="node1" class="node"><title>nintendo switch:stereo out</title><path fill="#ffffff" stroke="#4b75b9" stroke-width="3" d="M87.5356,-52C87.5356,-52 28.1544,-52 28.1544,-52 22.1544,-52 16.1544,-46 16.1544,-40 16.1544,-40 16.1544,-28 16.1544,-28 16.1544,-22 22.1544,-16 28.1544,-16 28.1544,-16 87.5356,-16 87.5356,-16 93.5356,-16 99.5356,-22 99.5356,-28 99.5356,-28 99.5356,-40 99.5356,-40 99.5356,-46 93.5356,-52 87.5356,-52"></path><text text-anchor="middle" x="57.845" y="-29.8" font-family="Arial" font-size="14.00" fill="#333333">Stereo Out</text></g><!-- focusrite:line in 3/4 --><g id="node2" class="node"><title>focusrite:line in 3/4</title><path fill="#ffffff" stroke="#4b75b9" stroke-width="3" d="M218.7299,-52C218.7299,-52 156.6767,-52 156.6767,-52 150.6767,-52 144.6767,-46 144.6767,-40 144.6767,-40 144.6767,-28 144.6767,-28 144.6767,-22 150.6767,-16 156.6767,-16 156.6767,-16 218.7299,-16 218.7299,-16 224.7299,-16 230.7299,-22 230.7299,-28 230.7299,-28 230.7299,-40 230.7299,-40 230.7299,-46 224.7299,-52 218.7299,-52"></path><text text-anchor="middle" x="187.7033" y="-29.8" font-family="Arial" font-size="14.00" fill="#333333">LINE In 3/4</text></g><!-- nintendo switch:stereo out&#45;&gt;focusrite:line in 3/4 --><g id="edge-0" class="edge"><title>nintendo switch:stereo out-&gt;focusrite:line in 3/4</title><path fill="none" stroke="#333333" stroke-width="2" stroke-opacity="0.600000" d="M99.6478,-34C99.6478,-34 134.6399,-34 134.6399,-34"></path><polygon fill="#333333" fill-opacity="0.600000" stroke="#333333" stroke-width="2" stroke-opacity="0.600000" points="134.64,-37.5001 144.6399,-34 134.6399,-30.5001 134.64,-37.5001"></polygon></g></g></svg>