<?xml version="1.0" encoding="UTF-8" standalone="no"?><!-- Generated by graphviz version 2.40.1 (20161225.0304)
 --><!-- Title: ndiag Pages: 1 --><svg width="273pt" height="101pt" viewBox="0.00 0.00 272.92 101.00" xmlns="http://www.w3.org/2000/svg" xmlns:xlink="http://www.w3.org/1999/xlink"><g id="graph0" class="graph" transform="scale(1 1) rotate(0) translate(4 97)"><title>ndiag</title><polygon fill="#ffffff" stroke="transparent" points="-4,4 -4,-97 268.9158,-97 268.9158,4 -4,4"></polygon><g id="clust2" class="cluster"><title>cluster_Babyface</title><polygon fill="none" stroke="#000000" stroke-width="2" points="147.9032,-8 147.9032,-85 256.9158,-85 256.9158,-8 147.9032,-8"></polygon><text text-anchor="middle" x="202.4095" y="-68.4" font-family="Arial" font-size="14.00" fill="#000000">Babyface</text></g><g id="clust1" class="cluster"><title>cluster_Focusrite</title><polygon fill="none" stroke="#000000" stroke-width="2" points="8,-8 8,-85 127.9032,-85 127.9032,-8 8,-8"></polygon><text text-anchor="middle" x="67.9516" y="-68.4" font-family="Arial" font-size="14.00" fill="#000000">Focusrite</text></g><!-- focusrite:adat out 1&#45;8 --><g id="node1" class="node"><title>focusrite:adat out 1-8</title><path fill="#ffffff" stroke="#4b75b9" stroke-width="3" d="M107.8548,-52C107.8548,-52 28.0484,-52 28.0484,-52 22.0484,-52 16.0484,-46 16.0484,-40 16.0484,-40 16.0484,-28 16.0484,-28 16.0484,-22 22.0484,-16 28.0484,-16 28.0484,-16 107.8548,-16 107.8548,-16 113.8548,-16 119.8548,-22 119.8548,-28 119.8548,-28 119.8548,-40 119.8548,-40 119.8548,-46 113.8548,-52 107.8548,-52"></path><text text-anchor="middle" x="67.9516" y="-29.8" font-family="Arial" font-size="14.00" fill="#333333">ADAT Out 1-8</text></g><!-- babyface:adat in 1&#45;8 --><g id="node2" class="node"><title>babyface:adat in 1-8</title><path fill="#ffffff" stroke="#4b75b9" stroke-width="3" d="M236.9221,-52C236.9221,-52 167.8969,-52 167.8969,-52 161.8969,-52 155.8969,-46 155.8969,-40 155.8969,-40 155.8969,-28 155.8969,-28 155.8969,-22 161.8969,-16 167.8969,-16 167.8969,-16 236.9221,-16 236.9221,-16 242.9221,-16 248.9221,-22 248.9221,-28 248.9221,-28 248.9221,-40 248.9221,-40 248.9221,-46 242.9221,-52 236.9221,-52"></path><text text-anchor="middle" x="202.4095" y="-29.8" font-family="Arial" font-size="14.00" fill="#333333">ADAT In 1-8</text></g><!-- focusrite:adat out 1&#45;8&#45;&gt;babyface:adat in 1&#45;8 --><g id="edge-0" class="edge"><title>focusrite:adat out 1-8-&gt;babyface:adat in 1-8</title><path fill="none" stroke="#333333" stroke-width="2" stroke-opacity="0.600000" d="M119.9365,-34C119.9365,-34 145.8307,-34 145.8307,-34"></path><polygon fill="#333333" fill-opacity="0.600000" stroke="#333333" stroke-width="2" stroke-opacity="0.600000" points="145.8307,-37.5001 155.8307,-34 145.8307,-30.5001 145.8307,-37.5001"></polygon></g></g></svg>