<?xml version="1.0" encoding="UTF-8" standalone="no"?><!-- Generated by graphviz version 2.40.1 (20161225.0304)
 --><!-- Title: ndiag Pages: 1 --><svg width="320pt" height="101pt" viewBox="0.00 0.00 319.60 101.00" xmlns="http://www.w3.org/2000/svg" xmlns:xlink="http://www.w3.org/1999/xlink"><g id="graph0" class="graph" transform="scale(1 1) rotate(0) translate(4 97)"><title>ndiag</title><polygon fill="#ffffff" stroke="transparent" points="-4,4 -4,-97 315.5988,-97 315.5988,4 -4,4"></polygon><g id="clust2" class="cluster"><title>cluster_Apple Headphone Adapter</title><polygon fill="none" stroke="#000000" stroke-width="2" points="0,-8 0,-85 180.7994,-85 180.7994,-8 0,-8"></polygon><text text-anchor="middle" x="90.3997" y="-68.4" font-family="Arial" font-size="14.00" fill="#000000">Apple Headphone Adapter</text></g><g id="clust1" class="cluster"><title>cluster_Apple iPhone 8</title><polygon fill="none" stroke="#000000" stroke-width="2" points="200.7994,-8 200.7994,-85 311.5988,-85 311.5988,-8 200.7994,-8"></polygon><text text-anchor="middle" x="256.1991" y="-68.4" font-family="Arial" font-size="14.00" fill="#000000">Apple iPhone 8</text></g><!-- apple iphone 8:lightning --><g id="node1" class="node"><title>apple iphone 8:lightning</title><path fill="#ffffff" stroke="#4b75b9" stroke-width="3" d="M280.4988,-52C280.4988,-52 231.8994,-52 231.8994,-52 225.8994,-52 219.8994,-46 219.8994,-40 219.8994,-40 219.8994,-28 219.8994,-28 219.8994,-22 225.8994,-16 231.8994,-16 231.8994,-16 280.4988,-16 280.4988,-16 286.4988,-16 292.4988,-22 292.4988,-28 292.4988,-28 292.4988,-40 292.4988,-40 292.4988,-46 286.4988,-52 280.4988,-52"></path><text text-anchor="middle" x="256.1991" y="-29.8" font-family="Arial" font-size="14.00" fill="#333333">Lightning</text></g><!-- apple headphone adapter:lightning --><g id="node2" class="node"><title>apple headphone adapter:lightning</title><path fill="#ffffff" stroke="#4b75b9" stroke-width="3" d="M114.6994,-52C114.6994,-52 66.1,-52 66.1,-52 60.1,-52 54.1,-46 54.1,-40 54.1,-40 54.1,-28 54.1,-28 54.1,-22 60.1,-16 66.1,-16 66.1,-16 114.6994,-16 114.6994,-16 120.6994,-16 126.6994,-22 126.6994,-28 126.6994,-28 126.6994,-40 126.6994,-40 126.6994,-46 120.6994,-52 114.6994,-52"></path><text text-anchor="middle" x="90.3997" y="-29.8" font-family="Arial" font-size="14.00" fill="#333333">Lightning</text></g><!-- apple headphone adapter:lightning&#45;&gt;apple iphone 8:lightning --><g id="edge-0" class="edge"><title>apple headphone adapter:lightning-&gt;apple iphone 8:lightning</title><path fill="none" stroke="#333333" stroke-width="2" stroke-opacity="0.600000" d="M126.7851,-34C126.7851,-34 209.8986,-34 209.8986,-34"></path><polygon fill="#333333" fill-opacity="0.600000" stroke="#333333" stroke-width="2" stroke-opacity="0.600000" points="209.8986,-37.5001 219.8986,-34 209.8986,-30.5001 209.8986,-37.5001"></polygon></g></g></svg>