<?xml version="1.0" encoding="UTF-8" standalone="no"?><!-- Generated by graphviz version 2.40.1 (20161225.0304)
 --><!-- Title: ndiag Pages: 1 --><svg width="305pt" height="101pt" viewBox="0.00 0.00 305.20 101.00" xmlns="http://www.w3.org/2000/svg" xmlns:xlink="http://www.w3.org/1999/xlink"><g id="graph0" class="graph" transform="scale(1 1) rotate(0) translate(4 97)"><title>ndiag</title><polygon fill="#ffffff" stroke="transparent" points="-4,4 -4,-97 301.2048,-97 301.2048,4 -4,4"></polygon><g id="clust2" class="cluster"><title>cluster_Apple Headphone Adapter</title><polygon fill="none" stroke="#000000" stroke-width="2" points="0,-8 0,-85 180.1024,-85 180.1024,-8 0,-8"></polygon><text text-anchor="middle" x="90.0512" y="-68.4" font-family="Arial" font-size="14.00" fill="#000000">Apple Headphone Adapter</text></g><g id="clust1" class="cluster"><title>cluster_TASCAM iXZ</title><polygon fill="none" stroke="#000000" stroke-width="2" points="198.1024,-8 198.1024,-85 297.2048,-85 297.2048,-8 198.1024,-8"></polygon><text text-anchor="middle" x="247.6536" y="-68.4" font-family="Arial" font-size="14.00" fill="#000000">TASCAM iXZ</text></g><!-- tascam ixz:trrs --><g id="node1" class="node"><title>tascam ixz:trrs</title><path fill="#ffffff" stroke="#4b75b9" stroke-width="3" d="M262.2561,-52C262.2561,-52 232.0511,-52 232.0511,-52 226.0511,-52 220.0511,-46 220.0511,-40 220.0511,-40 220.0511,-28 220.0511,-28 220.0511,-22 226.0511,-16 232.0511,-16 232.0511,-16 262.2561,-16 262.2561,-16 268.2561,-16 274.2561,-22 274.2561,-28 274.2561,-28 274.2561,-40 274.2561,-40 274.2561,-46 268.2561,-52 262.2561,-52"></path><text text-anchor="middle" x="247.1536" y="-29.8" font-family="Arial" font-size="14.00" fill="#333333">TRRS</text></g><!-- apple headphone adapter:trrs --><g id="node2" class="node"><title>apple headphone adapter:trrs</title><path fill="#ffffff" stroke="#4b75b9" stroke-width="3" d="M105.1537,-52C105.1537,-52 74.9487,-52 74.9487,-52 68.9487,-52 62.9487,-46 62.9487,-40 62.9487,-40 62.9487,-28 62.9487,-28 62.9487,-22 68.9487,-16 74.9487,-16 74.9487,-16 105.1537,-16 105.1537,-16 111.1537,-16 117.1537,-22 117.1537,-28 117.1537,-28 117.1537,-40 117.1537,-40 117.1537,-46 111.1537,-52 105.1537,-52"></path><text text-anchor="middle" x="90.0512" y="-29.8" font-family="Arial" font-size="14.00" fill="#333333">TRRS</text></g><!-- apple headphone adapter:trrs&#45;&gt;tascam ixz:trrs --><g id="edge-0" class="edge"><title>apple headphone adapter:trrs-&gt;tascam ixz:trrs</title><path fill="none" stroke="#333333" stroke-width="2" stroke-opacity="0.600000" d="M117.4163,-34C117.4163,-34 210.102,-34 210.102,-34"></path><polygon fill="#333333" fill-opacity="0.600000" stroke="#333333" stroke-width="2" stroke-opacity="0.600000" points="210.1021,-37.5001 220.102,-34 210.102,-30.5001 210.1021,-37.5001"></polygon></g></g></svg>