<?xml version="1.0" encoding="UTF-8" standalone="no"?><!-- Generated by graphviz version 2.40.1 (20161225.0304)
 --><!-- Title: ndiag Pages: 1 --><svg width="231pt" height="101pt" viewBox="0.00 0.00 231.00 101.00" xmlns="http://www.w3.org/2000/svg" xmlns:xlink="http://www.w3.org/1999/xlink"><g id="graph0" class="graph" transform="scale(1 1) rotate(0) translate(4 97)"><title>ndiag</title><polygon fill="#ffffff" stroke="transparent" points="-4,4 -4,-97 227,-97 227,4 -4,4"></polygon><g id="clust2" class="cluster"><title>cluster_Steinberg UR22C</title><polygon fill="none" stroke="#000000" stroke-width="2" points="98,-8 98,-85 223,-85 223,-8 98,-8"></polygon><text text-anchor="middle" x="160.5" y="-68.4" font-family="Arial" font-size="14.00" fill="#000000">Steinberg UR22C</text></g><g id="clust1" class="cluster"><title>cluster_Mac</title><polygon fill="none" stroke="#000000" stroke-width="2" points="8,-8 8,-85 78,-85 78,-8 8,-8"></polygon><text text-anchor="middle" x="43" y="-68.4" font-family="Arial" font-size="14.00" fill="#000000">Mac</text></g><!-- mac:usb --><g id="node1" class="node"><title>mac:usb</title><path fill="#ffffff" stroke="#4b75b9" stroke-width="3" d="M58,-52C58,-52 28,-52 28,-52 22,-52 16,-46 16,-40 16,-40 16,-28 16,-28 16,-22 22,-16 28,-16 28,-16 58,-16 58,-16 64,-16 70,-22 70,-28 70,-28 70,-40 70,-40 70,-46 64,-52 58,-52"></path><text text-anchor="middle" x="43" y="-29.8" font-family="Arial" font-size="14.00" fill="#333333">USB</text></g><!-- steinberg ur22c:usb --><g id="node2" class="node"><title>steinberg ur22c:usb</title><path fill="#ffffff" stroke="#4b75b9" stroke-width="3" d="M175,-52C175,-52 145,-52 145,-52 139,-52 133,-46 133,-40 133,-40 133,-28 133,-28 133,-22 139,-16 145,-16 145,-16 175,-16 175,-16 181,-16 187,-22 187,-28 187,-28 187,-40 187,-40 187,-46 181,-52 175,-52"></path><text text-anchor="middle" x="160" y="-29.8" font-family="Arial" font-size="14.00" fill="#333333">USB</text></g><!-- mac:usb&#45;&gt;steinberg ur22c:usb --><g id="edge-0" class="edge"><title>mac:usb-&gt;steinberg ur22c:usb</title><path fill="none" stroke="#333333" stroke-width="2" stroke-opacity="0.600000" d="M70.1362,-34C70.1362,-34 122.6056,-34 122.6056,-34"></path><polygon fill="#333333" fill-opacity="0.600000" stroke="#333333" stroke-width="2" stroke-opacity="0.600000" points="122.6057,-37.5001 132.6056,-34 122.6056,-30.5001 122.6057,-37.5001"></polygon></g></g></svg>