<?xml version="1.0" encoding="UTF-8" standalone="no"?><!-- Generated by graphviz version 2.40.1 (20161225.0304)
 --><!-- Title: ndiag Pages: 1 --><svg width="254pt" height="101pt" viewBox="0.00 0.00 253.68 101.00" xmlns="http://www.w3.org/2000/svg" xmlns:xlink="http://www.w3.org/1999/xlink"><g id="graph0" class="graph" transform="scale(1 1) rotate(0) translate(4 97)"><title>ndiag</title><polygon fill="#ffffff" stroke="transparent" points="-4,4 -4,-97 249.6802,-97 249.6802,4 -4,4"></polygon><g id="clust2" class="cluster"><title>cluster_DM1 DYNAMITE</title><polygon fill="none" stroke="#000000" stroke-width="2" points="124.6802,-8 124.6802,-85 245.6802,-85 245.6802,-8 124.6802,-8"></polygon><text text-anchor="middle" x="185.1802" y="-68.4" font-family="Arial" font-size="14.00" fill="#000000">DM1 DYNAMITE</text></g><g id="clust1" class="cluster"><title>cluster_SHURE SM7b</title><polygon fill="none" stroke="#000000" stroke-width="2" points="0,-8 0,-85 104.6802,-85 104.6802,-8 0,-8"></polygon><text text-anchor="middle" x="52.3401" y="-68.4" font-family="Arial" font-size="14.00" fill="#000000">SHURE SM7b</text></g><!-- shure sm7b:xlr out --><g id="node1" class="node"><title>shure sm7b:xlr out</title><path fill="#ffffff" stroke="#4b75b9" stroke-width="3" d="M74.521,-52C74.521,-52 29.1592,-52 29.1592,-52 23.1592,-52 17.1592,-46 17.1592,-40 17.1592,-40 17.1592,-28 17.1592,-28 17.1592,-22 23.1592,-16 29.1592,-16 29.1592,-16 74.521,-16 74.521,-16 80.521,-16 86.521,-22 86.521,-28 86.521,-28 86.521,-40 86.521,-40 86.521,-46 80.521,-52 74.521,-52"></path><text text-anchor="middle" x="51.8401" y="-29.8" font-family="Arial" font-size="14.00" fill="#333333">XLR Out</text></g><!-- dm1 dynamite:xlr --><g id="node2" class="node"><title>dm1 dynamite:xlr</title><path fill="#ffffff" stroke="#4b75b9" stroke-width="3" d="M199.6802,-52C199.6802,-52 169.6802,-52 169.6802,-52 163.6802,-52 157.6802,-46 157.6802,-40 157.6802,-40 157.6802,-28 157.6802,-28 157.6802,-22 163.6802,-16 169.6802,-16 169.6802,-16 199.6802,-16 199.6802,-16 205.6802,-16 211.6802,-22 211.6802,-28 211.6802,-28 211.6802,-40 211.6802,-40 211.6802,-46 205.6802,-52 199.6802,-52"></path><text text-anchor="middle" x="184.6802" y="-29.8" font-family="Arial" font-size="14.00" fill="#333333">XLR</text></g><!-- shure sm7b:xlr out&#45;&gt;dm1 dynamite:xlr --><g id="edge-0" class="edge"><title>shure sm7b:xlr out-&gt;dm1 dynamite:xlr</title><path fill="none" stroke="#333333" stroke-width="2" stroke-opacity="0.600000" d="M86.7423,-34C86.7423,-34 147.5577,-34 147.5577,-34"></path><polygon fill="#333333" fill-opacity="0.600000" stroke="#333333" stroke-width="2" stroke-opacity="0.600000" points="147.5578,-37.5001 157.5577,-34 147.5577,-30.5001 147.5578,-37.5001"></polygon></g></g></svg>