<?xml version="1.0" encoding="UTF-8" standalone="no"?><!-- Generated by graphviz version 2.40.1 (20161225.0304)
 --><!-- Title: ndiag Pages: 1 --><svg width="252pt" height="101pt" viewBox="0.00 0.00 251.60 101.00" xmlns="http://www.w3.org/2000/svg" xmlns:xlink="http://www.w3.org/1999/xlink"><g id="graph0" class="graph" transform="scale(1 1) rotate(0) translate(4 97)"><title>ndiag</title><polygon fill="#ffffff" stroke="transparent" points="-4,4 -4,-97 247.5974,-97 247.5974,4 -4,4"></polygon><g id="clust2" class="cluster"><title>cluster_Steinberg UR22C</title><polygon fill="none" stroke="#000000" stroke-width="2" points="0,-8 0,-85 125.244,-85 125.244,-8 0,-8"></polygon><text text-anchor="middle" x="62.622" y="-68.4" font-family="Arial" font-size="14.00" fill="#000000">Steinberg UR22C</text></g><g id="clust1" class="cluster"><title>cluster_Focusrite</title><polygon fill="none" stroke="#000000" stroke-width="2" points="145.244,-8 145.244,-85 235.5974,-85 235.5974,-8 145.244,-8"></polygon><text text-anchor="middle" x="190.4207" y="-68.4" font-family="Arial" font-size="14.00" fill="#000000">Focusrite</text></g><!-- focusrite:line in 6 --><g id="node1" class="node"><title>focusrite:line in 6</title><path fill="#ffffff" stroke="#4b75b9" stroke-width="3" d="M215.7749,-52C215.7749,-52 165.0665,-52 165.0665,-52 159.0665,-52 153.0665,-46 153.0665,-40 153.0665,-40 153.0665,-28 153.0665,-28 153.0665,-22 159.0665,-16 165.0665,-16 165.0665,-16 215.7749,-16 215.7749,-16 221.7749,-16 227.7749,-22 227.7749,-28 227.7749,-28 227.7749,-40 227.7749,-40 227.7749,-46 221.7749,-52 215.7749,-52"></path><text text-anchor="middle" x="190.4207" y="-29.8" font-family="Arial" font-size="14.00" fill="#333333">LINE In 6</text></g><!-- steinberg ur22c:line out l --><g id="node2" class="node"><title>steinberg ur22c:line out l</title><path fill="#ffffff" stroke="#4b75b9" stroke-width="3" d="M93.3664,-52C93.3664,-52 31.8776,-52 31.8776,-52 25.8776,-52 19.8776,-46 19.8776,-40 19.8776,-40 19.8776,-28 19.8776,-28 19.8776,-22 25.8776,-16 31.8776,-16 31.8776,-16 93.3664,-16 93.3664,-16 99.3664,-16 105.3664,-22 105.3664,-28 105.3664,-28 105.3664,-40 105.3664,-40 105.3664,-46 99.3664,-52 93.3664,-52"></path><text text-anchor="middle" x="62.622" y="-29.8" font-family="Arial" font-size="14.00" fill="#333333">LINE Out L</text></g><!-- steinberg ur22c:line out l&#45;&gt;focusrite:line in 6 --><g id="edge-0" class="edge"><title>steinberg ur22c:line out l-&gt;focusrite:line in 6</title><path fill="none" stroke="#333333" stroke-width="2" stroke-opacity="0.600000" d="M105.5326,-34C105.5326,-34 142.9754,-34 142.9754,-34"></path><polygon fill="#333333" fill-opacity="0.600000" stroke="#333333" stroke-width="2" stroke-opacity="0.600000" points="142.9754,-37.5001 152.9754,-34 142.9753,-30.5001 142.9754,-37.5001"></polygon></g></g></svg>