<?xml version="1.0" encoding="UTF-8" standalone="no"?><!-- Generated by graphviz version 2.40.1 (20161225.0304)
 --><!-- Title: ndiag Pages: 1 --><svg width="275pt" height="101pt" viewBox="0.00 0.00 275.25 101.00" xmlns="http://www.w3.org/2000/svg" xmlns:xlink="http://www.w3.org/1999/xlink"><g id="graph0" class="graph" transform="scale(1 1) rotate(0) translate(4 97)"><title>ndiag</title><polygon fill="#ffffff" stroke="transparent" points="-4,4 -4,-97 271.2538,-97 271.2538,4 -4,4"></polygon><g id="clust2" class="cluster"><title>cluster_Focusrite</title><polygon fill="none" stroke="#000000" stroke-width="2" points="139.3506,-8 139.3506,-85 259.2538,-85 259.2538,-8 139.3506,-8"></polygon><text text-anchor="middle" x="199.3022" y="-68.4" font-family="Arial" font-size="14.00" fill="#000000">Focusrite</text></g><g id="clust1" class="cluster"><title>cluster_Cantabile</title><polygon fill="none" stroke="#000000" stroke-width="2" points="8,-8 8,-85 119.3506,-85 119.3506,-8 8,-8"></polygon><text text-anchor="middle" x="63.6753" y="-68.4" font-family="Arial" font-size="14.00" fill="#000000">Cantabile</text></g><!-- cantabile:nectar 3 out --><g id="node1" class="node"><title>cantabile:nectar 3 out</title><path fill="#ffffff" stroke="#4b75b9" stroke-width="3" d="M99.5265,-52C99.5265,-52 27.8241,-52 27.8241,-52 21.8241,-52 15.8241,-46 15.8241,-40 15.8241,-40 15.8241,-28 15.8241,-28 15.8241,-22 21.8241,-16 27.8241,-16 27.8241,-16 99.5265,-16 99.5265,-16 105.5265,-16 111.5265,-22 111.5265,-28 111.5265,-28 111.5265,-40 111.5265,-40 111.5265,-46 105.5265,-52 99.5265,-52"></path><text text-anchor="middle" x="63.6753" y="-29.8" font-family="Arial" font-size="14.00" fill="#333333">Nectar 3 Out</text></g><!-- focusrite:adat out 1&#45;8 --><g id="node2" class="node"><title>focusrite:adat out 1-8</title><path fill="#ffffff" stroke="#4b75b9" stroke-width="3" d="M239.2054,-52C239.2054,-52 159.399,-52 159.399,-52 153.399,-52 147.399,-46 147.399,-40 147.399,-40 147.399,-28 147.399,-28 147.399,-22 153.399,-16 159.399,-16 159.399,-16 239.2054,-16 239.2054,-16 245.2054,-16 251.2054,-22 251.2054,-28 251.2054,-28 251.2054,-40 251.2054,-40 251.2054,-46 245.2054,-52 239.2054,-52"></path><text text-anchor="middle" x="199.3022" y="-29.8" font-family="Arial" font-size="14.00" fill="#333333">ADAT Out 1-8</text></g><!-- cantabile:nectar 3 out&#45;&gt;focusrite:adat out 1&#45;8 --><g id="edge-0" class="edge"><title>cantabile:nectar 3 out-&gt;focusrite:adat out 1-8</title><path fill="none" stroke="#333333" stroke-width="2" stroke-opacity="0.600000" d="M111.4923,-34C111.4923,-34 137.3077,-34 137.3077,-34"></path><polygon fill="#333333" fill-opacity="0.600000" stroke="#333333" stroke-width="2" stroke-opacity="0.600000" points="137.3077,-37.5001 147.3077,-34 137.3077,-30.5001 137.3077,-37.5001"></polygon></g></g></svg>