<?xml version="1.0" encoding="UTF-8" standalone="no"?><!-- Generated by graphviz version 2.40.1 (20161225.0304)
 --><!-- Title: ndiag Pages: 1 --><svg width="292pt" height="101pt" viewBox="0.00 0.00 292.38 101.00" xmlns="http://www.w3.org/2000/svg" xmlns:xlink="http://www.w3.org/1999/xlink"><g id="graph0" class="graph" transform="scale(1 1) rotate(0) translate(4 97)"><title>ndiag</title><polygon fill="#ffffff" stroke="transparent" points="-4,4 -4,-97 288.3842,-97 288.3842,4 -4,4"></polygon><g id="clust2" class="cluster"><title>cluster_TASCAM iXZ</title><polygon fill="none" stroke="#000000" stroke-width="2" points="8,-8 8,-85 154.3576,-85 154.3576,-8 8,-8"></polygon><text text-anchor="middle" x="81.1788" y="-68.4" font-family="Arial" font-size="14.00" fill="#000000">TASCAM iXZ</text></g><g id="clust1" class="cluster"><title>cluster_Focusrite</title><polygon fill="none" stroke="#000000" stroke-width="2" points="174.3576,-8 174.3576,-85 276.3842,-85 276.3842,-8 174.3576,-8"></polygon><text text-anchor="middle" x="225.3709" y="-68.4" font-family="Arial" font-size="14.00" fill="#000000">Focusrite</text></g><!-- focusrite:line in 7/8 --><g id="node1" class="node"><title>focusrite:line in 7/8</title><path fill="#ffffff" stroke="#4b75b9" stroke-width="3" d="M256.3975,-52C256.3975,-52 194.3443,-52 194.3443,-52 188.3443,-52 182.3443,-46 182.3443,-40 182.3443,-40 182.3443,-28 182.3443,-28 182.3443,-22 188.3443,-16 194.3443,-16 194.3443,-16 256.3975,-16 256.3975,-16 262.3975,-16 268.3975,-22 268.3975,-28 268.3975,-28 268.3975,-40 268.3975,-40 268.3975,-46 262.3975,-52 256.3975,-52"></path><text text-anchor="middle" x="225.3709" y="-29.8" font-family="Arial" font-size="14.00" fill="#333333">LINE In 7/8</text></g><!-- tascam ixz:3.5mm stereo out --><g id="node2" class="node"><title>tascam ixz:3.5mm stereo out</title><path fill="#ffffff" stroke="#4b75b9" stroke-width="3" d="M134.5369,-52C134.5369,-52 27.8207,-52 27.8207,-52 21.8207,-52 15.8207,-46 15.8207,-40 15.8207,-40 15.8207,-28 15.8207,-28 15.8207,-22 21.8207,-16 27.8207,-16 27.8207,-16 134.5369,-16 134.5369,-16 140.5369,-16 146.5369,-22 146.5369,-28 146.5369,-28 146.5369,-40 146.5369,-40 146.5369,-46 140.5369,-52 134.5369,-52"></path><text text-anchor="middle" x="81.1788" y="-29.8" font-family="Arial" font-size="14.00" fill="#333333">3.5mm Stereo Out</text></g><!-- tascam ixz:3.5mm stereo out&#45;&gt;focusrite:line in 7/8 --><g id="edge-0" class="edge"><title>tascam ixz:3.5mm stereo out-&gt;focusrite:line in 7/8</title><path fill="none" stroke="#333333" stroke-width="2" stroke-opacity="0.600000" d="M146.5246,-34C146.5246,-34 172.1329,-34 172.1329,-34"></path><polygon fill="#333333" fill-opacity="0.600000" stroke="#333333" stroke-width="2" stroke-opacity="0.600000" points="172.133,-37.5001 182.1329,-34 172.1329,-30.5001 172.133,-37.5001"></polygon></g></g></svg>