<?xml version="1.0" encoding="UTF-8" standalone="no"?><!-- Generated by graphviz version 2.40.1 (20161225.0304)
 --><!-- Title: ndiag Pages: 1 --><svg width="231pt" height="101pt" viewBox="0.00 0.00 231.00 101.00" xmlns="http://www.w3.org/2000/svg" xmlns:xlink="http://www.w3.org/1999/xlink"><g id="graph0" class="graph" transform="scale(1 1) rotate(0) translate(4 97)"><title>ndiag</title><polygon fill="#ffffff" stroke="transparent" points="-4,4 -4,-97 227,-97 227,4 -4,4"></polygon><g id="clust2" class="cluster"><title>cluster_Steinberg UR22C</title><polygon fill="none" stroke="#000000" stroke-width="2" points="0,-8 0,-85 125,-85 125,-8 0,-8"></polygon><text text-anchor="middle" x="62.5" y="-68.4" font-family="Arial" font-size="14.00" fill="#000000">Steinberg UR22C</text></g><g id="clust1" class="cluster"><title>cluster_Mac</title><polygon fill="none" stroke="#000000" stroke-width="2" points="145,-8 145,-85 215,-85 215,-8 145,-8"></polygon><text text-anchor="middle" x="180" y="-68.4" font-family="Arial" font-size="14.00" fill="#000000">Mac</text></g><!-- mac:usb --><g id="node1" class="node"><title>mac:usb</title><path fill="#ffffff" stroke="#4b75b9" stroke-width="3" d="M195,-52C195,-52 165,-52 165,-52 159,-52 153,-46 153,-40 153,-40 153,-28 153,-28 153,-22 159,-16 165,-16 165,-16 195,-16 195,-16 201,-16 207,-22 207,-28 207,-28 207,-40 207,-40 207,-46 201,-52 195,-52"></path><text text-anchor="middle" x="180" y="-29.8" font-family="Arial" font-size="14.00" fill="#333333">USB</text></g><!-- steinberg ur22c:usb --><g id="node2" class="node"><title>steinberg ur22c:usb</title><path fill="#ffffff" stroke="#4b75b9" stroke-width="3" d="M77,-52C77,-52 47,-52 47,-52 41,-52 35,-46 35,-40 35,-40 35,-28 35,-28 35,-22 41,-16 47,-16 47,-16 77,-16 77,-16 83,-16 89,-22 89,-28 89,-28 89,-40 89,-40 89,-46 83,-52 77,-52"></path><text text-anchor="middle" x="62" y="-29.8" font-family="Arial" font-size="14.00" fill="#333333">USB</text></g><!-- steinberg ur22c:usb&#45;&gt;mac:usb --><g id="edge-0" class="edge"><title>steinberg ur22c:usb-&gt;mac:usb</title><path fill="none" stroke="#333333" stroke-width="2" stroke-opacity="0.600000" d="M89.0716,-34C89.0716,-34 142.6458,-34 142.6458,-34"></path><polygon fill="#333333" fill-opacity="0.600000" stroke="#333333" stroke-width="2" stroke-opacity="0.600000" points="142.6458,-37.5001 152.6458,-34 142.6457,-30.5001 142.6458,-37.5001"></polygon></g></g></svg>