<?xml version="1.0" encoding="UTF-8" standalone="no"?><!-- Generated by graphviz version 2.40.1 (20161225.0304)
 --><!-- Title: ndiag Pages: 1 --><svg width="243pt" height="101pt" viewBox="0.00 0.00 243.46 101.00" xmlns="http://www.w3.org/2000/svg" xmlns:xlink="http://www.w3.org/1999/xlink"><g id="graph0" class="graph" transform="scale(1 1) rotate(0) translate(4 97)"><title>ndiag</title><polygon fill="#ffffff" stroke="transparent" points="-4,4 -4,-97 239.4628,-97 239.4628,4 -4,4"></polygon><g id="clust2" class="cluster"><title>cluster_Focusrite</title><polygon fill="none" stroke="#000000" stroke-width="2" points="141,-8 141,-85 227.4628,-85 227.4628,-8 141,-8"></polygon><text text-anchor="middle" x="184.2314" y="-68.4" font-family="Arial" font-size="14.00" fill="#000000">Focusrite</text></g><g id="clust1" class="cluster"><title>cluster_DM1 DYNAMITE</title><polygon fill="none" stroke="#000000" stroke-width="2" points="0,-8 0,-85 121,-85 121,-8 0,-8"></polygon><text text-anchor="middle" x="60.5" y="-68.4" font-family="Arial" font-size="14.00" fill="#000000">DM1 DYNAMITE</text></g><!-- dm1 dynamite:xlr --><g id="node1" class="node"><title>dm1 dynamite:xlr</title><path fill="#ffffff" stroke="#4b75b9" stroke-width="3" d="M75,-52C75,-52 45,-52 45,-52 39,-52 33,-46 33,-40 33,-40 33,-28 33,-28 33,-22 39,-16 45,-16 45,-16 75,-16 75,-16 81,-16 87,-22 87,-28 87,-28 87,-40 87,-40 87,-46 81,-52 75,-52"></path><text text-anchor="middle" x="60" y="-29.8" font-family="Arial" font-size="14.00" fill="#333333">XLR</text></g><!-- focusrite:xlr in 1 --><g id="node2" class="node"><title>focusrite:xlr in 1</title><path fill="#ffffff" stroke="#4b75b9" stroke-width="3" d="M207.6957,-52C207.6957,-52 160.7671,-52 160.7671,-52 154.7671,-52 148.7671,-46 148.7671,-40 148.7671,-40 148.7671,-28 148.7671,-28 148.7671,-22 154.7671,-16 160.7671,-16 160.7671,-16 207.6957,-16 207.6957,-16 213.6957,-16 219.6957,-22 219.6957,-28 219.6957,-28 219.6957,-40 219.6957,-40 219.6957,-46 213.6957,-52 207.6957,-52"></path><text text-anchor="middle" x="184.2314" y="-29.8" font-family="Arial" font-size="14.00" fill="#333333">XLR In 1</text></g><!-- dm1 dynamite:xlr&#45;&gt;focusrite:xlr in 1 --><g id="edge-0" class="edge"><title>dm1 dynamite:xlr-&gt;focusrite:xlr in 1</title><path fill="none" stroke="#333333" stroke-width="2" stroke-opacity="0.600000" d="M87.2631,-34C87.2631,-34 138.999,-34 138.999,-34"></path><polygon fill="#333333" fill-opacity="0.600000" stroke="#333333" stroke-width="2" stroke-opacity="0.600000" points="138.999,-37.5001 148.999,-34 138.9989,-30.5001 138.999,-37.5001"></polygon></g></g></svg>