<?xml version="1.0" encoding="UTF-8" standalone="no"?><!-- Generated by graphviz version 2.40.1 (20161225.0304)
 --><!-- Title: ndiag Pages: 1 --><svg width="257pt" height="101pt" viewBox="0.00 0.00 256.59 101.00" xmlns="http://www.w3.org/2000/svg" xmlns:xlink="http://www.w3.org/1999/xlink"><g id="graph0" class="graph" transform="scale(1 1) rotate(0) translate(4 97)"><title>ndiag</title><polygon fill="#ffffff" stroke="transparent" points="-4,4 -4,-97 252.5946,-97 252.5946,4 -4,4"></polygon><g id="clust2" class="cluster"><title>cluster_Focusrite</title><polygon fill="none" stroke="#000000" stroke-width="2" points="139.3506,-8 139.3506,-85 240.5946,-85 240.5946,-8 139.3506,-8"></polygon><text text-anchor="middle" x="189.9726" y="-68.4" font-family="Arial" font-size="14.00" fill="#000000">Focusrite</text></g><g id="clust1" class="cluster"><title>cluster_Cantabile</title><polygon fill="none" stroke="#000000" stroke-width="2" points="8,-8 8,-85 119.3506,-85 119.3506,-8 8,-8"></polygon><text text-anchor="middle" x="63.6753" y="-68.4" font-family="Arial" font-size="14.00" fill="#000000">Cantabile</text></g><!-- cantabile:nectar 3 out --><g id="node1" class="node"><title>cantabile:nectar 3 out</title><path fill="#ffffff" stroke="#4b75b9" stroke-width="3" d="M99.5265,-52C99.5265,-52 27.8241,-52 27.8241,-52 21.8241,-52 15.8241,-46 15.8241,-40 15.8241,-40 15.8241,-28 15.8241,-28 15.8241,-22 21.8241,-16 27.8241,-16 27.8241,-16 99.5265,-16 99.5265,-16 105.5265,-16 111.5265,-22 111.5265,-28 111.5265,-28 111.5265,-40 111.5265,-40 111.5265,-46 105.5265,-52 99.5265,-52"></path><text text-anchor="middle" x="63.6753" y="-29.8" font-family="Arial" font-size="14.00" fill="#333333">Nectar 3 Out</text></g><!-- focusrite:line out 4 --><g id="node2" class="node"><title>focusrite:line out 4</title><path fill="#ffffff" stroke="#4b75b9" stroke-width="3" d="M220.717,-52C220.717,-52 159.2282,-52 159.2282,-52 153.2282,-52 147.2282,-46 147.2282,-40 147.2282,-40 147.2282,-28 147.2282,-28 147.2282,-22 153.2282,-16 159.2282,-16 159.2282,-16 220.717,-16 220.717,-16 226.717,-16 232.717,-22 232.717,-28 232.717,-28 232.717,-40 232.717,-40 232.717,-46 226.717,-52 220.717,-52"></path><text text-anchor="middle" x="189.9726" y="-29.8" font-family="Arial" font-size="14.00" fill="#333333">LINE Out 4</text></g><!-- cantabile:nectar 3 out&#45;&gt;focusrite:line out 4 --><g id="edge-0" class="edge"><title>cantabile:nectar 3 out-&gt;focusrite:line out 4</title><path fill="none" stroke="#333333" stroke-width="2" stroke-opacity="0.600000" d="M111.4229,-34C111.4229,-34 137.137,-34 137.137,-34"></path><polygon fill="#333333" fill-opacity="0.600000" stroke="#333333" stroke-width="2" stroke-opacity="0.600000" points="137.137,-37.5001 147.137,-34 137.137,-30.5001 137.137,-37.5001"></polygon></g></g></svg>