<?xml version="1.0" encoding="UTF-8" standalone="no"?><!-- Generated by graphviz version 2.40.1 (20161225.0304)
 --><!-- Title: ndiag Pages: 1 --><svg width="207pt" height="101pt" viewBox="0.00 0.00 206.78 101.00" xmlns="http://www.w3.org/2000/svg" xmlns:xlink="http://www.w3.org/1999/xlink"><g id="graph0" class="graph" transform="scale(1 1) rotate(0) translate(4 97)"><title>ndiag</title><polygon fill="#ffffff" stroke="transparent" points="-4,4 -4,-97 202.7812,-97 202.7812,4 -4,4"></polygon><g id="clust1" class="cluster"><title>cluster_TASCAM iXZ</title><polygon fill="none" stroke="#000000" stroke-width="2" points="8,-8 8,-85 190.7812,-85 190.7812,-8 8,-8"></polygon><text text-anchor="middle" x="99.3906" y="-68.4" font-family="Arial" font-size="14.00" fill="#000000">TASCAM iXZ</text></g><!-- tascam ixz:combo in --><g id="node1" class="node"><title>tascam ixz:combo in</title><path fill="#ffffff" stroke="#4b75b9" stroke-width="3" d="M80.5189,-52C80.5189,-52 28.1599,-52 28.1599,-52 22.1599,-52 16.1599,-46 16.1599,-40 16.1599,-40 16.1599,-28 16.1599,-28 16.1599,-22 22.1599,-16 28.1599,-16 28.1599,-16 80.5189,-16 80.5189,-16 86.5189,-16 92.5189,-22 92.5189,-28 92.5189,-28 92.5189,-40 92.5189,-40 92.5189,-46 86.5189,-52 80.5189,-52"></path><text text-anchor="middle" x="54.3394" y="-29.8" font-family="Arial" font-size="14.00" fill="#333333">Combo In</text></g><!-- tascam ixz:trrs --><g id="node2" class="node"><title>tascam ixz:trrs</title><path fill="#ffffff" stroke="#4b75b9" stroke-width="3" d="M170.8325,-52C170.8325,-52 140.6275,-52 140.6275,-52 134.6275,-52 128.6275,-46 128.6275,-40 128.6275,-40 128.6275,-28 128.6275,-28 128.6275,-22 134.6275,-16 140.6275,-16 140.6275,-16 170.8325,-16 170.8325,-16 176.8325,-16 182.8325,-22 182.8325,-28 182.8325,-28 182.8325,-40 182.8325,-40 182.8325,-46 176.8325,-52 170.8325,-52"></path><text text-anchor="middle" x="155.73" y="-29.8" font-family="Arial" font-size="14.00" fill="#333333">TRRS</text></g><!-- tascam ixz:combo in&#45;&gt;tascam ixz:trrs --><g id="edge-0" class="edge"><title>tascam ixz:combo in-&gt;tascam ixz:trrs</title><path fill="none" stroke="#333333" stroke-width="2" stroke-opacity="0.600000" d="M92.6708,-34C92.6708,-34 118.3966,-34 118.3966,-34"></path><polygon fill="#333333" fill-opacity="0.600000" stroke="#333333" stroke-width="2" stroke-opacity="0.600000" points="118.3966,-37.5001 128.3966,-34 118.3966,-30.5001 118.3966,-37.5001"></polygon></g></g></svg>