<?xml version="1.0" encoding="UTF-8" standalone="no"?><!-- Generated by graphviz version 2.40.1 (20161225.0304)
 --><!-- Title: ndiag Pages: 1 --><svg width="307pt" height="101pt" viewBox="0.00 0.00 307.20 101.00" xmlns="http://www.w3.org/2000/svg" xmlns:xlink="http://www.w3.org/1999/xlink"><g id="graph0" class="graph" transform="scale(1 1) rotate(0) translate(4 97)"><title>ndiag</title><polygon fill="#ffffff" stroke="transparent" points="-4,4 -4,-97 303.2048,-97 303.2048,4 -4,4"></polygon><g id="clust2" class="cluster"><title>cluster_Apple Headphone Adapter</title><polygon fill="none" stroke="#000000" stroke-width="2" points="119.1024,-8 119.1024,-85 299.2048,-85 299.2048,-8 119.1024,-8"></polygon><text text-anchor="middle" x="209.1536" y="-68.4" font-family="Arial" font-size="14.00" fill="#000000">Apple Headphone Adapter</text></g><g id="clust1" class="cluster"><title>cluster_TASCAM iXZ</title><polygon fill="none" stroke="#000000" stroke-width="2" points="0,-8 0,-85 99.1024,-85 99.1024,-8 0,-8"></polygon><text text-anchor="middle" x="49.5512" y="-68.4" font-family="Arial" font-size="14.00" fill="#000000">TASCAM iXZ</text></g><!-- tascam ixz:trrs --><g id="node1" class="node"><title>tascam ixz:trrs</title><path fill="#ffffff" stroke="#4b75b9" stroke-width="3" d="M64.1537,-52C64.1537,-52 33.9487,-52 33.9487,-52 27.9487,-52 21.9487,-46 21.9487,-40 21.9487,-40 21.9487,-28 21.9487,-28 21.9487,-22 27.9487,-16 33.9487,-16 33.9487,-16 64.1537,-16 64.1537,-16 70.1537,-16 76.1537,-22 76.1537,-28 76.1537,-28 76.1537,-40 76.1537,-40 76.1537,-46 70.1537,-52 64.1537,-52"></path><text text-anchor="middle" x="49.0512" y="-29.8" font-family="Arial" font-size="14.00" fill="#333333">TRRS</text></g><!-- apple headphone adapter:trrs --><g id="node2" class="node"><title>apple headphone adapter:trrs</title><path fill="#ffffff" stroke="#4b75b9" stroke-width="3" d="M224.2561,-52C224.2561,-52 194.0511,-52 194.0511,-52 188.0511,-52 182.0511,-46 182.0511,-40 182.0511,-40 182.0511,-28 182.0511,-28 182.0511,-22 188.0511,-16 194.0511,-16 194.0511,-16 224.2561,-16 224.2561,-16 230.2561,-16 236.2561,-22 236.2561,-28 236.2561,-28 236.2561,-40 236.2561,-40 236.2561,-46 230.2561,-52 224.2561,-52"></path><text text-anchor="middle" x="209.1536" y="-29.8" font-family="Arial" font-size="14.00" fill="#333333">TRRS</text></g><!-- tascam ixz:trrs&#45;&gt;apple headphone adapter:trrs --><g id="edge-0" class="edge"><title>tascam ixz:trrs-&gt;apple headphone adapter:trrs</title><path fill="none" stroke="#333333" stroke-width="2" stroke-opacity="0.600000" d="M76.2104,-34C76.2104,-34 171.8612,-34 171.8612,-34"></path><polygon fill="#333333" fill-opacity="0.600000" stroke="#333333" stroke-width="2" stroke-opacity="0.600000" points="171.8612,-37.5001 181.8612,-34 171.8611,-30.5001 171.8612,-37.5001"></polygon></g></g></svg>