<?xml version="1.0" encoding="UTF-8" standalone="no"?><!-- Generated by graphviz version 2.40.1 (20161225.0304)
 --><!-- Title: ndiag Pages: 1 --><svg width="227pt" height="101pt" viewBox="0.00 0.00 227.00 101.00" xmlns="http://www.w3.org/2000/svg" xmlns:xlink="http://www.w3.org/1999/xlink"><g id="graph0" class="graph" transform="scale(1 1) rotate(0) translate(4 97)"><title>ndiag</title><polygon fill="#ffffff" stroke="transparent" points="-4,4 -4,-97 223,-97 223,4 -4,4"></polygon><g id="clust2" class="cluster"><title>cluster_Focusrite</title><polygon fill="none" stroke="#000000" stroke-width="2" points="140,-8 140,-85 213,-85 213,-8 140,-8"></polygon><text text-anchor="middle" x="176.5" y="-68.4" font-family="Arial" font-size="14.00" fill="#000000">Focusrite</text></g><g id="clust1" class="cluster"><title>cluster_Windows(NUC1)</title><polygon fill="none" stroke="#000000" stroke-width="2" points="0,-8 0,-85 120,-85 120,-8 0,-8"></polygon><text text-anchor="middle" x="60" y="-68.4" font-family="Arial" font-size="14.00" fill="#000000">Windows(NUC1)</text></g><!-- windows(nuc1):usb --><g id="node1" class="node"><title>windows(nuc1):usb</title><path fill="#ffffff" stroke="#4b75b9" stroke-width="3" d="M75,-52C75,-52 45,-52 45,-52 39,-52 33,-46 33,-40 33,-40 33,-28 33,-28 33,-22 39,-16 45,-16 45,-16 75,-16 75,-16 81,-16 87,-22 87,-28 87,-28 87,-40 87,-40 87,-46 81,-52 75,-52"></path><text text-anchor="middle" x="60" y="-29.8" font-family="Arial" font-size="14.00" fill="#333333">USB</text></g><!-- focusrite:usb --><g id="node2" class="node"><title>focusrite:usb</title><path fill="#ffffff" stroke="#4b75b9" stroke-width="3" d="M191,-52C191,-52 161,-52 161,-52 155,-52 149,-46 149,-40 149,-40 149,-28 149,-28 149,-22 155,-16 161,-16 161,-16 191,-16 191,-16 197,-16 203,-22 203,-28 203,-28 203,-40 203,-40 203,-46 197,-52 191,-52"></path><text text-anchor="middle" x="176" y="-29.8" font-family="Arial" font-size="14.00" fill="#333333">USB</text></g><!-- windows(nuc1):usb&#45;&gt;focusrite:usb --><g id="edge-0" class="edge"><title>windows(nuc1):usb-&gt;focusrite:usb</title><path fill="none" stroke="#333333" stroke-width="2" stroke-opacity="0.600000" d="M87.1968,-34C87.1968,-34 138.9735,-34 138.9735,-34"></path><polygon fill="#333333" fill-opacity="0.600000" stroke="#333333" stroke-width="2" stroke-opacity="0.600000" points="138.9736,-37.5001 148.9735,-34 138.9735,-30.5001 138.9736,-37.5001"></polygon></g></g></svg>