<?xml version="1.0" encoding="UTF-8" standalone="no"?><!-- Generated by graphviz version 2.40.1 (20161225.0304)
 --><!-- Title: ndiag Pages: 1 --><svg width="241pt" height="101pt" viewBox="0.00 0.00 241.00 101.00" xmlns="http://www.w3.org/2000/svg" xmlns:xlink="http://www.w3.org/1999/xlink"><g id="graph0" class="graph" transform="scale(1 1) rotate(0) translate(4 97)"><title>ndiag</title><polygon fill="#ffffff" stroke="transparent" points="-4,4 -4,-97 237,-97 237,4 -4,4"></polygon><g id="clust2" class="cluster"><title>cluster_Babyface</title><polygon fill="none" stroke="#000000" stroke-width="2" points="153,-8 153,-85 227,-85 227,-8 153,-8"></polygon><text text-anchor="middle" x="190" y="-68.4" font-family="Arial" font-size="14.00" fill="#000000">Babyface</text></g><g id="clust1" class="cluster"><title>cluster_Windows(Desktop)</title><polygon fill="none" stroke="#000000" stroke-width="2" points="0,-8 0,-85 133,-85 133,-8 0,-8"></polygon><text text-anchor="middle" x="66.5" y="-68.4" font-family="Arial" font-size="14.00" fill="#000000">Windows(Desktop)</text></g><!-- windows(desktop):usb --><g id="node1" class="node"><title>windows(desktop):usb</title><path fill="#ffffff" stroke="#4b75b9" stroke-width="3" d="M81,-52C81,-52 51,-52 51,-52 45,-52 39,-46 39,-40 39,-40 39,-28 39,-28 39,-22 45,-16 51,-16 51,-16 81,-16 81,-16 87,-16 93,-22 93,-28 93,-28 93,-40 93,-40 93,-46 87,-52 81,-52"></path><text text-anchor="middle" x="66" y="-29.8" font-family="Arial" font-size="14.00" fill="#333333">USB</text></g><!-- babyface:usb --><g id="node2" class="node"><title>babyface:usb</title><path fill="#ffffff" stroke="#4b75b9" stroke-width="3" d="M205,-52C205,-52 175,-52 175,-52 169,-52 163,-46 163,-40 163,-40 163,-28 163,-28 163,-22 169,-16 175,-16 175,-16 205,-16 205,-16 211,-16 217,-22 217,-28 217,-28 217,-40 217,-40 217,-46 211,-52 205,-52"></path><text text-anchor="middle" x="190" y="-29.8" font-family="Arial" font-size="14.00" fill="#333333">USB</text></g><!-- windows(desktop):usb&#45;&gt;babyface:usb --><g id="edge-0" class="edge"><title>windows(desktop):usb-&gt;babyface:usb</title><path fill="none" stroke="#333333" stroke-width="2" stroke-opacity="0.600000" d="M93.2123,-34C93.2123,-34 152.8512,-34 152.8512,-34"></path><polygon fill="#333333" fill-opacity="0.600000" stroke="#333333" stroke-width="2" stroke-opacity="0.600000" points="152.8512,-37.5001 162.8512,-34 152.8511,-30.5001 152.8512,-37.5001"></polygon></g></g></svg>