<?xml version="1.0" encoding="UTF-8" standalone="no"?><!-- Generated by graphviz version 2.40.1 (20161225.0304)
 --><!-- Title: ndiag Pages: 1 --><svg width="320pt" height="101pt" viewBox="0.00 0.00 319.60 101.00" xmlns="http://www.w3.org/2000/svg" xmlns:xlink="http://www.w3.org/1999/xlink"><g id="graph0" class="graph" transform="scale(1 1) rotate(0) translate(4 97)"><title>ndiag</title><polygon fill="#ffffff" stroke="transparent" points="-4,4 -4,-97 315.5988,-97 315.5988,4 -4,4"></polygon><g id="clust2" class="cluster"><title>cluster_Apple Headphone Adapter</title><polygon fill="none" stroke="#000000" stroke-width="2" points="130.7994,-8 130.7994,-85 311.5988,-85 311.5988,-8 130.7994,-8"></polygon><text text-anchor="middle" x="221.1991" y="-68.4" font-family="Arial" font-size="14.00" fill="#000000">Apple Headphone Adapter</text></g><g id="clust1" class="cluster"><title>cluster_Apple iPhone 8</title><polygon fill="none" stroke="#000000" stroke-width="2" points="0,-8 0,-85 110.7994,-85 110.7994,-8 0,-8"></polygon><text text-anchor="middle" x="55.3997" y="-68.4" font-family="Arial" font-size="14.00" fill="#000000">Apple iPhone 8</text></g><!-- apple iphone 8:lightning --><g id="node1" class="node"><title>apple iphone 8:lightning</title><path fill="#ffffff" stroke="#4b75b9" stroke-width="3" d="M79.6994,-52C79.6994,-52 31.1,-52 31.1,-52 25.1,-52 19.1,-46 19.1,-40 19.1,-40 19.1,-28 19.1,-28 19.1,-22 25.1,-16 31.1,-16 31.1,-16 79.6994,-16 79.6994,-16 85.6994,-16 91.6994,-22 91.6994,-28 91.6994,-28 91.6994,-40 91.6994,-40 91.6994,-46 85.6994,-52 79.6994,-52"></path><text text-anchor="middle" x="55.3997" y="-29.8" font-family="Arial" font-size="14.00" fill="#333333">Lightning</text></g><!-- apple headphone adapter:lightning --><g id="node2" class="node"><title>apple headphone adapter:lightning</title><path fill="#ffffff" stroke="#4b75b9" stroke-width="3" d="M245.4988,-52C245.4988,-52 196.8994,-52 196.8994,-52 190.8994,-52 184.8994,-46 184.8994,-40 184.8994,-40 184.8994,-28 184.8994,-28 184.8994,-22 190.8994,-16 196.8994,-16 196.8994,-16 245.4988,-16 245.4988,-16 251.4988,-16 257.4988,-22 257.4988,-28 257.4988,-28 257.4988,-40 257.4988,-40 257.4988,-46 251.4988,-52 245.4988,-52"></path><text text-anchor="middle" x="221.1991" y="-29.8" font-family="Arial" font-size="14.00" fill="#333333">Lightning</text></g><!-- apple iphone 8:lightning&#45;&gt;apple headphone adapter:lightning --><g id="edge-0" class="edge"><title>apple iphone 8:lightning-&gt;apple headphone adapter:lightning</title><path fill="none" stroke="#333333" stroke-width="2" stroke-opacity="0.600000" d="M91.7851,-34C91.7851,-34 174.8986,-34 174.8986,-34"></path><polygon fill="#333333" fill-opacity="0.600000" stroke="#333333" stroke-width="2" stroke-opacity="0.600000" points="174.8986,-37.5001 184.8986,-34 174.8986,-30.5001 174.8986,-37.5001"></polygon></g></g></svg>