<?xml version="1.0" encoding="UTF-8" standalone="no"?><!-- Generated by graphviz version 2.40.1 (20161225.0304)
 --><!-- Title: ndiag Pages: 1 --><svg width="231pt" height="101pt" viewBox="0.00 0.00 230.92 101.00" xmlns="http://www.w3.org/2000/svg" xmlns:xlink="http://www.w3.org/1999/xlink"><g id="graph0" class="graph" transform="scale(1 1) rotate(0) translate(4 97)"><title>ndiag</title><polygon fill="#ffffff" stroke="transparent" points="-4,4 -4,-97 226.9228,-97 226.9228,4 -4,4"></polygon><g id="clust2" class="cluster"><title>cluster_Focusrite</title><polygon fill="none" stroke="#000000" stroke-width="2" points="8,-8 8,-85 94.4628,-85 94.4628,-8 8,-8"></polygon><text text-anchor="middle" x="51.2314" y="-68.4" font-family="Arial" font-size="14.00" fill="#000000">Focusrite</text></g><g id="clust1" class="cluster"><title>cluster_Cantabile</title><polygon fill="none" stroke="#000000" stroke-width="2" points="114.4628,-8 114.4628,-85 214.9228,-85 214.9228,-8 114.4628,-8"></polygon><text text-anchor="middle" x="164.6928" y="-68.4" font-family="Arial" font-size="14.00" fill="#000000">Cantabile</text></g><!-- cantabile:nectar 3 in --><g id="node1" class="node"><title>cantabile:nectar 3 in</title><path fill="#ffffff" stroke="#4b75b9" stroke-width="3" d="M195.1541,-52C195.1541,-52 134.2315,-52 134.2315,-52 128.2315,-52 122.2315,-46 122.2315,-40 122.2315,-40 122.2315,-28 122.2315,-28 122.2315,-22 128.2315,-16 134.2315,-16 134.2315,-16 195.1541,-16 195.1541,-16 201.1541,-16 207.1541,-22 207.1541,-28 207.1541,-28 207.1541,-40 207.1541,-40 207.1541,-46 201.1541,-52 195.1541,-52"></path><text text-anchor="middle" x="164.6928" y="-29.8" font-family="Arial" font-size="14.00" fill="#333333">Nectar 3 In</text></g><!-- focusrite:xlr in 1 --><g id="node2" class="node"><title>focusrite:xlr in 1</title><path fill="#ffffff" stroke="#4b75b9" stroke-width="3" d="M74.6957,-52C74.6957,-52 27.7671,-52 27.7671,-52 21.7671,-52 15.7671,-46 15.7671,-40 15.7671,-40 15.7671,-28 15.7671,-28 15.7671,-22 21.7671,-16 27.7671,-16 27.7671,-16 74.6957,-16 74.6957,-16 80.6957,-16 86.6957,-22 86.6957,-28 86.6957,-28 86.6957,-40 86.6957,-40 86.6957,-46 80.6957,-52 74.6957,-52"></path><text text-anchor="middle" x="51.2314" y="-29.8" font-family="Arial" font-size="14.00" fill="#333333">XLR In 1</text></g><!-- focusrite:xlr in 1&#45;&gt;cantabile:nectar 3 in --><g id="edge-0" class="edge"><title>focusrite:xlr in 1-&gt;cantabile:nectar 3 in</title><path fill="none" stroke="#333333" stroke-width="2" stroke-opacity="0.600000" d="M86.5093,-34C86.5093,-34 112.2599,-34 112.2599,-34"></path><polygon fill="#333333" fill-opacity="0.600000" stroke="#333333" stroke-width="2" stroke-opacity="0.600000" points="112.2599,-37.5001 122.2599,-34 112.2599,-30.5001 112.2599,-37.5001"></polygon></g></g></svg>