<?xml version="1.0" encoding="UTF-8" standalone="no"?><!-- Generated by graphviz version 2.40.1 (20161225.0304)
 --><!-- Title: ndiag Pages: 1 --><svg width="2952pt" height="680pt" viewBox="0.00 0.00 2952.00 680.00" xmlns="http://www.w3.org/2000/svg" xmlns:xlink="http://www.w3.org/1999/xlink"><g id="graph0" class="graph" transform="scale(1 1) rotate(0) translate(4 676)"><title>ndiag</title><polygon fill="#ffffff" stroke="transparent" points="-4,4 -4,-676 2948,-676 2948,4 -4,4"></polygon><g id="clust23" class="cluster"><title>cluster_group:playback</title><path fill="#ffffff" stroke="#1f91be" stroke-width="2" d="M1554,-8C1554,-8 1826,-8 1826,-8 1832,-8 1838,-14 1838,-20 1838,-20 1838,-113.6 1838,-113.6 1838,-119.6 1832,-125.6 1826,-125.6 1826,-125.6 1554,-125.6 1554,-125.6 1548,-125.6 1542,-119.6 1542,-113.6 1542,-113.6 1542,-20 1542,-20 1542,-14 1548,-8 1554,-8"></path><text text-anchor="middle" x="1690" y="-109" font-family="Arial" font-size="14.00" fill="#333333">Group:Playback</text></g><g id="clust25" class="cluster"><title>cluster_creative pebble</title><polygon fill="#ffffff" stroke="#333333" stroke-width="2" points="1715,-16 1715,-92.8 1830,-92.8 1830,-16 1715,-16"></polygon><text text-anchor="middle" x="1772.5" y="-76.2" font-family="Arial" font-size="14.00" fill="#333333">Creative Pebble</text></g><g id="clust24" class="cluster"><title>cluster_sony mdr-cd900st</title><polygon fill="#ffffff" stroke="#333333" stroke-width="2" points="1550,-16 1550,-92.8 1707,-92.8 1707,-16 1550,-16"></polygon><text text-anchor="middle" x="1628.5" y="-76.2" font-family="Arial" font-size="14.00" fill="#333333">SONY MDR-CD900ST</text></g><g id="clust21" class="cluster"><title>cluster_source device:game</title><path fill="#ffffff" stroke="#b2cf3e" stroke-width="2" d="M20,-226.4C20,-226.4 145,-226.4 145,-226.4 151,-226.4 157,-232.4 157,-238.4 157,-238.4 157,-332 157,-332 157,-338 151,-344 145,-344 145,-344 20,-344 20,-344 14,-344 8,-338 8,-332 8,-332 8,-238.4 8,-238.4 8,-232.4 14,-226.4 20,-226.4"></path><text text-anchor="middle" x="82.5" y="-327.4" font-family="Arial" font-size="14.00" fill="#333333">Source Device:Game</text></g><g id="clust22" class="cluster"><title>cluster_nintendo switch</title><polygon fill="#ffffff" stroke="#333333" stroke-width="2" points="32,-234.4 32,-311.2 149,-311.2 149,-234.4 32,-234.4"></polygon><text text-anchor="middle" x="90.5" y="-294.6" font-family="Arial" font-size="14.00" fill="#333333">Nintendo Switch</text></g><g id="clust18" class="cluster"><title>cluster_source device:mic</title><path fill="#ffffff" stroke="#b2cf3e" stroke-width="2" d="M1912,-226.4C1912,-226.4 2025,-226.4 2025,-226.4 2031,-226.4 2037,-232.4 2037,-238.4 2037,-238.4 2037,-449.6 2037,-449.6 2037,-455.6 2031,-461.6 2025,-461.6 2025,-461.6 1912,-461.6 1912,-461.6 1906,-461.6 1900,-455.6 1900,-449.6 1900,-449.6 1900,-238.4 1900,-238.4 1900,-232.4 1906,-226.4 1912,-226.4"></path><text text-anchor="middle" x="1968.5" y="-445" font-family="Arial" font-size="14.00" fill="#333333">Source Device:Mic</text></g><g id="clust20" class="cluster"><title>cluster_dm1 dynamite</title><polygon fill="#ffffff" stroke="#333333" stroke-width="2" points="1908,-234.4 1908,-311.2 2029,-311.2 2029,-234.4 1908,-234.4"></polygon><text text-anchor="middle" x="1968.5" y="-294.6" font-family="Arial" font-size="14.00" fill="#333333">DM1 DYNAMITE</text></g><g id="clust19" class="cluster"><title>cluster_shure sm7b</title><polygon fill="#ffffff" stroke="#333333" stroke-width="2" points="1908,-352 1908,-428.8 2013,-428.8 2013,-352 1908,-352"></polygon><text text-anchor="middle" x="1960.5" y="-412.2" font-family="Arial" font-size="14.00" fill="#333333">SHURE SM7b</text></g><g id="clust14" class="cluster"><title>cluster_group:phone1</title><path fill="#ffffff" stroke="#1f91be" stroke-width="2" d="M1554,-226.4C1554,-226.4 1880,-226.4 1880,-226.4 1886,-226.4 1892,-232.4 1892,-238.4 1892,-238.4 1892,-652 1892,-652 1892,-658 1886,-664 1880,-664 1880,-664 1554,-664 1554,-664 1548,-664 1542,-658 1542,-652 1542,-652 1542,-238.4 1542,-238.4 1542,-232.4 1548,-226.4 1554,-226.4"></path><text text-anchor="middle" x="1717" y="-647.4" font-family="Arial" font-size="14.00" fill="#333333">Group:Phone1</text></g><g id="clust17" class="cluster"><title>cluster_apple headphone adapter</title><polygon fill="#ffffff" stroke="#333333" stroke-width="2" points="1704,-469.6 1704,-546.4 1884,-546.4 1884,-469.6 1704,-469.6"></polygon><text text-anchor="middle" x="1794" y="-529.8" font-family="Arial" font-size="14.00" fill="#333333">Apple Headphone Adapter</text></g><g id="clust16" class="cluster"><title>cluster_tascam ixz</title><polygon fill="#ffffff" stroke="#333333" stroke-width="2" points="1550,-234.4 1550,-546.4 1696,-546.4 1696,-234.4 1550,-234.4"></polygon><text text-anchor="middle" x="1623" y="-529.8" font-family="Arial" font-size="14.00" fill="#333333">TASCAM iXZ</text></g><g id="clust15" class="cluster"><title>cluster_apple iphone 8</title><polygon fill="#ffffff" stroke="#333333" stroke-width="2" points="1693,-554.4 1693,-631.2 1803,-631.2 1803,-554.4 1693,-554.4"></polygon><text text-anchor="middle" x="1748" y="-614.6" font-family="Arial" font-size="14.00" fill="#333333">Apple iPhone 8</text></g><g id="clust11" class="cluster"><title>cluster_group:pc4</title><path fill="#ffffff" stroke="#1f91be" stroke-width="2" d="M2057,-133.6C2057,-133.6 2311,-133.6 2311,-133.6 2317,-133.6 2323,-139.6 2323,-145.6 2323,-145.6 2323,-332 2323,-332 2323,-338 2317,-344 2311,-344 2311,-344 2057,-344 2057,-344 2051,-344 2045,-338 2045,-332 2045,-332 2045,-145.6 2045,-145.6 2045,-139.6 2051,-133.6 2057,-133.6"></path><text text-anchor="middle" x="2184" y="-327.4" font-family="Arial" font-size="14.00" fill="#333333">Group:PC4</text></g><g id="clust13" class="cluster"><title>cluster_steinberg ur22c</title><polygon fill="#ffffff" stroke="#333333" stroke-width="2" points="2053,-234.4 2053,-311.2 2315,-311.2 2315,-234.4 2053,-234.4"></polygon><text text-anchor="middle" x="2184" y="-294.6" font-family="Arial" font-size="14.00" fill="#333333">Steinberg UR22C</text></g><g id="clust12" class="cluster"><title>cluster_mac</title><polygon fill="#ffffff" stroke="#333333" stroke-width="2" points="2245,-141.6 2245,-218.4 2315,-218.4 2315,-141.6 2245,-141.6"></polygon><text text-anchor="middle" x="2280" y="-201.8" font-family="Arial" font-size="14.00" fill="#333333">Mac</text></g><g id="clust8" class="cluster"><title>cluster_group:pc3</title><path fill="#ffffff" stroke="#1f91be" stroke-width="2" d="M2343,-133.6C2343,-133.6 2597,-133.6 2597,-133.6 2603,-133.6 2609,-139.6 2609,-145.6 2609,-145.6 2609,-332 2609,-332 2609,-338 2603,-344 2597,-344 2597,-344 2343,-344 2343,-344 2337,-344 2331,-338 2331,-332 2331,-332 2331,-145.6 2331,-145.6 2331,-139.6 2337,-133.6 2343,-133.6"></path><text text-anchor="middle" x="2470" y="-327.4" font-family="Arial" font-size="14.00" fill="#333333">Group:PC3</text></g><g id="clust10" class="cluster"><title>cluster_sound blaster</title><polygon fill="#ffffff" stroke="#333333" stroke-width="2" points="2339,-234.4 2339,-311.2 2601,-311.2 2601,-234.4 2339,-234.4"></polygon><text text-anchor="middle" x="2470" y="-294.6" font-family="Arial" font-size="14.00" fill="#333333">Sound Blaster</text></g><g id="clust9" class="cluster"><title>cluster_windows(nuc2)</title><polygon fill="#ffffff" stroke="#333333" stroke-width="2" points="2481,-141.6 2481,-218.4 2601,-218.4 2601,-141.6 2481,-141.6"></polygon><text text-anchor="middle" x="2541" y="-201.8" font-family="Arial" font-size="14.00" fill="#333333">Windows(NUC2)</text></g><g id="clust5" class="cluster"><title>cluster_group:pc2</title><path fill="#ffffff" stroke="#1f91be" stroke-width="2" d="M2629,-133.6C2629,-133.6 2924,-133.6 2924,-133.6 2930,-133.6 2936,-139.6 2936,-145.6 2936,-145.6 2936,-332 2936,-332 2936,-338 2930,-344 2924,-344 2924,-344 2629,-344 2629,-344 2623,-344 2617,-338 2617,-332 2617,-332 2617,-145.6 2617,-145.6 2617,-139.6 2623,-133.6 2629,-133.6"></path><text text-anchor="middle" x="2776.5" y="-327.4" font-family="Arial" font-size="14.00" fill="#333333">Group:PC2</text></g><g id="clust7" class="cluster"><title>cluster_babyface</title><polygon fill="#ffffff" stroke="#333333" stroke-width="2" points="2625,-234.4 2625,-311.2 2928,-311.2 2928,-234.4 2625,-234.4"></polygon><text text-anchor="middle" x="2776.5" y="-294.6" font-family="Arial" font-size="14.00" fill="#333333">Babyface</text></g><g id="clust6" class="cluster"><title>cluster_windows(desktop)</title><polygon fill="#ffffff" stroke="#333333" stroke-width="2" points="2795,-141.6 2795,-218.4 2928,-218.4 2928,-141.6 2795,-141.6"></polygon><text text-anchor="middle" x="2861.5" y="-201.8" font-family="Arial" font-size="14.00" fill="#333333">Windows(Desktop)</text></g><g id="clust1" class="cluster"><title>cluster_group:pc1</title><path fill="#ffffff" stroke="#1f91be" stroke-width="2" d="M177,-8C177,-8 1522,-8 1522,-8 1528,-8 1534,-14 1534,-20 1534,-20 1534,-332 1534,-332 1534,-338 1528,-344 1522,-344 1522,-344 177,-344 177,-344 171,-344 165,-338 165,-332 165,-332 165,-20 165,-20 165,-14 171,-8 177,-8"></path><text text-anchor="middle" x="849.5" y="-327.4" font-family="Arial" font-size="14.00" fill="#333333">Group:PC1</text></g><g id="clust4" class="cluster"><title>cluster_focusrite</title><polygon fill="#ffffff" stroke="#333333" stroke-width="2" points="173,-141.6 173,-218.4 1526,-218.4 1526,-141.6 173,-141.6"></polygon><text text-anchor="middle" x="849.5" y="-201.8" font-family="Arial" font-size="14.00" fill="#333333">Focusrite</text></g><g id="clust3" class="cluster"><title>cluster_cantabile</title><polygon fill="#ffffff" stroke="#333333" stroke-width="2" points="460,-234.4 460,-311.2 674,-311.2 674,-234.4 460,-234.4"></polygon><text text-anchor="middle" x="567" y="-294.6" font-family="Arial" font-size="14.00" fill="#333333">Cantabile</text></g><g id="clust2" class="cluster"><title>cluster_windows(nuc1)</title><polygon fill="#ffffff" stroke="#333333" stroke-width="2" points="443,-16 443,-92.8 563,-92.8 563,-16 443,-16"></polygon><text text-anchor="middle" x="503" y="-76.2" font-family="Arial" font-size="14.00" fill="#333333">Windows(NUC1)</text></g><!-- windows(nuc1):usb --><g id="node1" class="node"><title>windows(nuc1):usb</title><path fill="#ffffff" stroke="#4b75b9" stroke-width="3" d="M518,-60C518,-60 488,-60 488,-60 482,-60 476,-54 476,-48 476,-48 476,-36 476,-36 476,-30 482,-24 488,-24 488,-24 518,-24 518,-24 524,-24 530,-30 530,-36 530,-36 530,-48 530,-48 530,-54 524,-60 518,-60"></path><text text-anchor="middle" x="503" y="-37.8" font-family="Arial" font-size="14.00" fill="#333333">USB</text></g><!-- cantabile:nectar 3 in --><g id="node2" class="node"><title>cantabile:nectar 3 in</title><path fill="#ffffff" stroke="#4b75b9" stroke-width="3" d="M540.4613,-278.4C540.4613,-278.4 479.5387,-278.4 479.5387,-278.4 473.5387,-278.4 467.5387,-272.4 467.5387,-266.4 467.5387,-266.4 467.5387,-254.4 467.5387,-254.4 467.5387,-248.4 473.5387,-242.4 479.5387,-242.4 479.5387,-242.4 540.4613,-242.4 540.4613,-242.4 546.4613,-242.4 552.4613,-248.4 552.4613,-254.4 552.4613,-254.4 552.4613,-266.4 552.4613,-266.4 552.4613,-272.4 546.4613,-278.4 540.4613,-278.4"></path><text text-anchor="middle" x="510" y="-256.2" font-family="Arial" font-size="14.00" fill="#333333">Nectar 3 In</text></g><!-- cantabile:nectar 3 out --><g id="node3" class="node"><title>cantabile:nectar 3 out</title><path fill="#ffffff" stroke="#4b75b9" stroke-width="3" d="M653.8512,-278.4C653.8512,-278.4 582.1488,-278.4 582.1488,-278.4 576.1488,-278.4 570.1488,-272.4 570.1488,-266.4 570.1488,-266.4 570.1488,-254.4 570.1488,-254.4 570.1488,-248.4 576.1488,-242.4 582.1488,-242.4 582.1488,-242.4 653.8512,-242.4 653.8512,-242.4 659.8512,-242.4 665.8512,-248.4 665.8512,-254.4 665.8512,-254.4 665.8512,-266.4 665.8512,-266.4 665.8512,-272.4 659.8512,-278.4 653.8512,-278.4"></path><text text-anchor="middle" x="618" y="-256.2" font-family="Arial" font-size="14.00" fill="#333333">Nectar 3 Out</text></g><!-- focusrite:line out 3 --><g id="node9" class="node"><title>focusrite:line out 3</title><path fill="#ffffff" stroke="#4b75b9" stroke-width="3" d="M735.7444,-185.6C735.7444,-185.6 674.2556,-185.6 674.2556,-185.6 668.2556,-185.6 662.2556,-179.6 662.2556,-173.6 662.2556,-173.6 662.2556,-161.6 662.2556,-161.6 662.2556,-155.6 668.2556,-149.6 674.2556,-149.6 674.2556,-149.6 735.7444,-149.6 735.7444,-149.6 741.7444,-149.6 747.7444,-155.6 747.7444,-161.6 747.7444,-161.6 747.7444,-173.6 747.7444,-173.6 747.7444,-179.6 741.7444,-185.6 735.7444,-185.6"></path><text text-anchor="middle" x="705" y="-163.4" font-family="Arial" font-size="14.00" fill="#333333">LINE Out 3</text></g><!-- cantabile:nectar 3 out&#45;&gt;focusrite:line out 3 --><g id="edge-4" class="edge"><title>cantabile:nectar 3 out-&gt;focusrite:line out 3</title><path fill="none" stroke="#333333" stroke-width="2" stroke-opacity="0.600000" d="M653.4183,-242.3915C653.4183,-215.2506 653.4183,-167 653.4183,-167 653.4183,-167 654.2701,-167 654.2701,-167"></path><polygon fill="#333333" fill-opacity="0.600000" stroke="#333333" stroke-width="2" stroke-opacity="0.600000" points="651.936,-170.5001 661.936,-167 651.9359,-163.5001 651.936,-170.5001"></polygon></g><!-- focusrite:line out 4 --><g id="node10" class="node"><title>focusrite:line out 4</title><path fill="#ffffff" stroke="#4b75b9" stroke-width="3" d="M357.7444,-185.6C357.7444,-185.6 296.2556,-185.6 296.2556,-185.6 290.2556,-185.6 284.2556,-179.6 284.2556,-173.6 284.2556,-173.6 284.2556,-161.6 284.2556,-161.6 284.2556,-155.6 290.2556,-149.6 296.2556,-149.6 296.2556,-149.6 357.7444,-149.6 357.7444,-149.6 363.7444,-149.6 369.7444,-155.6 369.7444,-161.6 369.7444,-161.6 369.7444,-173.6 369.7444,-173.6 369.7444,-179.6 363.7444,-185.6 357.7444,-185.6"></path><text text-anchor="middle" x="327" y="-163.4" font-family="Arial" font-size="14.00" fill="#333333">LINE Out 4</text></g><!-- cantabile:nectar 3 out&#45;&gt;focusrite:line out 4 --><g id="edge-5" class="edge"><title>cantabile:nectar 3 out-&gt;focusrite:line out 4</title><path fill="none" stroke="#333333" stroke-width="2" stroke-opacity="0.600000" d="M619.7473,-242.394C619.7473,-234.0709 619.7473,-226 619.7473,-226 619.7473,-226 341.2073,-226 341.2073,-226 341.2073,-226 341.2073,-195.758 341.2073,-195.758"></path><polygon fill="#333333" fill-opacity="0.600000" stroke="#333333" stroke-width="2" stroke-opacity="0.600000" points="344.7074,-195.758 341.2073,-185.758 337.7074,-195.758 344.7074,-195.758"></polygon></g><!-- focusrite:line out 5/6 --><g id="node11" class="node"><title>focusrite:line out 5/6</title><path fill="#ffffff" stroke="#4b75b9" stroke-width="3" d="M1058.4172,-185.6C1058.4172,-185.6 985.5828,-185.6 985.5828,-185.6 979.5828,-185.6 973.5828,-179.6 973.5828,-173.6 973.5828,-173.6 973.5828,-161.6 973.5828,-161.6 973.5828,-155.6 979.5828,-149.6 985.5828,-149.6 985.5828,-149.6 1058.4172,-149.6 1058.4172,-149.6 1064.4172,-149.6 1070.4172,-155.6 1070.4172,-161.6 1070.4172,-161.6 1070.4172,-173.6 1070.4172,-173.6 1070.4172,-179.6 1064.4172,-185.6 1058.4172,-185.6"></path><text text-anchor="middle" x="1022" y="-163.4" font-family="Arial" font-size="14.00" fill="#333333">LINE Out 5/6</text></g><!-- cantabile:nectar 3 out&#45;&gt;focusrite:line out 5/6 --><g id="edge-6" class="edge"><title>cantabile:nectar 3 out-&gt;focusrite:line out 5/6</title><path fill="none" stroke="#333333" stroke-width="2" stroke-opacity="0.600000" d="M665.7878,-251C775.9095,-251 1038.1529,-251 1038.1529,-251 1038.1529,-251 1038.1529,-195.6966 1038.1529,-195.6966"></path><polygon fill="#333333" fill-opacity="0.600000" stroke="#333333" stroke-width="2" stroke-opacity="0.600000" points="1041.653,-195.6965 1038.1529,-185.6966 1034.653,-195.6966 1041.653,-195.6965"></polygon></g><!-- focusrite:adat out 1&#45;8 --><g id="node15" class="node"><title>focusrite:adat out 1-8</title><path fill="#ffffff" stroke="#4b75b9" stroke-width="3" d="M1179.9032,-185.6C1179.9032,-185.6 1100.0968,-185.6 1100.0968,-185.6 1094.0968,-185.6 1088.0968,-179.6 1088.0968,-173.6 1088.0968,-173.6 1088.0968,-161.6 1088.0968,-161.6 1088.0968,-155.6 1094.0968,-149.6 1100.0968,-149.6 1100.0968,-149.6 1179.9032,-149.6 1179.9032,-149.6 1185.9032,-149.6 1191.9032,-155.6 1191.9032,-161.6 1191.9032,-161.6 1191.9032,-173.6 1191.9032,-173.6 1191.9032,-179.6 1185.9032,-185.6 1179.9032,-185.6"></path><text text-anchor="middle" x="1140" y="-163.4" font-family="Arial" font-size="14.00" fill="#333333">ADAT Out 1-8</text></g><!-- cantabile:nectar 3 out&#45;&gt;focusrite:adat out 1&#45;8 --><g id="edge-2" class="edge"><title>cantabile:nectar 3 out-&gt;focusrite:adat out 1-8</title><path fill="none" stroke="#333333" stroke-width="2" stroke-opacity="0.600000" d="M665.8608,-260C797.852,-260 1157.3172,-260 1157.3172,-260 1157.3172,-260 1157.3172,-195.8553 1157.3172,-195.8553"></path><polygon fill="#333333" fill-opacity="0.600000" stroke="#333333" stroke-width="2" stroke-opacity="0.600000" points="1160.8173,-195.8552 1157.3172,-185.8553 1153.8173,-195.8553 1160.8173,-195.8552"></polygon></g><!-- focusrite:line out 6 --><g id="node16" class="node"><title>focusrite:line out 6</title><path fill="#ffffff" stroke="#4b75b9" stroke-width="3" d="M254.7444,-185.6C254.7444,-185.6 193.2556,-185.6 193.2556,-185.6 187.2556,-185.6 181.2556,-179.6 181.2556,-173.6 181.2556,-173.6 181.2556,-161.6 181.2556,-161.6 181.2556,-155.6 187.2556,-149.6 193.2556,-149.6 193.2556,-149.6 254.7444,-149.6 254.7444,-149.6 260.7444,-149.6 266.7444,-155.6 266.7444,-161.6 266.7444,-161.6 266.7444,-173.6 266.7444,-173.6 266.7444,-179.6 260.7444,-185.6 254.7444,-185.6"></path><text text-anchor="middle" x="224" y="-163.4" font-family="Arial" font-size="14.00" fill="#333333">LINE Out 6</text></g><!-- cantabile:nectar 3 out&#45;&gt;focusrite:line out 6 --><g id="edge-7" class="edge"><title>cantabile:nectar 3 out-&gt;focusrite:line out 6</title><path fill="none" stroke="#333333" stroke-width="2" stroke-opacity="0.600000" d="M595.036,-242.2531C595.036,-236.6871 595.036,-232 595.036,-232 595.036,-232 224,-232 224,-232 224,-232 224,-195.8822 224,-195.8822"></path><polygon fill="#333333" fill-opacity="0.600000" stroke="#333333" stroke-width="2" stroke-opacity="0.600000" points="227.5001,-195.8822 224,-185.8822 220.5001,-195.8822 227.5001,-195.8822"></polygon></g><!-- focusrite:usb --><g id="node4" class="node"><title>focusrite:usb</title><path fill="#ffffff" stroke="#4b75b9" stroke-width="3" d="M518,-185.6C518,-185.6 488,-185.6 488,-185.6 482,-185.6 476,-179.6 476,-173.6 476,-173.6 476,-161.6 476,-161.6 476,-155.6 482,-149.6 488,-149.6 488,-149.6 518,-149.6 518,-149.6 524,-149.6 530,-155.6 530,-161.6 530,-161.6 530,-173.6 530,-173.6 530,-179.6 524,-185.6 518,-185.6"></path><text text-anchor="middle" x="503" y="-163.4" font-family="Arial" font-size="14.00" fill="#333333">USB</text></g><!-- focusrite:usb&#45;&gt;windows(nuc1):usb --><g id="edge-8" class="edge"><title>focusrite:usb-&gt;windows(nuc1):usb</title><path fill="none" stroke="#333333" stroke-width="2" stroke-opacity="0.600000" d="M503,-139.3367C503,-139.3367 503,-70.2854 503,-70.2854"></path><polygon fill="#333333" fill-opacity="0.600000" stroke="#333333" stroke-width="2" stroke-opacity="0.600000" points="506.5,-70.2854 503,-60.2854 499.5,-70.2854 506.5,-70.2854"></polygon><polygon fill="#333333" fill-opacity="0.600000" stroke="#333333" stroke-width="2" stroke-opacity="0.600000" points="499.5,-139.3367 503,-149.3367 506.5,-139.3367 499.5,-139.3367"></polygon></g><!-- focusrite:xlr in 1 --><g id="node5" class="node"><title>focusrite:xlr in 1</title><path fill="#ffffff" stroke="#4b75b9" stroke-width="3" d="M446.4643,-185.6C446.4643,-185.6 399.5357,-185.6 399.5357,-185.6 393.5357,-185.6 387.5357,-179.6 387.5357,-173.6 387.5357,-173.6 387.5357,-161.6 387.5357,-161.6 387.5357,-155.6 393.5357,-149.6 399.5357,-149.6 399.5357,-149.6 446.4643,-149.6 446.4643,-149.6 452.4643,-149.6 458.4643,-155.6 458.4643,-161.6 458.4643,-161.6 458.4643,-173.6 458.4643,-173.6 458.4643,-179.6 452.4643,-185.6 446.4643,-185.6"></path><text text-anchor="middle" x="423" y="-163.4" font-family="Arial" font-size="14.00" fill="#333333">XLR In 1</text></g><!-- focusrite:xlr in 1&#45;&gt;cantabile:nectar 3 in --><g id="edge-3" class="edge"><title>focusrite:xlr in 1-&gt;cantabile:nectar 3 in</title><path fill="none" stroke="#333333" stroke-width="2" stroke-opacity="0.600000" d="M458.2678,-167C465.9765,-167 471.885,-167 471.885,-167 471.885,-167 471.885,-232.3915 471.885,-232.3915"></path><polygon fill="#333333" fill-opacity="0.600000" stroke="#333333" stroke-width="2" stroke-opacity="0.600000" points="468.3851,-232.3915 471.885,-242.3915 475.3851,-232.3916 468.3851,-232.3915"></polygon></g><!-- focusrite:line in 3/4 --><g id="node6" class="node"><title>focusrite:line in 3/4</title><path fill="#ffffff" stroke="#4b75b9" stroke-width="3" d="M840.0266,-185.6C840.0266,-185.6 777.9734,-185.6 777.9734,-185.6 771.9734,-185.6 765.9734,-179.6 765.9734,-173.6 765.9734,-173.6 765.9734,-161.6 765.9734,-161.6 765.9734,-155.6 771.9734,-149.6 777.9734,-149.6 777.9734,-149.6 840.0266,-149.6 840.0266,-149.6 846.0266,-149.6 852.0266,-155.6 852.0266,-161.6 852.0266,-161.6 852.0266,-173.6 852.0266,-173.6 852.0266,-179.6 846.0266,-185.6 840.0266,-185.6"></path><text text-anchor="middle" x="809" y="-163.4" font-family="Arial" font-size="14.00" fill="#333333">LINE In 3/4</text></g><!-- focusrite:line in 6 --><g id="node7" class="node"><title>focusrite:line in 6</title><path fill="#ffffff" stroke="#4b75b9" stroke-width="3" d="M1272.3542,-185.6C1272.3542,-185.6 1221.6458,-185.6 1221.6458,-185.6 1215.6458,-185.6 1209.6458,-179.6 1209.6458,-173.6 1209.6458,-173.6 1209.6458,-161.6 1209.6458,-161.6 1209.6458,-155.6 1215.6458,-149.6 1221.6458,-149.6 1221.6458,-149.6 1272.3542,-149.6 1272.3542,-149.6 1278.3542,-149.6 1284.3542,-155.6 1284.3542,-161.6 1284.3542,-161.6 1284.3542,-173.6 1284.3542,-173.6 1284.3542,-179.6 1278.3542,-185.6 1272.3542,-185.6"></path><text text-anchor="middle" x="1247" y="-163.4" font-family="Arial" font-size="14.00" fill="#333333">LINE In 6</text></g><!-- focusrite:line in 7/8 --><g id="node8" class="node"><title>focusrite:line in 7/8</title><path fill="#ffffff" stroke="#4b75b9" stroke-width="3" d="M944.0266,-185.6C944.0266,-185.6 881.9734,-185.6 881.9734,-185.6 875.9734,-185.6 869.9734,-179.6 869.9734,-173.6 869.9734,-173.6 869.9734,-161.6 869.9734,-161.6 869.9734,-155.6 875.9734,-149.6 881.9734,-149.6 881.9734,-149.6 944.0266,-149.6 944.0266,-149.6 950.0266,-149.6 956.0266,-155.6 956.0266,-161.6 956.0266,-161.6 956.0266,-173.6 956.0266,-173.6 956.0266,-179.6 950.0266,-185.6 944.0266,-185.6"></path><text text-anchor="middle" x="913" y="-163.4" font-family="Arial" font-size="14.00" fill="#333333">LINE In 7/8</text></g><!-- steinberg ur22c:xlr in 1 --><g id="node27" class="node"><title>steinberg ur22c:xlr in 1</title><path fill="#ffffff" stroke="#4b75b9" stroke-width="3" d="M2119.4643,-278.4C2119.4643,-278.4 2072.5357,-278.4 2072.5357,-278.4 2066.5357,-278.4 2060.5357,-272.4 2060.5357,-266.4 2060.5357,-266.4 2060.5357,-254.4 2060.5357,-254.4 2060.5357,-248.4 2066.5357,-242.4 2072.5357,-242.4 2072.5357,-242.4 2119.4643,-242.4 2119.4643,-242.4 2125.4643,-242.4 2131.4643,-248.4 2131.4643,-254.4 2131.4643,-254.4 2131.4643,-266.4 2131.4643,-266.4 2131.4643,-272.4 2125.4643,-278.4 2119.4643,-278.4"></path><text text-anchor="middle" x="2096" y="-256.2" font-family="Arial" font-size="14.00" fill="#333333">XLR In 1</text></g><!-- focusrite:line out 3&#45;&gt;steinberg ur22c:xlr in 1 --><g id="edge-16" class="edge"><title>focusrite:line out 3-&gt;steinberg ur22c:xlr in 1</title><path fill="none" stroke="#333333" stroke-width="2" stroke-opacity="0.600000" d="M706.6487,-185.6224C706.6487,-199.3832 706.6487,-216 706.6487,-216 706.6487,-216 2096,-216 2096,-216 2096,-216 2096,-232.3408 2096,-232.3408"></path><polygon fill="#333333" fill-opacity="0.600000" stroke="#333333" stroke-width="2" stroke-opacity="0.600000" points="2092.5001,-232.3408 2096,-242.3408 2099.5001,-232.3409 2092.5001,-232.3408"></polygon></g><!-- tascam ixz:combo in --><g id="node31" class="node"><title>tascam ixz:combo in</title><path fill="#ffffff" stroke="#4b75b9" stroke-width="3" d="M1636.1795,-513.6C1636.1795,-513.6 1583.8205,-513.6 1583.8205,-513.6 1577.8205,-513.6 1571.8205,-507.6 1571.8205,-501.6 1571.8205,-501.6 1571.8205,-489.6 1571.8205,-489.6 1571.8205,-483.6 1577.8205,-477.6 1583.8205,-477.6 1583.8205,-477.6 1636.1795,-477.6 1636.1795,-477.6 1642.1795,-477.6 1648.1795,-483.6 1648.1795,-489.6 1648.1795,-489.6 1648.1795,-501.6 1648.1795,-501.6 1648.1795,-507.6 1642.1795,-513.6 1636.1795,-513.6"></path><text text-anchor="middle" x="1610" y="-491.4" font-family="Arial" font-size="14.00" fill="#333333">Combo In</text></g><!-- focusrite:line out 4&#45;&gt;tascam ixz:combo in --><g id="edge-18" class="edge"><title>focusrite:line out 4-&gt;tascam ixz:combo in</title><path fill="none" stroke="#333333" stroke-width="2" stroke-opacity="0.600000" d="M312.7927,-185.6688C312.7927,-254.3046 312.7927,-495 312.7927,-495 312.7927,-495 1561.5291,-495 1561.5291,-495"></path><polygon fill="#333333" fill-opacity="0.600000" stroke="#333333" stroke-width="2" stroke-opacity="0.600000" points="1561.5291,-498.5001 1571.5291,-495 1561.5291,-491.5001 1561.5291,-498.5001"></polygon></g><!-- sound blaster:stereo in --><g id="node23" class="node"><title>sound blaster:stereo in</title><path fill="#ffffff" stroke="#4b75b9" stroke-width="3" d="M2509.2997,-278.4C2509.2997,-278.4 2460.7003,-278.4 2460.7003,-278.4 2454.7003,-278.4 2448.7003,-272.4 2448.7003,-266.4 2448.7003,-266.4 2448.7003,-254.4 2448.7003,-254.4 2448.7003,-248.4 2454.7003,-242.4 2460.7003,-242.4 2460.7003,-242.4 2509.2997,-242.4 2509.2997,-242.4 2515.2997,-242.4 2521.2997,-248.4 2521.2997,-254.4 2521.2997,-254.4 2521.2997,-266.4 2521.2997,-266.4 2521.2997,-272.4 2515.2997,-278.4 2509.2997,-278.4"></path><text text-anchor="middle" x="2485" y="-256.2" font-family="Arial" font-size="14.00" fill="#333333">Stereo In</text></g><!-- focusrite:line out 5/6&#45;&gt;sound blaster:stereo in --><g id="edge-14" class="edge"><title>focusrite:line out 5/6-&gt;sound blaster:stereo in</title><path fill="none" stroke="#333333" stroke-width="2" stroke-opacity="0.600000" d="M1005.8471,-185.9003C1005.8471,-195.7906 1005.8471,-206 1005.8471,-206 1005.8471,-206 2485,-206 2485,-206 2485,-206 2485,-232.2856 2485,-232.2856"></path><polygon fill="#333333" fill-opacity="0.600000" stroke="#333333" stroke-width="2" stroke-opacity="0.600000" points="2481.5001,-232.2856 2485,-242.2856 2488.5001,-232.2856 2481.5001,-232.2856"></polygon></g><!-- focusrite:line out 7/8 --><g id="node12" class="node"><title>focusrite:line out 7/8</title><path fill="#ffffff" stroke="#4b75b9" stroke-width="3" d="M632.4172,-185.6C632.4172,-185.6 559.5828,-185.6 559.5828,-185.6 553.5828,-185.6 547.5828,-179.6 547.5828,-173.6 547.5828,-173.6 547.5828,-161.6 547.5828,-161.6 547.5828,-155.6 553.5828,-149.6 559.5828,-149.6 559.5828,-149.6 632.4172,-149.6 632.4172,-149.6 638.4172,-149.6 644.4172,-155.6 644.4172,-161.6 644.4172,-161.6 644.4172,-173.6 644.4172,-173.6 644.4172,-179.6 638.4172,-185.6 632.4172,-185.6"></path><text text-anchor="middle" x="596" y="-163.4" font-family="Arial" font-size="14.00" fill="#333333">LINE Out 7/8</text></g><!-- sony mdr&#45;cd900st:l/r --><g id="node38" class="node"><title>sony mdr-cd900st:l/r</title><path fill="#ffffff" stroke="#4b75b9" stroke-width="3" d="M1600,-60C1600,-60 1570,-60 1570,-60 1564,-60 1558,-54 1558,-48 1558,-48 1558,-36 1558,-36 1558,-30 1564,-24 1570,-24 1570,-24 1600,-24 1600,-24 1606,-24 1612,-30 1612,-36 1612,-36 1612,-48 1612,-48 1612,-54 1606,-60 1600,-60"></path><text text-anchor="middle" x="1585" y="-37.8" font-family="Arial" font-size="14.00" fill="#333333">L/R</text></g><!-- focusrite:line out 7/8&#45;&gt;sony mdr&#45;cd900st:l/r --><g id="edge-25" class="edge"><title>focusrite:line out 7/8-&gt;sony mdr-cd900st:l/r</title><path fill="none" stroke="#333333" stroke-width="2" stroke-opacity="0.600000" d="M596,-149.3367C596,-114.5018 596,-42 596,-42 596,-42 1547.7756,-42 1547.7756,-42"></path><polygon fill="#333333" fill-opacity="0.600000" stroke="#333333" stroke-width="2" stroke-opacity="0.600000" points="1547.7756,-45.5001 1557.7756,-42 1547.7755,-38.5001 1547.7756,-45.5001"></polygon></g><!-- focusrite:line out 9/10 --><g id="node13" class="node"><title>focusrite:line out 9/10</title><path fill="#ffffff" stroke="#4b75b9" stroke-width="3" d="M1506.2002,-185.6C1506.2002,-185.6 1425.7998,-185.6 1425.7998,-185.6 1419.7998,-185.6 1413.7998,-179.6 1413.7998,-173.6 1413.7998,-173.6 1413.7998,-161.6 1413.7998,-161.6 1413.7998,-155.6 1419.7998,-149.6 1425.7998,-149.6 1425.7998,-149.6 1506.2002,-149.6 1506.2002,-149.6 1512.2002,-149.6 1518.2002,-155.6 1518.2002,-161.6 1518.2002,-161.6 1518.2002,-173.6 1518.2002,-173.6 1518.2002,-179.6 1512.2002,-185.6 1506.2002,-185.6"></path><text text-anchor="middle" x="1466" y="-163.4" font-family="Arial" font-size="14.00" fill="#333333">LINE Out 9/10</text></g><!-- creative pebble:l/r --><g id="node39" class="node"><title>creative pebble:l/r</title><path fill="#ffffff" stroke="#4b75b9" stroke-width="3" d="M1765,-60C1765,-60 1735,-60 1735,-60 1729,-60 1723,-54 1723,-48 1723,-48 1723,-36 1723,-36 1723,-30 1729,-24 1735,-24 1735,-24 1765,-24 1765,-24 1771,-24 1777,-30 1777,-36 1777,-36 1777,-48 1777,-48 1777,-54 1771,-60 1765,-60"></path><text text-anchor="middle" x="1750" y="-37.8" font-family="Arial" font-size="14.00" fill="#333333">L/R</text></g><!-- focusrite:line out 9/10&#45;&gt;creative pebble:l/r --><g id="edge-26" class="edge"><title>focusrite:line out 9/10-&gt;creative pebble:l/r</title><path fill="none" stroke="#333333" stroke-width="2" stroke-opacity="0.600000" d="M1518.4209,-167C1600.4811,-167 1750,-167 1750,-167 1750,-167 1750,-70.1761 1750,-70.1761"></path><polygon fill="#333333" fill-opacity="0.600000" stroke="#333333" stroke-width="2" stroke-opacity="0.600000" points="1753.5001,-70.176 1750,-60.1761 1746.5001,-70.1761 1753.5001,-70.176"></polygon></g><!-- focusrite:adat in 1&#45;8 --><g id="node14" class="node"><title>focusrite:adat in 1-8</title><path fill="#ffffff" stroke="#4b75b9" stroke-width="3" d="M1383.5126,-185.6C1383.5126,-185.6 1314.4874,-185.6 1314.4874,-185.6 1308.4874,-185.6 1302.4874,-179.6 1302.4874,-173.6 1302.4874,-173.6 1302.4874,-161.6 1302.4874,-161.6 1302.4874,-155.6 1308.4874,-149.6 1314.4874,-149.6 1314.4874,-149.6 1383.5126,-149.6 1383.5126,-149.6 1389.5126,-149.6 1395.5126,-155.6 1395.5126,-161.6 1395.5126,-161.6 1395.5126,-173.6 1395.5126,-173.6 1395.5126,-179.6 1389.5126,-185.6 1383.5126,-185.6"></path><text text-anchor="middle" x="1349" y="-163.4" font-family="Arial" font-size="14.00" fill="#333333">ADAT In 1-8</text></g><!-- babyface:adat in 1&#45;8 --><g id="node18" class="node"><title>babyface:adat in 1-8</title><path fill="#ffffff" stroke="#4b75b9" stroke-width="3" d="M2714.5126,-278.4C2714.5126,-278.4 2645.4874,-278.4 2645.4874,-278.4 2639.4874,-278.4 2633.4874,-272.4 2633.4874,-266.4 2633.4874,-266.4 2633.4874,-254.4 2633.4874,-254.4 2633.4874,-248.4 2639.4874,-242.4 2645.4874,-242.4 2645.4874,-242.4 2714.5126,-242.4 2714.5126,-242.4 2720.5126,-242.4 2726.5126,-248.4 2726.5126,-254.4 2726.5126,-254.4 2726.5126,-266.4 2726.5126,-266.4 2726.5126,-272.4 2720.5126,-278.4 2714.5126,-278.4"></path><text text-anchor="middle" x="2680" y="-256.2" font-family="Arial" font-size="14.00" fill="#333333">ADAT In 1-8</text></g><!-- focusrite:adat out 1&#45;8&#45;&gt;babyface:adat in 1&#45;8 --><g id="edge-10" class="edge"><title>focusrite:adat out 1-8-&gt;babyface:adat in 1-8</title><path fill="none" stroke="#333333" stroke-width="2" stroke-opacity="0.600000" d="M1122.6828,-185.8636C1122.6828,-193.6611 1122.6828,-201 1122.6828,-201 1122.6828,-201 2680,-201 2680,-201 2680,-201 2680,-232.2553 2680,-232.2553"></path><polygon fill="#333333" fill-opacity="0.600000" stroke="#333333" stroke-width="2" stroke-opacity="0.600000" points="2676.5001,-232.2552 2680,-242.2553 2683.5001,-232.2553 2676.5001,-232.2552"></polygon></g><!-- windows(desktop):usb --><g id="node17" class="node"><title>windows(desktop):usb</title><path fill="#ffffff" stroke="#4b75b9" stroke-width="3" d="M2908,-185.6C2908,-185.6 2878,-185.6 2878,-185.6 2872,-185.6 2866,-179.6 2866,-173.6 2866,-173.6 2866,-161.6 2866,-161.6 2866,-155.6 2872,-149.6 2878,-149.6 2878,-149.6 2908,-149.6 2908,-149.6 2914,-149.6 2920,-155.6 2920,-161.6 2920,-161.6 2920,-173.6 2920,-173.6 2920,-179.6 2914,-185.6 2908,-185.6"></path><text text-anchor="middle" x="2893" y="-163.4" font-family="Arial" font-size="14.00" fill="#333333">USB</text></g><!-- babyface:adat out 1&#45;8 --><g id="node19" class="node"><title>babyface:adat out 1-8</title><path fill="#ffffff" stroke="#4b75b9" stroke-width="3" d="M2835.9032,-278.4C2835.9032,-278.4 2756.0968,-278.4 2756.0968,-278.4 2750.0968,-278.4 2744.0968,-272.4 2744.0968,-266.4 2744.0968,-266.4 2744.0968,-254.4 2744.0968,-254.4 2744.0968,-248.4 2750.0968,-242.4 2756.0968,-242.4 2756.0968,-242.4 2835.9032,-242.4 2835.9032,-242.4 2841.9032,-242.4 2847.9032,-248.4 2847.9032,-254.4 2847.9032,-254.4 2847.9032,-266.4 2847.9032,-266.4 2847.9032,-272.4 2841.9032,-278.4 2835.9032,-278.4"></path><text text-anchor="middle" x="2796" y="-256.2" font-family="Arial" font-size="14.00" fill="#333333">ADAT Out 1-8</text></g><!-- babyface:adat out 1&#45;8&#45;&gt;focusrite:adat in 1&#45;8 --><g id="edge-11" class="edge"><title>babyface:adat out 1-8-&gt;focusrite:adat in 1-8</title><path fill="none" stroke="#333333" stroke-width="2" stroke-opacity="0.600000" d="M2796,-242.2703C2796,-221.4112 2796,-190 2796,-190 2796,-190 1349,-190 1349,-190 1349,-190 1349,-189.5681 1349,-189.5681"></path><polygon fill="#333333" fill-opacity="0.600000" stroke="#333333" stroke-width="2" stroke-opacity="0.600000" points="1352.5003,-195.681 1349,-185.6811 1345.5003,-195.6811 1352.5003,-195.681"></polygon></g><!-- babyface:usb --><g id="node20" class="node"><title>babyface:usb</title><path fill="#ffffff" stroke="#4b75b9" stroke-width="3" d="M2908,-278.4C2908,-278.4 2878,-278.4 2878,-278.4 2872,-278.4 2866,-272.4 2866,-266.4 2866,-266.4 2866,-254.4 2866,-254.4 2866,-248.4 2872,-242.4 2878,-242.4 2878,-242.4 2908,-242.4 2908,-242.4 2914,-242.4 2920,-248.4 2920,-254.4 2920,-254.4 2920,-266.4 2920,-266.4 2920,-272.4 2914,-278.4 2908,-278.4"></path><text text-anchor="middle" x="2893" y="-256.2" font-family="Arial" font-size="14.00" fill="#333333">USB</text></g><!-- babyface:usb&#45;&gt;windows(desktop):usb --><g id="edge-9" class="edge"><title>babyface:usb-&gt;windows(desktop):usb</title><path fill="none" stroke="#333333" stroke-width="2" stroke-opacity="0.600000" d="M2893,-232.0657C2893,-232.0657 2893,-195.8962 2893,-195.8962"></path><polygon fill="#333333" fill-opacity="0.600000" stroke="#333333" stroke-width="2" stroke-opacity="0.600000" points="2896.5,-195.8962 2893,-185.8962 2889.5,-195.8962 2896.5,-195.8962"></polygon><polygon fill="#333333" fill-opacity="0.600000" stroke="#333333" stroke-width="2" stroke-opacity="0.600000" points="2889.5,-232.0657 2893,-242.0657 2896.5,-232.0657 2889.5,-232.0657"></polygon></g><!-- windows(nuc2):usb --><g id="node21" class="node"><title>windows(nuc2):usb</title><path fill="#ffffff" stroke="#4b75b9" stroke-width="3" d="M2581,-185.6C2581,-185.6 2551,-185.6 2551,-185.6 2545,-185.6 2539,-179.6 2539,-173.6 2539,-173.6 2539,-161.6 2539,-161.6 2539,-155.6 2545,-149.6 2551,-149.6 2551,-149.6 2581,-149.6 2581,-149.6 2587,-149.6 2593,-155.6 2593,-161.6 2593,-161.6 2593,-173.6 2593,-173.6 2593,-179.6 2587,-185.6 2581,-185.6"></path><text text-anchor="middle" x="2566" y="-163.4" font-family="Arial" font-size="14.00" fill="#333333">USB</text></g><!-- sound blaster:usb --><g id="node22" class="node"><title>sound blaster:usb</title><path fill="#ffffff" stroke="#4b75b9" stroke-width="3" d="M2581,-278.4C2581,-278.4 2551,-278.4 2551,-278.4 2545,-278.4 2539,-272.4 2539,-266.4 2539,-266.4 2539,-254.4 2539,-254.4 2539,-248.4 2545,-242.4 2551,-242.4 2551,-242.4 2581,-242.4 2581,-242.4 2587,-242.4 2593,-248.4 2593,-254.4 2593,-254.4 2593,-266.4 2593,-266.4 2593,-272.4 2587,-278.4 2581,-278.4"></path><text text-anchor="middle" x="2566" y="-256.2" font-family="Arial" font-size="14.00" fill="#333333">USB</text></g><!-- sound blaster:usb&#45;&gt;windows(nuc2):usb --><g id="edge-12" class="edge"><title>sound blaster:usb-&gt;windows(nuc2):usb</title><path fill="none" stroke="#333333" stroke-width="2" stroke-opacity="0.600000" d="M2566,-232.0657C2566,-232.0657 2566,-195.8962 2566,-195.8962"></path><polygon fill="#333333" fill-opacity="0.600000" stroke="#333333" stroke-width="2" stroke-opacity="0.600000" points="2569.5,-195.8962 2566,-185.8962 2562.5,-195.8962 2569.5,-195.8962"></polygon><polygon fill="#333333" fill-opacity="0.600000" stroke="#333333" stroke-width="2" stroke-opacity="0.600000" points="2562.5,-232.0657 2566,-242.0657 2569.5,-232.0657 2562.5,-232.0657"></polygon></g><!-- sound blaster:stereo out --><g id="node24" class="node"><title>sound blaster:stereo out</title><path fill="#ffffff" stroke="#4b75b9" stroke-width="3" d="M2418.6906,-278.4C2418.6906,-278.4 2359.3094,-278.4 2359.3094,-278.4 2353.3094,-278.4 2347.3094,-272.4 2347.3094,-266.4 2347.3094,-266.4 2347.3094,-254.4 2347.3094,-254.4 2347.3094,-248.4 2353.3094,-242.4 2359.3094,-242.4 2359.3094,-242.4 2418.6906,-242.4 2418.6906,-242.4 2424.6906,-242.4 2430.6906,-248.4 2430.6906,-254.4 2430.6906,-254.4 2430.6906,-266.4 2430.6906,-266.4 2430.6906,-272.4 2424.6906,-278.4 2418.6906,-278.4"></path><text text-anchor="middle" x="2389" y="-256.2" font-family="Arial" font-size="14.00" fill="#333333">Stereo Out</text></g><!-- sound blaster:stereo out&#45;&gt;focusrite:line in 3/4 --><g id="edge-13" class="edge"><title>sound blaster:stereo out-&gt;focusrite:line in 3/4</title><path fill="none" stroke="#333333" stroke-width="2" stroke-opacity="0.600000" d="M2389,-242.2858C2389,-228.187 2389,-211 2389,-211 2389,-211 823.3378,-211 823.3378,-211 823.3378,-211 823.3378,-195.754 823.3378,-195.754"></path><polygon fill="#333333" fill-opacity="0.600000" stroke="#333333" stroke-width="2" stroke-opacity="0.600000" points="826.8379,-195.754 823.3378,-185.754 819.8379,-195.7541 826.8379,-195.754"></polygon></g><!-- mac:usb --><g id="node25" class="node"><title>mac:usb</title><path fill="#ffffff" stroke="#4b75b9" stroke-width="3" d="M2295,-185.6C2295,-185.6 2265,-185.6 2265,-185.6 2259,-185.6 2253,-179.6 2253,-173.6 2253,-173.6 2253,-161.6 2253,-161.6 2253,-155.6 2259,-149.6 2265,-149.6 2265,-149.6 2295,-149.6 2295,-149.6 2301,-149.6 2307,-155.6 2307,-161.6 2307,-161.6 2307,-173.6 2307,-173.6 2307,-179.6 2301,-185.6 2295,-185.6"></path><text text-anchor="middle" x="2280" y="-163.4" font-family="Arial" font-size="14.00" fill="#333333">USB</text></g><!-- steinberg ur22c:usb --><g id="node26" class="node"><title>steinberg ur22c:usb</title><path fill="#ffffff" stroke="#4b75b9" stroke-width="3" d="M2295,-278.4C2295,-278.4 2265,-278.4 2265,-278.4 2259,-278.4 2253,-272.4 2253,-266.4 2253,-266.4 2253,-254.4 2253,-254.4 2253,-248.4 2259,-242.4 2265,-242.4 2265,-242.4 2295,-242.4 2295,-242.4 2301,-242.4 2307,-248.4 2307,-254.4 2307,-254.4 2307,-266.4 2307,-266.4 2307,-272.4 2301,-278.4 2295,-278.4"></path><text text-anchor="middle" x="2280" y="-256.2" font-family="Arial" font-size="14.00" fill="#333333">USB</text></g><!-- steinberg ur22c:usb&#45;&gt;mac:usb --><g id="edge-15" class="edge"><title>steinberg ur22c:usb-&gt;mac:usb</title><path fill="none" stroke="#333333" stroke-width="2" stroke-opacity="0.600000" d="M2280,-232.0657C2280,-232.0657 2280,-195.8962 2280,-195.8962"></path><polygon fill="#333333" fill-opacity="0.600000" stroke="#333333" stroke-width="2" stroke-opacity="0.600000" points="2283.5,-195.8962 2280,-185.8962 2276.5,-195.8962 2283.5,-195.8962"></polygon><polygon fill="#333333" fill-opacity="0.600000" stroke="#333333" stroke-width="2" stroke-opacity="0.600000" points="2276.5,-232.0657 2280,-242.0657 2283.5,-232.0657 2276.5,-232.0657"></polygon></g><!-- steinberg ur22c:line out l --><g id="node28" class="node"><title>steinberg ur22c:line out l</title><path fill="#ffffff" stroke="#4b75b9" stroke-width="3" d="M2222.7444,-278.4C2222.7444,-278.4 2161.2556,-278.4 2161.2556,-278.4 2155.2556,-278.4 2149.2556,-272.4 2149.2556,-266.4 2149.2556,-266.4 2149.2556,-254.4 2149.2556,-254.4 2149.2556,-248.4 2155.2556,-242.4 2161.2556,-242.4 2161.2556,-242.4 2222.7444,-242.4 2222.7444,-242.4 2228.7444,-242.4 2234.7444,-248.4 2234.7444,-254.4 2234.7444,-254.4 2234.7444,-266.4 2234.7444,-266.4 2234.7444,-272.4 2228.7444,-278.4 2222.7444,-278.4"></path><text text-anchor="middle" x="2192" y="-256.2" font-family="Arial" font-size="14.00" fill="#333333">LINE Out L</text></g><!-- steinberg ur22c:line out l&#45;&gt;focusrite:line in 6 --><g id="edge-17" class="edge"><title>steinberg ur22c:line out l-&gt;focusrite:line in 6</title><path fill="none" stroke="#333333" stroke-width="2" stroke-opacity="0.600000" d="M2192,-242.1825C2192,-222.8311 2192,-195 2192,-195 2192,-195 1247,-195 1247,-195 1247,-195 1247,-194.0724 1247,-194.0724"></path><polygon fill="#333333" fill-opacity="0.600000" stroke="#333333" stroke-width="2" stroke-opacity="0.600000" points="1250.5001,-195.7236 1247,-185.7236 1243.5001,-195.7237 1250.5001,-195.7236"></polygon></g><!-- apple iphone 8:lightning --><g id="node29" class="node"><title>apple iphone 8:lightning</title><path fill="#ffffff" stroke="#4b75b9" stroke-width="3" d="M1772.2997,-598.4C1772.2997,-598.4 1723.7003,-598.4 1723.7003,-598.4 1717.7003,-598.4 1711.7003,-592.4 1711.7003,-586.4 1711.7003,-586.4 1711.7003,-574.4 1711.7003,-574.4 1711.7003,-568.4 1717.7003,-562.4 1723.7003,-562.4 1723.7003,-562.4 1772.2997,-562.4 1772.2997,-562.4 1778.2997,-562.4 1784.2997,-568.4 1784.2997,-574.4 1784.2997,-574.4 1784.2997,-586.4 1784.2997,-586.4 1784.2997,-592.4 1778.2997,-598.4 1772.2997,-598.4"></path><text text-anchor="middle" x="1748" y="-576.2" font-family="Arial" font-size="14.00" fill="#333333">Lightning</text></g><!-- apple headphone adapter:lightning --><g id="node34" class="node"><title>apple headphone adapter:lightning</title><path fill="#ffffff" stroke="#4b75b9" stroke-width="3" d="M1772.2997,-513.6C1772.2997,-513.6 1723.7003,-513.6 1723.7003,-513.6 1717.7003,-513.6 1711.7003,-507.6 1711.7003,-501.6 1711.7003,-501.6 1711.7003,-489.6 1711.7003,-489.6 1711.7003,-483.6 1717.7003,-477.6 1723.7003,-477.6 1723.7003,-477.6 1772.2997,-477.6 1772.2997,-477.6 1778.2997,-477.6 1784.2997,-483.6 1784.2997,-489.6 1784.2997,-489.6 1784.2997,-501.6 1784.2997,-501.6 1784.2997,-507.6 1778.2997,-513.6 1772.2997,-513.6"></path><text text-anchor="middle" x="1748" y="-491.4" font-family="Arial" font-size="14.00" fill="#333333">Lightning</text></g><!-- apple iphone 8:lightning&#45;&gt;apple headphone adapter:lightning --><g id="edge-23" class="edge"><title>apple iphone 8:lightning-&gt;apple headphone adapter:lightning</title><path fill="none" stroke="#333333" stroke-width="2" stroke-opacity="0.600000" d="M1748,-551.9997C1748,-551.9997 1748,-523.6731 1748,-523.6731"></path><polygon fill="#333333" fill-opacity="0.600000" stroke="#333333" stroke-width="2" stroke-opacity="0.600000" points="1751.5,-523.6731 1748,-513.6731 1744.5,-523.6731 1751.5,-523.6731"></polygon><polygon fill="#333333" fill-opacity="0.600000" stroke="#333333" stroke-width="2" stroke-opacity="0.600000" points="1744.5,-551.9997 1748,-561.9997 1751.5,-551.9997 1744.5,-551.9997"></polygon></g><!-- tascam ixz:3.5mm stereo out --><g id="node30" class="node"><title>tascam ixz:3.5mm stereo out</title><path fill="#ffffff" stroke="#4b75b9" stroke-width="3" d="M1676.3581,-278.4C1676.3581,-278.4 1569.6419,-278.4 1569.6419,-278.4 1563.6419,-278.4 1557.6419,-272.4 1557.6419,-266.4 1557.6419,-266.4 1557.6419,-254.4 1557.6419,-254.4 1557.6419,-248.4 1563.6419,-242.4 1569.6419,-242.4 1569.6419,-242.4 1676.3581,-242.4 1676.3581,-242.4 1682.3581,-242.4 1688.3581,-248.4 1688.3581,-254.4 1688.3581,-254.4 1688.3581,-266.4 1688.3581,-266.4 1688.3581,-272.4 1682.3581,-278.4 1676.3581,-278.4"></path><text text-anchor="middle" x="1623" y="-256.2" font-family="Arial" font-size="14.00" fill="#333333">3.5mm Stereo Out</text></g><!-- tascam ixz:3.5mm stereo out&#45;&gt;focusrite:line in 7/8 --><g id="edge-19" class="edge"><title>tascam ixz:3.5mm stereo out-&gt;focusrite:line in 7/8</title><path fill="none" stroke="#333333" stroke-width="2" stroke-opacity="0.600000" d="M1557.7941,-269C1382.2745,-269 913,-269 913,-269 913,-269 913,-195.7283 913,-195.7283"></path><polygon fill="#333333" fill-opacity="0.600000" stroke="#333333" stroke-width="2" stroke-opacity="0.600000" points="916.5001,-195.7283 913,-185.7283 909.5001,-195.7283 916.5001,-195.7283"></polygon></g><!-- tascam ixz:trrs --><g id="node32" class="node"><title>tascam ixz:trrs</title><path fill="#ffffff" stroke="#4b75b9" stroke-width="3" d="M1638.1025,-396C1638.1025,-396 1607.8975,-396 1607.8975,-396 1601.8975,-396 1595.8975,-390 1595.8975,-384 1595.8975,-384 1595.8975,-372 1595.8975,-372 1595.8975,-366 1601.8975,-360 1607.8975,-360 1607.8975,-360 1638.1025,-360 1638.1025,-360 1644.1025,-360 1650.1025,-366 1650.1025,-372 1650.1025,-372 1650.1025,-384 1650.1025,-384 1650.1025,-390 1644.1025,-396 1638.1025,-396"></path><text text-anchor="middle" x="1623" y="-373.8" font-family="Arial" font-size="14.00" fill="#333333">TRRS</text></g><!-- tascam ixz:combo in&#45;&gt;tascam ixz:trrs --><g id="edge-21" class="edge"><title>tascam ixz:combo in-&gt;tascam ixz:trrs</title><path fill="none" stroke="#333333" stroke-width="2" stroke-opacity="0.600000" d="M1622.1441,-477.4827C1622.1441,-477.4827 1622.1441,-406.3316 1622.1441,-406.3316"></path><polygon fill="#333333" fill-opacity="0.600000" stroke="#333333" stroke-width="2" stroke-opacity="0.600000" points="1625.6442,-406.3316 1622.1441,-396.3316 1618.6442,-406.3317 1625.6442,-406.3316"></polygon></g><!-- tascam ixz:trrs&#45;&gt;tascam ixz:3.5mm stereo out --><g id="edge-20" class="edge"><title>tascam ixz:trrs-&gt;tascam ixz:3.5mm stereo out</title><path fill="none" stroke="#333333" stroke-width="2" stroke-opacity="0.600000" d="M1623,-359.8827C1623,-359.8827 1623,-288.7316 1623,-288.7316"></path><polygon fill="#333333" fill-opacity="0.600000" stroke="#333333" stroke-width="2" stroke-opacity="0.600000" points="1626.5001,-288.7316 1623,-278.7316 1619.5001,-288.7317 1626.5001,-288.7316"></polygon></g><!-- apple headphone adapter:trrs --><g id="node33" class="node"><title>apple headphone adapter:trrs</title><path fill="#ffffff" stroke="#4b75b9" stroke-width="3" d="M1844.1025,-513.6C1844.1025,-513.6 1813.8975,-513.6 1813.8975,-513.6 1807.8975,-513.6 1801.8975,-507.6 1801.8975,-501.6 1801.8975,-501.6 1801.8975,-489.6 1801.8975,-489.6 1801.8975,-483.6 1807.8975,-477.6 1813.8975,-477.6 1813.8975,-477.6 1844.1025,-477.6 1844.1025,-477.6 1850.1025,-477.6 1856.1025,-483.6 1856.1025,-489.6 1856.1025,-489.6 1856.1025,-501.6 1856.1025,-501.6 1856.1025,-507.6 1850.1025,-513.6 1844.1025,-513.6"></path><text text-anchor="middle" x="1829" y="-491.4" font-family="Arial" font-size="14.00" fill="#333333">TRRS</text></g><!-- apple headphone adapter:trrs&#45;&gt;tascam ixz:trrs --><g id="edge-22" class="edge"><title>apple headphone adapter:trrs-&gt;tascam ixz:trrs</title><path fill="none" stroke="#333333" stroke-width="2" stroke-opacity="0.600000" d="M1829,-467.4827C1829,-467.4827 1829,-378 1829,-378 1829,-378 1660.3552,-378 1660.3552,-378"></path><polygon fill="#333333" fill-opacity="0.600000" stroke="#333333" stroke-width="2" stroke-opacity="0.600000" points="1825.5001,-467.4827 1829,-477.4827 1832.5001,-467.4828 1825.5001,-467.4827"></polygon><polygon fill="#333333" fill-opacity="0.600000" stroke="#333333" stroke-width="2" stroke-opacity="0.600000" points="1660.3552,-374.5001 1650.3552,-378 1660.3552,-381.5001 1660.3552,-374.5001"></polygon></g><!-- shure sm7b:xlr out --><g id="node35" class="node"><title>shure sm7b:xlr out</title><path fill="#ffffff" stroke="#4b75b9" stroke-width="3" d="M1973.6809,-396C1973.6809,-396 1928.3191,-396 1928.3191,-396 1922.3191,-396 1916.3191,-390 1916.3191,-384 1916.3191,-384 1916.3191,-372 1916.3191,-372 1916.3191,-366 1922.3191,-360 1928.3191,-360 1928.3191,-360 1973.6809,-360 1973.6809,-360 1979.6809,-360 1985.6809,-366 1985.6809,-372 1985.6809,-372 1985.6809,-384 1985.6809,-384 1985.6809,-390 1979.6809,-396 1973.6809,-396"></path><text text-anchor="middle" x="1951" y="-373.8" font-family="Arial" font-size="14.00" fill="#333333">XLR Out</text></g><!-- dm1 dynamite:xlr --><g id="node36" class="node"><title>dm1 dynamite:xlr</title><path fill="#ffffff" stroke="#4b75b9" stroke-width="3" d="M1962,-278.4C1962,-278.4 1932,-278.4 1932,-278.4 1926,-278.4 1920,-272.4 1920,-266.4 1920,-266.4 1920,-254.4 1920,-254.4 1920,-248.4 1926,-242.4 1932,-242.4 1932,-242.4 1962,-242.4 1962,-242.4 1968,-242.4 1974,-248.4 1974,-254.4 1974,-254.4 1974,-266.4 1974,-266.4 1974,-272.4 1968,-278.4 1962,-278.4"></path><text text-anchor="middle" x="1947" y="-256.2" font-family="Arial" font-size="14.00" fill="#333333">XLR</text></g><!-- shure sm7b:xlr out&#45;&gt;dm1 dynamite:xlr --><g id="edge-0" class="edge"><title>shure sm7b:xlr out-&gt;dm1 dynamite:xlr</title><path fill="none" stroke="#333333" stroke-width="2" stroke-opacity="0.600000" d="M1947,-359.8827C1947,-359.8827 1947,-288.7316 1947,-288.7316"></path><polygon fill="#333333" fill-opacity="0.600000" stroke="#333333" stroke-width="2" stroke-opacity="0.600000" points="1950.5001,-288.7316 1947,-278.7316 1943.5001,-288.7317 1950.5001,-288.7316"></polygon></g><!-- dm1 dynamite:xlr&#45;&gt;focusrite:xlr in 1 --><g id="edge-1" class="edge"><title>dm1 dynamite:xlr-&gt;focusrite:xlr in 1</title><path fill="none" stroke="#333333" stroke-width="2" stroke-opacity="0.600000" d="M1947,-242.0841C1947,-231.7951 1947,-221 1947,-221 1947,-221 423,-221 423,-221 423,-221 423,-195.6788 423,-195.6788"></path><polygon fill="#333333" fill-opacity="0.600000" stroke="#333333" stroke-width="2" stroke-opacity="0.600000" points="426.5001,-195.6788 423,-185.6788 419.5001,-195.6788 426.5001,-195.6788"></polygon></g><!-- nintendo switch:stereo out --><g id="node37" class="node"><title>nintendo switch:stereo out</title><path fill="#ffffff" stroke="#4b75b9" stroke-width="3" d="M128.6906,-278.4C128.6906,-278.4 69.3094,-278.4 69.3094,-278.4 63.3094,-278.4 57.3094,-272.4 57.3094,-266.4 57.3094,-266.4 57.3094,-254.4 57.3094,-254.4 57.3094,-248.4 63.3094,-242.4 69.3094,-242.4 69.3094,-242.4 128.6906,-242.4 128.6906,-242.4 134.6906,-242.4 140.6906,-248.4 140.6906,-254.4 140.6906,-254.4 140.6906,-266.4 140.6906,-266.4 140.6906,-272.4 134.6906,-278.4 128.6906,-278.4"></path><text text-anchor="middle" x="99" y="-256.2" font-family="Arial" font-size="14.00" fill="#333333">Stereo Out</text></g><!-- nintendo switch:stereo out&#45;&gt;focusrite:line in 3/4 --><g id="edge-24" class="edge"><title>nintendo switch:stereo out-&gt;focusrite:line in 3/4</title><path fill="none" stroke="#333333" stroke-width="2" stroke-opacity="0.600000" d="M99,-241.9625C99,-239.0624 99,-237 99,-237 99,-237 794.6622,-237 794.6622,-237 794.6622,-237 794.6622,-195.834 794.6622,-195.834"></path><polygon fill="#333333" fill-opacity="0.600000" stroke="#333333" stroke-width="2" stroke-opacity="0.600000" points="798.1623,-195.834 794.6622,-185.834 791.1623,-195.8341 798.1623,-195.834"></polygon></g></g></svg>